<?xml version="1.0" encoding="UTF-8" standalone="no"?>
<!-- Generator: Adobe Illustrator 16.0.0, SVG Export Plug-In . SVG Version: 6.00 Build 0)  -->

<svg
   xmlns:dc="http://purl.org/dc/elements/1.1/"
   xmlns:cc="http://creativecommons.org/ns#"
   xmlns:rdf="http://www.w3.org/1999/02/22-rdf-syntax-ns#"
   xmlns:svg="http://www.w3.org/2000/svg"
   xmlns="http://www.w3.org/2000/svg"
   xmlns:sodipodi="http://sodipodi.sourceforge.net/DTD/sodipodi-0.dtd"
   xmlns:inkscape="http://www.inkscape.org/namespaces/inkscape"
   version="1.1"
   id="Layer_1"
   x="0px"
   y="0px"
   width="70px"
   height="70px"
   viewBox="0 0 70 70"
   enable-background="new 0 0 70 70"
   xml:space="preserve"
   inkscape:version="0.48.4 r9939"
   sodipodi:docname="about.svg"
   inkscape:export-filename="/var/www/html/andrew/html/svg/about.png"
   inkscape:export-xdpi="90"
   inkscape:export-ydpi="90"><metadata
     id="metadata3751"><rdf:RDF><cc:Work
         rdf:about=""><dc:format>image/svg+xml</dc:format><dc:type
           rdf:resource="http://purl.org/dc/dcmitype/StillImage" /><dc:title></dc:title></cc:Work></rdf:RDF></metadata><defs
     id="defs3749"><filter
       id="filter3753"
       inkscape:label="Invert"
       x="0"
       y="0"
       width="1"
       height="1"
       inkscape:menu="Color"
       inkscape:menu-tooltip="Invert colors"
       color-interpolation-filters="sRGB"><feColorMatrix
         id="feColorMatrix3755"
         type="saturate"
         values="1"
         result="fbSourceGraphic" /><feColorMatrix
         id="feColorMatrix3757"
         in="fbSourceGraphic"
         values="-1 0 0 0 1 0 -1 0 0 1 0 0 -1 0 1 0 0 0 1 0 " /></filter></defs><sodipodi:namedview
     pagecolor="#ffffff"
     bordercolor="#666666"
     borderopacity="1"
     objecttolerance="10"
     gridtolerance="10"
     guidetolerance="10"
     inkscape:pageopacity="0"
     inkscape:pageshadow="2"
     inkscape:window-width="1535"
     inkscape:window-height="876"
     id="namedview3747"
     showgrid="false"
     inkscape:zoom="10.571429"
     inkscape:cx="35"
     inkscape:cy="38.783784"
     inkscape:window-x="65"
     inkscape:window-y="24"
     inkscape:window-maximized="1"
     inkscape:current-layer="Layer_1" /><g
     id="g3715"
     style="filter:url(#filter3753)"><path
       d="M63.679,9.583h-56c-2.209,0-5.096,0.25-5.096,4.346v42c0,2.209,0.563,3.654,4.096,3.654h57   c2.209,0,2.904-1.445,2.904-3.654v-42C66.583,11.72,65.888,9.583,63.679,9.583z M62.583,13.583v5h-56v-5H62.583z M6.583,55.583v-35   h56v35H6.583z"
       id="path3717" /><path
       d="M28.988,24.583H13.176c-2.218,0-2.593,1-2.593,3.169v21c0,1.104,0.488,1.831,1.593,1.831h16.813   c1.104,0,1.595,0.273,1.595-0.831v-22C30.583,26.647,31.021,24.583,28.988,24.583z M28.583,48.583h-16v-22h16V48.583z"
       id="path3719" /><path
       d="M33.417,26.583h12c0.553,0,1-0.447,1-1s-0.447-1-1-1h-12c-0.553,0-1,0.447-1,1S32.864,26.583,33.417,26.583z"
       id="path3721" /><path
       d="M58.417,24.583h-9c-0.553,0-1,0.447-1,1s0.447,1,1,1h9c0.553,0,1-0.447,1-1S58.97,24.583,58.417,24.583z"
       id="path3723" /><path
       d="M33.417,31.583h6c0.553,0,1-0.447,1-1s-0.447-1-1-1h-6c-0.553,0-1,0.447-1,1S32.864,31.583,33.417,31.583z"
       id="path3725" /><path
       d="M14.417,17.583h1c0.553,0,1-0.447,1-1s-0.447-1-1-1h-1c-0.553,0-1,0.447-1,1S13.864,17.583,14.417,17.583z"
       id="path3727" /><path
       d="M53.417,17.583h1c0.553,0,1-0.447,1-1s-0.447-1-1-1h-1c-0.553,0-1,0.447-1,1S52.864,17.583,53.417,17.583z"
       id="path3729" /><path
       d="M50.417,29.583h-7c-0.553,0-1,0.447-1,1s0.447,1,1,1h7c0.553,0,1-0.447,1-1S50.97,29.583,50.417,29.583z"
       id="path3731" /><path
       d="M33.417,36.583h10c0.553,0,1-0.447,1-1s-0.447-1-1-1h-10c-0.553,0-1,0.447-1,1S32.864,36.583,33.417,36.583z"
       id="path3733" /><path
       d="M46.417,35.583c0,0.553,0.447,1,1,1h7c0.553,0,1-0.447,1-1s-0.447-1-1-1h-7C46.864,34.583,46.417,35.03,46.417,35.583z"
       id="path3735" /><path
       d="M58.417,29.583h-4c-0.553,0-1,0.447-1,1s0.447,1,1,1h4c0.553,0,1-0.447,1-1S58.97,29.583,58.417,29.583z"
       id="path3737" /><path
       d="M33.417,44.583h8c0.553,0,1-0.447,1-1s-0.447-1-1-1h-8c-0.553,0-1,0.447-1,1S32.864,44.583,33.417,44.583z"
       id="path3739" /><path
       d="M58.417,42.583h-13c-0.553,0-1,0.447-1,1s0.447,1,1,1h13c0.553,0,1-0.447,1-1S58.97,42.583,58.417,42.583z"
       id="path3741" /><path
       d="M48.417,47.583h-15c-0.553,0-1,0.447-1,1s0.447,1,1,1h15c0.553,0,1-0.447,1-1S48.97,47.583,48.417,47.583z"
       id="path3743" /><path
       d="M58.417,47.583h-6c-0.553,0-1,0.447-1,1s0.447,1,1,1h6c0.553,0,1-0.447,1-1S58.97,47.583,58.417,47.583z"
       id="path3745" /></g></svg>