<?xml version="1.0" encoding="utf-8"?>
<!-- Generator: Adobe Illustrator 16.0.0, SVG Export Plug-In . SVG Version: 6.00 Build 0)  -->
<!DOCTYPE svg PUBLIC "-//W3C//DTD SVG 1.1//EN" "http://www.w3.org/Graphics/SVG/1.1/DTD/svg11.dtd">
<svg version="1.1" id="Layer_1" xmlns="http://www.w3.org/2000/svg" xmlns:xlink="http://www.w3.org/1999/xlink" x="0px" y="0px"
	 width="70px" height="70px" viewBox="0 0 70 70" enable-background="new 0 0 70 70" xml:space="preserve">
<g>
	<path d="M63.042,7.269L49.18,59.007L34.279,44.105L15.652,62.731L6.958,54.04l18.627-18.627l-14.28-14.281L63.042,7.269
		 M63.042,3.269c-0.346,0-0.693,0.045-1.035,0.137L10.271,17.269c-1.38,0.369-2.458,1.447-2.829,2.828
		c-0.37,1.38,0.025,2.853,1.035,3.863l11.452,11.453L4.13,51.212c-0.75,0.75-1.172,1.768-1.172,2.828
		c0,1.062,0.421,2.078,1.172,2.829l8.693,8.691c0.781,0.78,1.805,1.171,2.828,1.171c1.024,0,2.047-0.391,2.828-1.172l15.799-15.797
		l12.073,12.072c0.76,0.76,1.781,1.172,2.828,1.172c0.346,0,0.693-0.045,1.035-0.137c1.381-0.369,2.459-1.447,2.828-2.828
		L66.905,8.304c0.37-1.381-0.024-2.854-1.035-3.863C65.11,3.681,64.089,3.269,63.042,3.269L63.042,3.269z"/>
	<g>
		<path d="M42.435,18.491c-0.438,0-0.839-0.288-0.963-0.729c-0.149-0.532,0.16-1.084,0.692-1.233l2.788-0.783
			c0.533-0.147,1.084,0.16,1.233,0.692s-0.161,1.084-0.692,1.233l-2.788,0.783C42.614,18.479,42.523,18.491,42.435,18.491z"/>
	</g>
	<g>
		<path d="M20.618,24.616c-0.437,0-0.838-0.288-0.962-0.729c-0.149-0.532,0.161-1.084,0.693-1.233l16.143-4.531
			c0.531-0.15,1.084,0.16,1.232,0.692c0.149,0.532-0.16,1.084-0.692,1.233l-16.143,4.531C20.798,24.604,20.707,24.616,20.618,24.616
			z"/>
	</g>
</g>
</svg>
