<?xml version="1.0" encoding="utf-8"?>
<!-- Generator: Adobe Illustrator 16.0.0, SVG Export Plug-In . SVG Version: 6.00 Build 0)  -->
<!DOCTYPE svg PUBLIC "-//W3C//DTD SVG 1.1//EN" "http://www.w3.org/Graphics/SVG/1.1/DTD/svg11.dtd">
<svg version="1.1" id="Layer_1" xmlns="http://www.w3.org/2000/svg" xmlns:xlink="http://www.w3.org/1999/xlink" x="0px" y="0px"
	 width="70px" height="70px" viewBox="0 0 70 70" enable-background="new 0 0 70 70" xml:space="preserve">
<g>
	<path d="M65.073,55.169l-5.49-7.646V31.254c0-12.529-10-23.023-23-23.969V5.208c0-1.104-0.896-2-2-2s-2,0.896-2,2v2.087
		c-12,1.007-22,11.472-22,23.959v16.268l-5.549,7.742c-0.871,1.219-0.997,2.319-0.311,3.651s2.05,1.667,3.548,1.667h53.508
		c1.498,0,2.775-0.335,3.461-1.667S65.944,56.388,65.073,55.169z M8.271,56.583l6.312-7.779V31.254
		c0-10.949,9.094-20.671,20.355-20.671h0.026h0.148c11.262,0,20.47,9.722,20.47,20.671v17.549l6.196,7.779H8.271z"/>
	<path d="M47.116,19.94c-0.438-0.339-0.97-0.258-1.309,0.177c-0.339,0.437-0.402,1.064,0.033,1.403
		c2.434,1.887,3.742,4.823,3.742,7.855v9.833c0,0.553,0.447,1,1,1s1-0.447,1-1v-9.833C51.583,25.73,50.032,22.203,47.116,19.94z"/>
	<path d="M42.883,17.436c-1.206-0.354-2.527-0.853-3.82-0.853h-0.098c-0.553,0-0.952,0.76-0.952,1.313s0.496,1.156,1.049,1.156
		c1.105,0,2.232,0.238,3.258,0.539c0.094,0.027,0.188,0.079,0.281,0.079c0.433,0,0.832-0.419,0.96-0.855
		C43.717,18.284,43.413,17.591,42.883,17.436z"/>
	<path d="M40.965,62.583h-12c-1.104,0-2,0.895-2,2c0,1.104,0.896,2,2,2h12c1.104,0,2-0.896,2-2
		C42.965,63.478,42.069,62.583,40.965,62.583z"/>
</g>
</svg>
