<?xml version="1.0" encoding="utf-8"?>
<!-- Generator: Adobe Illustrator 16.0.0, SVG Export Plug-In . SVG Version: 6.00 Build 0)  -->
<!DOCTYPE svg PUBLIC "-//W3C//DTD SVG 1.1//EN" "http://www.w3.org/Graphics/SVG/1.1/DTD/svg11.dtd">
<svg version="1.1" id="Layer_1" xmlns="http://www.w3.org/2000/svg" xmlns:xlink="http://www.w3.org/1999/xlink" x="0px" y="0px"
	 width="70px" height="70px" viewBox="0 0 70 70" enable-background="new 0 0 70 70" xml:space="preserve">
<g>
	<path d="M27.527,26.487l-10.508,7.038c-0.458,0.308-0.582,0.929-0.274,1.388c0.193,0.288,0.51,0.443,0.832,0.443
		c0.191,0,0.385-0.055,0.556-0.169l10.508-7.038c0.458-0.308,0.581-0.929,0.273-1.388C28.607,26.302,27.984,26.18,27.527,26.487z"/>
	<path d="M64.897,13.138c-0.596-0.323-0.843-0.483-1.497-0.483c-0.763,0-1.522,0.218-2.185,0.649L40.583,26.391v-9.736
		c0-1.477-0.482-2.833-1.785-3.528c-0.59-0.315-0.908-0.472-1.554-0.472c-0.779,0-1.556,0.228-2.227,0.677L7.625,31.677
		c-0.413,0.276-0.764,0.623-1.042,1.018V18.5c0-1.104-0.896-2-2-2s-2,0.896-2,2v33c0,1.104,0.896,2,2,2s2-0.896,2-2V37.305
		c0.278,0.395,0.629,0.742,1.042,1.018l27.393,18.346c0.671,0.449,1.447,0.677,2.227,0.677c0.646,0,0.963-0.156,1.554-0.472
		c1.303-0.695,1.785-2.052,1.785-3.528V43.267l20.289,13.402c0.671,0.449,1.6,0.677,2.378,0.677c0.646,0,0.959-0.156,1.55-0.472
		c1.303-0.695,1.783-2.052,1.783-3.528V16.654C66.583,15.187,66.188,13.837,64.897,13.138z M36.583,53.346L9.607,35l26.976-18.524
		v14.267v8.13V53.346z M62.583,53.346l-22-14.473v-8.13l22-14.411V53.346z"/>
</g>
</svg>
