<?xml version="1.0" encoding="utf-8"?>
<!-- Generator: Adobe Illustrator 16.0.0, SVG Export Plug-In . SVG Version: 6.00 Build 0)  -->
<!DOCTYPE svg PUBLIC "-//W3C//DTD SVG 1.1//EN" "http://www.w3.org/Graphics/SVG/1.1/DTD/svg11.dtd">
<svg version="1.1" id="Layer_1" xmlns="http://www.w3.org/2000/svg" xmlns:xlink="http://www.w3.org/1999/xlink" x="0px" y="0px"
	 width="70px" height="70px" viewBox="0 0 70 70" enable-background="new 0 0 70 70" xml:space="preserve">
<g>
	<path d="M53.162,31.943c-0.391-0.391-1.023-0.391-1.414,0s-0.391,1.023,0,1.414l2.122,2.122c0.195,0.195,0.451,0.293,0.707,0.293
		s0.512-0.098,0.707-0.293c0.391-0.391,0.391-1.023,0-1.414L53.162,31.943z"/>
	<path d="M44.678,23.458c-0.391-0.391-1.023-0.391-1.414,0s-0.391,1.023,0,1.414l4.242,4.242c0.195,0.195,0.451,0.293,0.707,0.293
		s0.512-0.098,0.707-0.293c0.391-0.391,0.391-1.023,0-1.414L44.678,23.458z"/>
	<path d="M66.598,22.751c-0.781-0.781-2.047-0.781-2.828,0l-3.486,3.486L44.02,9.975l3.486-3.487c0.781-0.781,0.781-2.047,0-2.828
		s-2.047-0.781-2.828,0l-3.528,3.528c-1.496-1.194-3.339-1.847-5.285-1.847c-2.288,0-4.44,0.894-6.062,2.515
		c-1.611,1.608-2.505,3.748-2.516,6.021c-0.012,2.287,0.871,4.435,2.484,6.048l0.589,0.589c-4.339,1.313-8.606,4.052-11.65,7.576
		c-3.338,3.864-4.676,8.805-6.093,14.036c-1.752,6.472-3.564,13.164-9.266,19.29c-0.445,0.479-0.629,1.144-0.491,1.782
		c0.137,0.639,0.577,1.17,1.18,1.424c3.793,1.597,8.087,2.306,12.497,2.305c12.375,0,25.655-5.585,31.29-12.819
		c2.511-3.224,4.328-7.482,5.068-11.635c1.187,0.609,2.507,0.938,3.881,0.938c2.287,0,4.44-0.893,6.063-2.514
		c3.255-3.254,3.339-8.481,0.26-11.819l3.498-3.498C67.379,24.798,67.379,23.533,66.598,22.751z M44.672,51.65
		C38.534,59.53,20.651,65.297,8.239,61.85c4.862-6.205,6.646-12.791,8.24-18.678c1.351-4.986,2.517-9.292,5.259-12.466
		c3.086-3.574,7.636-6.167,11.956-6.857l15.557,15.557C49.039,43.545,47.247,48.342,44.672,51.65z M60.012,38.067
		c-0.896,0.895-2.066,1.343-3.234,1.343c-1.152,0-2.302-0.438-3.178-1.313l-21-21c-1.763-1.763-1.749-4.635,0.031-6.413
		c0.895-0.895,2.065-1.343,3.233-1.343c1.153,0,2.303,0.438,3.179,1.313l21,20.999C61.805,33.417,61.791,36.289,60.012,38.067z"/>
	<path d="M28.73,57.016c0.16,0.385,0.532,0.617,0.924,0.617c0.128,0,0.258-0.024,0.383-0.076c5.465-2.267,10.056-5.483,12.281-8.604
		c2.341-3.283,3.346-7.339,2.756-11.127c-0.085-0.545-0.584-0.916-1.143-0.834c-0.545,0.085-0.919,0.597-0.834,1.143
		c0.511,3.276-0.367,6.795-2.408,9.658c-1.987,2.787-6.362,5.821-11.418,7.918C28.761,55.921,28.519,56.506,28.73,57.016z"/>
	<path d="M25.537,57.039c-0.697,0.209-1.413,0.398-2.125,0.563c-0.538,0.125-0.874,0.661-0.75,1.199
		c0.107,0.463,0.519,0.775,0.974,0.775c0.074,0,0.15-0.008,0.226-0.025c0.754-0.175,1.511-0.375,2.25-0.596
		c0.528-0.158,0.829-0.716,0.671-1.245C26.624,57.182,26.066,56.882,25.537,57.039z"/>
</g>
</svg>
