<?xml version="1.0" encoding="utf-8"?>
<!-- Generator: Adobe Illustrator 16.0.0, SVG Export Plug-In . SVG Version: 6.00 Build 0)  -->
<!DOCTYPE svg PUBLIC "-//W3C//DTD SVG 1.1//EN" "http://www.w3.org/Graphics/SVG/1.1/DTD/svg11.dtd">
<svg version="1.1" id="Layer_1" xmlns="http://www.w3.org/2000/svg" xmlns:xlink="http://www.w3.org/1999/xlink" x="0px" y="0px"
	 width="70px" height="70px" viewBox="0 0 70 70" enable-background="new 0 0 70 70" xml:space="preserve">
<g>
	<g>
		<path d="M60.093,60.583H10.244c-0.999,0-1.844-0.527-1.981-1.518l-4.91-35.291c-0.102-0.73,0.208-1.405,0.804-1.839
			c0.596-0.434,1.384-0.479,2.047-0.157l17.292,8.362l9.496-19.995c0.334-0.689,1.033-1.563,1.798-1.563h0.001
			c0.765,0,1.463,0.878,1.798,1.566l9.71,20.155l17.825-8.607c0.666-0.323,1.455-0.199,2.052,0.232
			c0.599,0.435,0.91,1.19,0.809,1.922l-4.909,35.202C61.937,60.041,61.091,60.583,60.093,60.583z M11.986,56.583h46.365l4.154-29.74
			l-16.249,8.05c-0.478,0.232-1.028,0.319-1.529,0.147c-0.502-0.173-0.915-0.512-1.147-0.989l-8.786-18.024l-8.571,17.662
			c-0.481,0.993-1.675,1.414-2.669,0.931L7.828,26.82L11.986,56.583z"/>
	</g>
	<g>
		<path d="M30.018,54.583H15.486c-0.495,0-0.916-0.154-0.989-0.643l-1.353-8.896c-0.082-0.546,0.294-1.003,0.84-1.085
			c0.538-0.073,1.055,0.111,1.137,0.658l1.225,7.966h13.671c0.552,0,1,0.447,1,1S30.57,54.583,30.018,54.583z"/>
	</g>
	<g>
		<path d="M13.519,41.178c-0.486,0-0.913-0.355-0.987-0.851l-0.604-4c-0.083-0.546,0.293-1.056,0.839-1.139
			c0.545-0.072,1.056,0.294,1.138,0.84l0.604,4c0.083,0.546-0.293,1.056-0.839,1.139C13.619,41.174,13.569,41.178,13.519,41.178z"/>
	</g>
	<g>
		<path d="M60.019,66.583h-50c-1.104,0-2-0.896-2-2s0.896-2,2-2h50c1.104,0,2,0.896,2,2S61.123,66.583,60.019,66.583z"/>
	</g>
	<g>
		<path d="M4.998,19.18c-0.52,0-1.04-0.22-1.41-0.59s-0.59-0.89-0.59-1.41c0-0.53,0.22-1.04,0.59-1.42c0.74-0.74,2.08-0.74,2.83,0
			c0.37,0.38,0.58,0.89,0.58,1.42c0,0.521-0.21,1.04-0.58,1.41C6.038,18.96,5.528,19.18,4.998,19.18z"/>
	</g>
	<g>
		<path d="M64.998,19.18c-0.52,0-1.04-0.22-1.41-0.59c-0.369-0.37-0.59-0.89-0.59-1.41c0-0.53,0.221-1.04,0.59-1.42
			c0.75-0.74,2.08-0.74,2.83,0c0.37,0.38,0.58,0.89,0.58,1.42c0,0.521-0.21,1.04-0.58,1.41C66.038,18.96,65.528,19.18,64.998,19.18z
			"/>
	</g>
	<g>
		<path d="M34.998,7.18c-0.52,0-1.04-0.22-1.41-0.59s-0.59-0.88-0.59-1.41s0.22-1.05,0.59-1.42c0.74-0.74,2.08-0.74,2.83,0
			c0.37,0.37,0.58,0.89,0.58,1.42s-0.21,1.04-0.58,1.41C36.038,6.96,35.528,7.18,34.998,7.18z"/>
	</g>
</g>
</svg>
