<?xml version="1.0" encoding="utf-8"?>
<!-- Generator: Adobe Illustrator 16.0.0, SVG Export Plug-In . SVG Version: 6.00 Build 0)  -->
<!DOCTYPE svg PUBLIC "-//W3C//DTD SVG 1.1//EN" "http://www.w3.org/Graphics/SVG/1.1/DTD/svg11.dtd">
<svg version="1.1" id="Layer_1" xmlns="http://www.w3.org/2000/svg" xmlns:xlink="http://www.w3.org/1999/xlink" x="0px" y="0px"
	 width="70px" height="70px" viewBox="0 0 70 70" enable-background="new 0 0 70 70" xml:space="preserve">
<g>
	<path d="M59.073,12.968l-7.858-8.7c-0.75-0.75-1.488-1.685-2.55-1.685h-33.76c-2.209,0-5.322,2.817-5.322,5.026v56
		c0,2.209,3.113,2.974,5.322,2.974h42c2.209,0,2.678-0.765,2.678-2.974V15.796C59.583,14.735,59.823,13.718,59.073,12.968z
		 M54.464,14.583h-5.881V8.21L54.464,14.583z M13.583,62.583v-56h33v8.834c0,0.553,0.698,1.166,1.251,1.166h7.749v46H13.583z"/>
	<path d="M48.219,37.417c0-0.444-0.293-0.835-0.719-0.96l-11.313-3.313c-0.184-0.053-0.379-0.053-0.563,0l-11.313,3.313
		c-0.426,0.125-0.719,0.516-0.719,0.96s0.293,0.835,0.719,0.96l3.551,1.04l-3.551,1.04c-0.426,0.125-0.719,0.516-0.719,0.96
		s0.293,0.835,0.719,0.96l3.551,1.04l-3.551,1.04c-0.426,0.125-0.719,0.516-0.719,0.96s0.293,0.835,0.719,0.96l11.313,3.313
		c0.092,0.026,0.187,0.04,0.281,0.04s0.189-0.014,0.281-0.04L47.5,46.377c0.426-0.125,0.719-0.516,0.719-0.96
		s-0.293-0.835-0.719-0.96l-3.551-1.04l3.551-1.04c0.426-0.125,0.719-0.516,0.719-0.96s-0.293-0.835-0.719-0.96l-3.551-1.04
		l3.551-1.04C47.926,38.252,48.219,37.861,48.219,37.417z M35.905,35.146l7.756,2.271l-7.756,2.271l-7.756-2.271L35.905,35.146z
		 M43.661,45.417l-7.756,2.271l-7.756-2.271l3.271-0.958l4.204,1.231c0.092,0.026,0.187,0.04,0.281,0.04s0.189-0.014,0.281-0.04
		l4.203-1.231L43.661,45.417z M43.661,41.417l-7.756,2.271l-7.756-2.271l3.271-0.958l4.204,1.231c0.092,0.026,0.187,0.04,0.281,0.04
		s0.189-0.014,0.281-0.04l4.203-1.231L43.661,41.417z"/>
</g>
</svg>
