<?xml version="1.0" encoding="utf-8"?>
<!-- Generator: Adobe Illustrator 16.0.0, SVG Export Plug-In . SVG Version: 6.00 Build 0)  -->
<!DOCTYPE svg PUBLIC "-//W3C//DTD SVG 1.1//EN" "http://www.w3.org/Graphics/SVG/1.1/DTD/svg11.dtd">
<svg version="1.1" id="Layer_1" xmlns="http://www.w3.org/2000/svg" xmlns:xlink="http://www.w3.org/1999/xlink" x="0px" y="0px"
	 width="70px" height="70px" viewBox="0 0 70 70" enable-background="new 0 0 70 70" xml:space="preserve">
<g>
	<path d="M67.142,23.641L55.405,10.456c-0.379-0.423-0.92-0.873-1.488-0.873h-37.98c-0.568,0-1.109,0.45-1.489,0.874L2.711,23.752
		c-0.691,0.771-0.68,1.94,0.025,2.697L33.462,59.46c0.378,0.407,0.909,0.638,1.464,0.638s1.086-0.257,1.464-0.664l30.728-33.042
		C67.822,25.634,67.833,24.411,67.142,23.641z M46.555,25.583L34.902,53.414L22.608,25.583H46.555z M21.725,23.583l-4.417-10h34.272
		l-4.188,10H21.725z M32.231,52.152L7.586,25.583h12.879L32.231,52.152z M48.702,25.583H62c0.094,0,0.179-0.029,0.265-0.054
		L37.462,52.318L48.702,25.583z M61.871,23.583H49.543l3.971-9.447L61.871,23.583z M15.714,14.851l3.867,8.732H8.027L15.714,14.851z
		"/>
	<path d="M35,14.583H23c-0.552,0-1,0.447-1,1s0.448,1,1,1h12c0.552,0,1-0.447,1-1S35.552,14.583,35,14.583z"/>
	<path d="M45,14.583h-5c-0.552,0-1,0.447-1,1s0.448,1,1,1h5c0.552,0,1-0.447,1-1S45.552,14.583,45,14.583z"/>
</g>
</svg>
