<?xml version="1.0" encoding="utf-8"?>
<!-- Generator: Adobe Illustrator 16.0.0, SVG Export Plug-In . SVG Version: 6.00 Build 0)  -->
<!DOCTYPE svg PUBLIC "-//W3C//DTD SVG 1.1//EN" "http://www.w3.org/Graphics/SVG/1.1/DTD/svg11.dtd">
<svg version="1.1" id="Layer_1" xmlns="http://www.w3.org/2000/svg" xmlns:xlink="http://www.w3.org/1999/xlink" x="0px" y="0px"
	 width="70px" height="70px" viewBox="0 0 70 70" enable-background="new 0 0 70 70" xml:space="preserve">
<g>
	<path d="M47.248,22.583c1.104,0,1.335-0.284,1.335-1.389v-8.863c0-1.104-0.23-1.748-1.335-1.748H23.936
		c-1.104,0-2.353,0.644-2.353,1.748v8.863c0,1.104,0.248,1.389,1.353,1.389H47.248z M23.583,12.583h23v8h-23V12.583z"/>
	<path d="M62.341,12.866l-8.226-8.649c-0.75-0.75-1.803-1.634-2.863-1.634H17.439c-2.209,0-3.856,2.716-3.856,4.925v55.075h-3
		V30.417c0-1.104-0.896-2-2-2s-2,0.896-2,2v35c0,1.104,1.229,1.166,2.334,1.166h8.522h6.478h35.522c2.209,0,4.144-0.866,4.144-3.075
		V15.694C63.583,14.634,63.091,13.616,62.341,12.866z M58.791,14.583h-7.208V7.86L58.791,14.583z M23.917,62.583h-6.334v-56h32.014
		l-0.014,8.834c0,0.553,0.781,1.166,1.334,1.166h8.666v46H23.917z"/>
	<path d="M33.917,26.583h-10c-0.553,0-1,0.447-1,1s0.447,1,1,1h10c0.553,0,1-0.447,1-1S34.47,26.583,33.917,26.583z"/>
	<path d="M50.917,26.583h-13c-0.553,0-1,0.447-1,1s0.447,1,1,1h13c0.553,0,1-0.447,1-1S51.47,26.583,50.917,26.583z"/>
	<path d="M23.917,33.583h4c0.553,0,1-0.447,1-1s-0.447-1-1-1h-4c-0.553,0-1,0.447-1,1S23.364,33.583,23.917,33.583z"/>
	<path d="M39.917,32.583c0-0.553-0.447-1-1-1h-7c-0.553,0-1,0.447-1,1s0.447,1,1,1h7C39.47,33.583,39.917,33.136,39.917,32.583z"/>
	<path d="M31.917,36.583h-8c-0.553,0-1,0.447-1,1s0.447,1,1,1h8c0.553,0,1-0.447,1-1S32.47,36.583,31.917,36.583z"/>
	<path d="M50.917,36.583h-15c-0.553,0-1,0.447-1,1s0.447,1,1,1h15c0.553,0,1-0.447,1-1S51.47,36.583,50.917,36.583z"/>
	<path d="M50.917,31.583h-7c-0.553,0-1,0.447-1,1s0.447,1,1,1h7c0.553,0,1-0.447,1-1S51.47,31.583,50.917,31.583z"/>
	<path d="M42.917,56.583h-7c-0.553,0-1,0.447-1,1s0.447,1,1,1h7c0.553,0,1-0.447,1-1S43.47,56.583,42.917,56.583z"/>
	<path d="M50.917,51.583h-8c-0.553,0-1,0.447-1,1s0.447,1,1,1h8c0.553,0,1-0.447,1-1S51.47,51.583,50.917,51.583z"/>
	<path d="M22.917,52.583c0,0.553,0.447,1,1,1h15c0.553,0,1-0.447,1-1s-0.447-1-1-1h-15C23.364,51.583,22.917,52.03,22.917,52.583z"
		/>
	<path d="M30.917,56.583h-7c-0.553,0-1,0.447-1,1s0.447,1,1,1h7c0.553,0,1-0.447,1-1S31.47,56.583,30.917,56.583z"/>
	<path d="M23.917,43.583h6c0.553,0,1-0.447,1-1s-0.447-1-1-1h-6c-0.553,0-1,0.447-1,1S23.364,43.583,23.917,43.583z"/>
	<path d="M50.917,41.583h-17c-0.553,0-1,0.447-1,1s0.447,1,1,1h17c0.553,0,1-0.447,1-1S51.47,41.583,50.917,41.583z"/>
	<path d="M36.917,46.583h-13c-0.553,0-1,0.447-1,1s0.447,1,1,1h13c0.553,0,1-0.447,1-1S37.47,46.583,36.917,46.583z"/>
	<path d="M50.917,46.583h-10c-0.553,0-1,0.447-1,1s0.447,1,1,1h10c0.553,0,1-0.447,1-1S51.47,46.583,50.917,46.583z"/>
</g>
</svg>
