<?xml version="1.0" encoding="utf-8"?>
<!-- Generator: Adobe Illustrator 16.0.0, SVG Export Plug-In . SVG Version: 6.00 Build 0)  -->
<!DOCTYPE svg PUBLIC "-//W3C//DTD SVG 1.1//EN" "http://www.w3.org/Graphics/SVG/1.1/DTD/svg11.dtd">
<svg version="1.1" id="Layer_1" xmlns="http://www.w3.org/2000/svg" xmlns:xlink="http://www.w3.org/1999/xlink" x="0px" y="0px"
	 width="70px" height="70px" viewBox="0 0 70 70" enable-background="new 0 0 70 70" xml:space="preserve">
<g>
	<path d="M35,3C17.355,3,3,17.355,3,35s14.355,32,32,32s32-14.355,32-32S52.645,3,35,3z M35,7c15.465,0,28,12.642,28,28.107
		c0,0.459-0.013,0.476-0.034,1.476h-9.383v-6.042c0-2.444-2.019-4.434-4.5-4.434s-4.5,1.989-4.5,4.434v1.245v6v3.368
		c0,1.342-1.121,2.433-2.5,2.433s-2.5-1.091-2.5-2.433v-1.368v-12v-4.177c0-2.537-2.64-4.434-5-4.434s-5,1.896-5,4.434v4.177v12
		v1.368c0,1.342-1.121,2.433-2.5,2.433s-2.5-1.091-2.5-2.433v-3.368v-3v-4.245c0-2.444-2.019-4.434-4.5-4.434s-4.5,1.989-4.5,4.434
		v6.042H7.035C7.013,35.583,7,35.566,7,35.107C7,19.642,19.535,7,35,7z M35,63.214c-14.324,0-26.126-10.631-27.791-24.631h10.23
		c0.553,0,0.144-0.244,0.144-0.797v-7.245c0-1.342,1.121-2.434,2.5-2.434s2.5,1.092,2.5,2.434v4.245v3v3.368
		c0,2.444,2.019,4.433,4.5,4.433s4.5-1.988,4.5-4.433v-1.368v-12v-4.177c0-1.311,1.649-2.434,3-2.434s3,1.123,3,2.434v4.177v12
		v1.368c0,2.444,2.019,4.433,4.5,4.433s4.5-1.988,4.5-4.433v-3.368v-6v-1.245c0-1.342,1.121-2.434,2.5-2.434s2.5,1.092,2.5,2.434
		v7.245c0,0.553,1.304,0.797,1.856,0.797h9.352C61.126,52.583,49.324,63.214,35,63.214z"/>
	<path d="M18.832,17.691c0.235,0,0.472-0.083,0.662-0.251c1.997-1.765,4.256-3.165,6.714-4.161c0.512-0.207,0.758-0.79,0.551-1.303
		c-0.207-0.512-0.793-0.76-1.303-0.551c-2.668,1.081-5.12,2.601-7.286,4.517c-0.414,0.365-0.453,0.998-0.087,1.411
		C18.28,17.577,18.556,17.691,18.832,17.691z"/>
	<path d="M13.372,23.593c0.158,0.092,0.331,0.136,0.502,0.136c0.345,0,0.68-0.178,0.865-0.497c0.438-0.752,0.926-1.491,1.45-2.196
		c0.329-0.443,0.237-1.07-0.206-1.399c-0.444-0.329-1.069-0.235-1.399,0.206c-0.568,0.765-1.098,1.566-1.573,2.384
		C12.733,22.702,12.895,23.314,13.372,23.593z"/>
	<path d="M50.506,52.56c-1.997,1.765-4.256,3.165-6.714,4.161c-0.512,0.207-0.758,0.79-0.551,1.303
		c0.157,0.389,0.532,0.624,0.927,0.624c0.125,0,0.253-0.023,0.376-0.073c2.668-1.081,5.12-2.601,7.286-4.517
		c0.414-0.365,0.453-0.998,0.087-1.411C51.553,52.233,50.92,52.195,50.506,52.56z"/>
	<path d="M56.628,46.407c-0.478-0.277-1.09-0.116-1.367,0.361c-0.438,0.752-0.926,1.491-1.45,2.196
		c-0.329,0.443-0.237,1.07,0.206,1.399c0.18,0.133,0.389,0.197,0.596,0.197c0.306,0,0.607-0.14,0.804-0.403
		c0.568-0.765,1.098-1.566,1.573-2.384C57.267,47.298,57.105,46.686,56.628,46.407z"/>
</g>
</svg>
