<?xml version="1.0" encoding="utf-8"?>
<!-- Generator: Adobe Illustrator 16.0.0, SVG Export Plug-In . SVG Version: 6.00 Build 0)  -->
<!DOCTYPE svg PUBLIC "-//W3C//DTD SVG 1.1//EN" "http://www.w3.org/Graphics/SVG/1.1/DTD/svg11.dtd">
<svg version="1.1" id="Layer_1" xmlns="http://www.w3.org/2000/svg" xmlns:xlink="http://www.w3.org/1999/xlink" x="0px" y="0px"
	 width="70px" height="70px" viewBox="0 0 70 70" enable-background="new 0 0 70 70" xml:space="preserve">
<g>
	<g>
		<path d="M35,17.5c15.465,0,28,18,28,18s-12.535,17-28,17s-28-17-28-17S19.535,17.5,35,17.5 M35,13.5
			c-17.354,0-30.722,18.909-31.282,19.714c-0.979,1.406-0.954,3.28,0.063,4.66C4.342,38.635,17.714,56.5,35,56.5
			s30.658-17.865,31.22-18.626c1.017-1.38,1.042-3.254,0.063-4.66C65.722,32.409,52.354,13.5,35,13.5L35,13.5z"/>
	</g>
	<g>
		<path d="M27.912,23.219c-0.394,0-0.768-0.234-0.926-0.622c-0.209-0.511,0.036-1.095,0.548-1.304
			c0.797-0.325,1.603-0.604,2.396-0.826c0.533-0.148,1.084,0.16,1.233,0.692s-0.161,1.084-0.692,1.233
			c-0.722,0.202-1.455,0.455-2.182,0.752C28.166,23.195,28.038,23.219,27.912,23.219z"/>
	</g>
	<g>
		<path d="M12.188,36.407c-0.197,0-0.396-0.058-0.57-0.18c-0.453-0.315-0.565-0.938-0.249-1.392
			c0.167-0.24,4.158-5.921,10.299-10.27c0.452-0.319,1.075-0.212,1.395,0.238c0.319,0.451,0.212,1.075-0.238,1.395
			c-5.858,4.147-9.775,9.724-9.814,9.779C12.815,36.258,12.505,36.407,12.188,36.407z"/>
	</g>
	<g>
		<path d="M35,27.235c4.564,0,8.265,3.7,8.265,8.265s-3.7,8.265-8.265,8.265s-8.265-3.7-8.265-8.265S30.436,27.235,35,27.235
			 M35,25.235c-5.66,0-10.265,4.604-10.265,10.265S29.34,45.765,35,45.765S45.265,41.16,45.265,35.5S40.66,25.235,35,25.235
			L35,25.235z"/>
	</g>
	<circle cx="35" cy="35.5" r="3.14"/>
</g>
</svg>
