<?xml version="1.0" encoding="utf-8"?>
<!-- Generator: Adobe Illustrator 16.0.0, SVG Export Plug-In . SVG Version: 6.00 Build 0)  -->
<!DOCTYPE svg PUBLIC "-//W3C//DTD SVG 1.1//EN" "http://www.w3.org/Graphics/SVG/1.1/DTD/svg11.dtd">
<svg version="1.1" id="Layer_1" xmlns="http://www.w3.org/2000/svg" xmlns:xlink="http://www.w3.org/1999/xlink" x="0px" y="0px"
	 width="70px" height="70px" viewBox="0 0 70 70" enable-background="new 0 0 70 70" xml:space="preserve">
<g>
	<path d="M63.495,16.583H38.626l-2.849-4.984c-0.712-1.246-2.037-2.016-3.473-2.016h-18.81c-2.209,0-4.912,1.847-4.912,4.056v42.944
		h-2V17.917c0-1.104-0.896-2-2-2s-2,0.896-2,2v40c0,1.104,0.729,2.666,1.834,2.666h59.078c2.209,0,3.088-1.735,3.088-3.944v-36
		C66.583,18.43,65.704,16.583,63.495,16.583z M62.583,56.583H19.417h-6.834v-43h19h0.304l4.417,7h26.278V56.583z"/>
	<path d="M59.583,44.917c0.553,0,1-0.447,1-1v-2c0-0.553-0.447-1-1-1s-1,0.447-1,1v2C58.583,44.47,59.03,44.917,59.583,44.917z"/>
	<path d="M35.417,52.583c0,0.553,0.448,1,1,1h23c1.417,0,1.166-1.113,1.166-1.666v-4c0-0.553-0.447-1-1-1s-1,0.447-1,1v3.666H36.417
		C35.865,51.583,35.417,52.03,35.417,52.583z"/>
</g>
</svg>
