<?xml version="1.0" encoding="utf-8"?>
<!-- Generator: Adobe Illustrator 16.0.0, SVG Export Plug-In . SVG Version: 6.00 Build 0)  -->
<!DOCTYPE svg PUBLIC "-//W3C//DTD SVG 1.1//EN" "http://www.w3.org/Graphics/SVG/1.1/DTD/svg11.dtd">
<svg version="1.1" id="Layer_1" xmlns="http://www.w3.org/2000/svg" xmlns:xlink="http://www.w3.org/1999/xlink" x="0px" y="0px"
	 width="70px" height="70px" viewBox="0 0 70 70" enable-background="new 0 0 70 70" xml:space="preserve">
<g>
	<path d="M50.013,17.27c-0.253,0-0.499,0.032-0.73,0.096c-2.557,0.697-10.503,7.352-10.505,11.31c0,3.245,5.473,5.688,9.021,5.688
		c0.798,0,1.505-0.115,2.1-0.342c3.39-1.289,8.034-5.626,7.505-8.974C56.953,22.19,53.131,17.27,50.013,17.27z M49.187,32.151
		c-0.362,0.139-0.842,0.211-1.388,0.211c-3.019,0-7.021-2.103-7.021-3.687c0.002-2.717,6.925-8.807,9.031-9.381
		c0.061-0.017,0.13-0.025,0.204-0.025c1.707,0,5.048,3.756,5.416,6.09C55.746,27.371,52.037,31.067,49.187,32.151z"/>
	<path d="M60.008,12.091c0.63-1.46,0.348-3.219-0.845-4.412l-3.34-3.341c-0.779-0.778-1.804-1.172-2.83-1.172
		c-0.947,0-1.897,0.335-2.657,1.012c-0.297,0.264-7.323,6.519-12.366,11.393c-2.484,2.403-4.298,5.194-5.897,7.657
		c-1.263,1.943-2.456,3.778-3.742,5.065c-1.289,1.288-3.132,2.487-5.083,3.757c-2.469,1.607-5.268,3.429-7.668,5.91
		C10.705,43.005,4.421,50.059,4.156,50.356c-1.408,1.582-1.339,3.988,0.159,5.486l3.34,3.342c0.75,0.751,1.768,1.173,2.828,1.173
		c0.588,0,1.163-0.129,1.686-0.372c4.115,2.926,10.373,6.849,14.331,6.849c0.44,0,0.871-0.041,1.278-0.122
		c5.856-1.174,14.119-11.802,15.411-17.074c0.645-2.625-0.151-5.286-1.32-7.811c1.9,0.878,3.89,1.549,5.882,1.549
		c0.666,0,1.314-0.076,1.926-0.227c5.272-1.292,15.902-9.554,17.075-15.408C67.529,23.843,63.874,17.489,60.008,12.091z
		 M62.829,26.955c-0.745,3.718-9.726,11.236-14.105,12.31c-0.311,0.076-0.636,0.111-0.974,0.111c-3.976,0-9.665-4.849-12.242-4.849
		c-0.29,0-0.541,0.062-0.745,0.198c-1.454,2.172,5.613,9.588,4.541,13.96c-1.074,4.378-8.591,13.358-12.309,14.104
		c-0.153,0.03-0.318,0.045-0.495,0.045c-4.133,0-14.527-7.965-14.527-7.965l-1.488,1.488l-3.34-3.342c0,0,6.438-7.232,11.311-12.274
		c3.932-4.064,9.329-6.245,12.704-9.62c3.374-3.374,5.526-8.742,9.592-12.675c5.04-4.873,12.243-11.28,12.243-11.28l3.34,3.341
		l-1.424,1.425C54.91,11.932,63.571,23.237,62.829,26.955z"/>
	<path d="M28.714,38.737c-3.961,0.001-10.614,7.948-11.31,10.504c-0.257,0.941-0.004,2.014,0.753,3.185
		c1.472,2.279,4.709,4.586,6.928,4.938c0.182,0.028,0.366,0.042,0.556,0.042c3.331,0,7.274-4.542,8.42-7.547
		c0.935-2.455-0.199-6.459-1.785-8.76C31.211,39.555,29.98,38.737,28.714,38.737z M32.192,49.147c-1.06,2.78-4.71,6.555-6.795,6.241
		c-1.687-0.268-4.388-2.234-5.56-4.048c-0.416-0.646-0.6-1.219-0.503-1.573c0.573-2.106,6.662-9.029,9.38-9.03
		c0.553,0,1.269,0.56,1.915,1.497C32.069,44.322,32.798,47.554,32.192,49.147z"/>
	<path d="M27.26,43.583c-0.012,0-0.022,0-0.033,0c-0.552,0-0.985,0.929-0.967,1.479l0.205,6.806
		c0.017,0.541,0.461,0.715,0.998,0.715c0.012,0,0.022,0,0.033,0c0.552,0,0.985-0.514,0.967-1.065l-0.205-6.392
		C28.242,44.585,27.797,43.583,27.26,43.583z"/>
	<path d="M23.583,45.267c-0.553,0-1,0.447-1,1v4c0,0.553,0.447,1,1,1s1-0.447,1-1v-4C24.583,45.714,24.136,45.267,23.583,45.267z"/>
	<path d="M48.583,22.267c-0.553,0-1,0.447-1,1v4c0,0.553,0.447,1,1,1s1-0.447,1-1v-4C49.583,22.714,49.136,22.267,48.583,22.267z"/>
	<path d="M46.332,23.583c-0.005,0-0.01,0-0.014,0c-0.553,0-0.994,0.608-0.986,1.161l0.068,5c0.008,0.547,0.454,0.839,1,0.839
		c0.005,0,0.01,0,0.014,0c0.553,0,0.994-0.426,0.986-0.978l-0.068-4.815C47.324,24.241,46.878,23.583,46.332,23.583z"/>
	<path d="M52.655,12.169c0.256,0,0.512-0.098,0.707-0.292l0.708-0.707c0.391-0.391,0.391-1.023,0.001-1.415
		c-0.391-0.391-1.024-0.39-1.415-0.001l-0.708,0.707c-0.391,0.391-0.391,1.023-0.001,1.415
		C52.143,12.071,52.399,12.169,52.655,12.169z"/>
	<path d="M10.656,51.475l-0.707,0.707c-0.391,0.391-0.391,1.023,0,1.414c0.195,0.195,0.451,0.293,0.707,0.293
		s0.512-0.098,0.707-0.293l0.707-0.707c0.391-0.391,0.391-1.023,0-1.414S11.046,51.084,10.656,51.475z"/>
</g>
</svg>
