<?xml version="1.0" encoding="utf-8"?>
<!-- Generator: Adobe Illustrator 16.0.0, SVG Export Plug-In . SVG Version: 6.00 Build 0)  -->
<!DOCTYPE svg PUBLIC "-//W3C//DTD SVG 1.1//EN" "http://www.w3.org/Graphics/SVG/1.1/DTD/svg11.dtd">
<svg version="1.1" id="Layer_1" xmlns="http://www.w3.org/2000/svg" xmlns:xlink="http://www.w3.org/1999/xlink" x="0px" y="0px"
	 width="70px" height="70px" viewBox="0 0 70 70" enable-background="new 0 0 70 70" xml:space="preserve">
<g>
	<path d="M34.801,33.099c6.73,0,10.252-9.981,10.252-15.332c0-6.3-4.6-11.426-10.252-11.426c-5.654,0-10.255,5.126-10.255,11.426
		C24.546,23.117,28.068,33.099,34.801,33.099z M34.801,10.341c3.453,0,6.252,3.324,6.252,7.426c0,4.1-2.799,11.332-6.252,11.332
		c-3.455,0-6.254-7.232-6.254-11.332C28.547,13.665,31.346,10.341,34.801,10.341z"/>
	<path d="M45.1,40.093c-0.695-0.498-1.514-0.721-2.334-0.721c-0.745,0-1.492,0.224-2.148,0.642c-1.77,1.129-3.781,1.732-5.818,1.732
		c-2.036,0-4.048-0.592-5.818-1.721c-0.657-0.418-1.403-0.622-2.149-0.622c-0.819,0-1.638,0.252-2.333,0.751
		c-5.155,3.703-8.235,12.789-8.235,19.551c0,2.209,1.791,3.878,4,3.878h29.073c2.209,0,4-1.669,4-3.878
		C53.336,52.943,50.256,43.796,45.1,40.093z M20.263,59.583c0-6,2.613-13.46,6.568-16.3c2.343,1.49,5.063,2.35,7.968,2.35
		c2.906,0,5.627-0.859,7.967-2.35c3.955,2.84,6.57,10.3,6.57,16.3H20.263z"/>
	<path d="M30.92,47.391c-0.606-0.244-1.203-0.553-1.771-0.915c-0.345-0.22-0.789-0.208-1.121,0.031
		c-3.064,2.203-4.432,5.424-4.432,10.443c0,0.553,0.448,1,1,1c0.553,0,1-0.447,1-1c0-4.061,0.93-6.625,3.086-8.423
		c0.486,0.273,0.984,0.515,1.49,0.719c0.514,0.205,1.096-0.041,1.302-0.554S31.433,47.598,30.92,47.391z"/>
	<path d="M34.799,48.146c-0.335,0-0.666-0.018-0.994-0.048c-0.55-0.054-1.037,0.354-1.088,0.904s0.354,1.037,0.904,1.088
		c0.389,0.036,0.781,0.056,1.178,0.056c0.552,0,1-0.447,1-1S35.351,48.146,34.799,48.146z"/>
	<path d="M57.867,40.813c-0.57-0.33-1.323-0.335-1.919-0.054c-0.261,0.123-1.244,0.375-1.772,0.51
		c-0.667,0.174-1.244,0.313-1.649,0.467c-1.034,0.39-1.556,1.526-1.167,2.56c0.388,1.033,1.54,1.523,2.576,1.138
		c0.204-0.077,0.778-0.288,1.24-0.405c0.539-0.141,1.003-0.386,1.402-0.503c3.129,2.494,5.531,9.058,6.139,13.058h-5.644
		c-1.104,0-2,0.896-2,2s0.896,2,2,2h7.794c1.104,0,2-0.649,2-1.754C66.867,54.111,63.361,44.01,57.867,40.813z"/>
	<path d="M16.715,44.318c0.388-1.034-0.136-2.194-1.17-2.582c-0.127-0.048-0.212-0.127-0.438-0.305
		c-0.246-0.191-0.582-0.483-1.048-0.726c-0.607-0.316-1.334-0.359-1.927-0.014C6.639,43.888,3.133,54.111,3.133,59.83
		c0,1.104,0.896,1.753,2,1.753h3.94c1.104,0,2-0.896,2-2s-0.896-2-2-2H7.282c0.591-4,2.875-10.208,5.875-12.839
		c0.262,0.174,0.581,0.597,0.982,0.747C15.175,45.881,16.326,45.353,16.715,44.318z"/>
	<path d="M19.706,36.096c0.199,0.025,0.422,0.039,0.661,0.039c1.701,0,4.289-0.72,6.104-3.442c0.613-0.919,0.364-2.161-0.555-2.773
		c-0.918-0.612-2.16-0.363-2.773,0.555c-1.204,1.807-2.813,1.67-2.952,1.651c-0.107-0.018-0.216-0.026-0.325-0.026
		c-1.539,0-4.252-5.395-4.252-9.332c0-2.992,1.907-5.426,4.252-5.426c1.104,0,2-0.896,2-2s-0.896-2-2-2
		c-4.55,0-8.252,4.229-8.252,9.426C11.614,27.417,14.682,35.918,19.706,36.096z"/>
	<path d="M43.506,29.919c-0.92,0.612-1.168,1.854-0.555,2.773c1.814,2.724,4.402,3.442,6.104,3.442c0.24,0,0.463-0.014,0.662-0.039
		c5.023-0.178,8.092-8.679,8.092-13.329c0-5.197-3.702-9.426-8.252-9.426c-1.105,0-2,0.896-2,2s0.895,2,2,2
		c2.344,0,4.252,2.434,4.252,5.426c0,3.938-2.713,9.332-4.252,9.332c-0.109,0-0.219,0.009-0.326,0.026
		c-0.016,0.006-1.702,0.222-2.951-1.651C45.666,29.555,44.425,29.304,43.506,29.919z"/>
</g>
</svg>
