<?xml version="1.0" encoding="utf-8"?>
<!-- Generator: Adobe Illustrator 16.0.0, SVG Export Plug-In . SVG Version: 6.00 Build 0)  -->
<!DOCTYPE svg PUBLIC "-//W3C//DTD SVG 1.1//EN" "http://www.w3.org/Graphics/SVG/1.1/DTD/svg11.dtd">
<svg version="1.1" id="Layer_1" xmlns="http://www.w3.org/2000/svg" xmlns:xlink="http://www.w3.org/1999/xlink" x="0px" y="0px"
	 width="70px" height="70px" viewBox="0 0 70 70" enable-background="new 0 0 70 70" xml:space="preserve">
<g>
	<g>
		<path d="M28.376,7.062l4.247,0.177c0,0,1.716,0.081,2.114,2.334s2.98,17.876,2.98,17.876l13.809,1.539
			c4.07,0,7.056,3.285,7.056,7.336v20.179c0,4.051-2.674,6.08-6.742,6.08H33.578c-4.07,0-20.369-11.316-21.369-14.303
			c-0.361-1.08-0.592-1.718-0.739-2.489c-0.261-1.363-0.261-2.019-0.261-2.019l2.316,0.386l12.684,1.725
			c0,0,0.588-34.573,0.588-36.657S28.376,7.062,28.376,7.062 M28.376,3.062c-0.084,0-0.168,0.003-0.252,0.008
			c-2.583,0.163-5.328,2.383-5.328,6.176c0,1.436-0.301,19.665-0.511,32.119l-8.234-1.092l-2.315-0.309
			c-0.176-0.023-0.352-0.035-0.527-0.035c-0.964,0-1.902,0.35-2.636,0.992c-0.867,0.76-1.364,1.855-1.364,3.008
			c0,0.199,0.016,1.275,0.332,2.928c0.208,1.088,0.502,2.205,0.875,3.318c0.795,2.375,4.497,5.305,11.003,9.947
			c6.593,4.703,11.356,6.461,14.159,6.461h18.263c6.268,0,10.742-3.83,10.742-10.08V36.324c0-6.171-4.657-11.205-10.815-11.334
			l-10.755-1.188c-0.773-4.665-2.121-13.267-2.414-14.925c-0.656-3.711-3.461-5.521-5.826-5.633l-4.249-0.178
			C28.469,3.063,28.431,3.062,28.376,3.062L28.376,3.062z"/>
	</g>
	<g>
		<path d="M54.583,55.354c-0.553,0-1-0.447-1-1V38.706c0-2.356-1.458-4.132-3.808-4.132l-4.315-0.402
			c-0.549-0.05-0.875-0.537-0.824-1.087c0.05-0.55,0.565-1.451,1.126-1.403l4.419-0.099c0.002,0,0.004,0,0.006,0
			c3.34,0,5.396,3.687,5.396,7.123v15.648C55.583,54.907,55.134,55.354,54.583,55.354z"/>
	</g>
	<g>
		<path d="M42.298,33.558c-0.035,0-0.072-0.002-0.107-0.006l-2.176-0.232c-0.549-0.059-0.947-0.551-0.889-1.101
			c0.059-0.549,0.555-0.941,1.102-0.888l2.176,0.232c0.549,0.059,0.945,0.551,0.887,1.101
			C43.235,33.177,42.802,33.558,42.298,33.558z"/>
	</g>
</g>
</svg>
