<?xml version="1.0" encoding="utf-8"?>
<!-- Generator: Adobe Illustrator 16.0.0, SVG Export Plug-In . SVG Version: 6.00 Build 0)  -->
<!DOCTYPE svg PUBLIC "-//W3C//DTD SVG 1.1//EN" "http://www.w3.org/Graphics/SVG/1.1/DTD/svg11.dtd">
<svg version="1.1" id="Layer_1" xmlns="http://www.w3.org/2000/svg" xmlns:xlink="http://www.w3.org/1999/xlink" x="0px" y="0px"
	 width="70px" height="70px" viewBox="0 0 70 70" enable-background="new 0 0 70 70" xml:space="preserve">
<g>
	<path d="M65.635,24.988l-30-10.037c-0.412-0.139-0.857-0.139-1.27,0l-30,10.037C3.539,25.265,2.987,26.044,3,26.915
		s0.589,1.634,1.423,1.885l8.16,2.458v6.627c0,0.498,0.403,0.979,0.739,1.348c0.185,0.203,1.385,1.24,2.549,1.715
		c0.248,0.102,0.503,0.149,0.755,0.149c0.789,0,1.428-0.471,1.744-1.246c0.417-1.022-0.183-2.189-1.205-2.606
		c-0.093-0.038,0.418-0.126-0.582-0.234v-4.535l3,0.92v16.129C18.645,50.032,18,51.013,18,52.153c0,1.656,1.343,3,3,3s3-1.344,3-3
		c0-0.55-0.159-1.059-0.417-1.501V34.622l3.858,1.183l7,2.037c0.183,0.054,0.371,0.08,0.559,0.08c0.194,0,0.389-0.028,0.577-0.085
		l16.006-4.822v4.465c-1,1.22-6.533,4.442-17.287,4.442c-2.417,0-4.24-0.116-6.02-0.356c-1.096-0.138-2.102,0.621-2.249,1.716
		c-0.147,1.095,0.621,2.102,1.715,2.249c1.958,0.264,4.173,0.392,6.77,0.392c15.159,0,20.533-5.938,20.763-6.19
		c0.336-0.368,0.307-0.849,0.307-1.348v-6.349c0-0.075-0.014-0.146-0.022-0.219L65.577,28.8c0.834-0.251,1.409-1.014,1.423-1.885
		C67.013,26.044,66.461,25.265,65.635,24.988z M34.99,33.836l-6.404-1.863l-2.53-0.776l9.887-3.468
		c1.041-0.37,1.774-1.515,1.403-2.555c-0.371-1.041-1.571-1.584-2.61-1.213L21.129,28.77c-0.352,0.125-0.689,0.345-0.962,0.621
		l-4.699-1.441l-3.865-1.164L35,18.957l23.397,7.828L34.99,33.836z"/>
	<path d="M40.61,30.482c0.096,0,0.193-0.014,0.289-0.043L45.677,29c0.529-0.159,0.829-0.717,0.669-1.245
		c-0.159-0.528-0.717-0.834-1.245-0.669l-4.778,1.439c-0.528,0.159-0.828,0.717-0.669,1.245
		C39.784,30.203,40.181,30.482,40.61,30.482z"/>
	<path d="M48.887,28.074c0.095,0,0.192-0.014,0.288-0.043l2.227-0.671c0.529-0.159,0.829-0.717,0.669-1.245
		c-0.159-0.528-0.716-0.832-1.245-0.669l-2.227,0.671c-0.529,0.159-0.829,0.717-0.669,1.245
		C48.06,27.795,48.457,28.074,48.887,28.074z"/>
</g>
</svg>
