<?xml version="1.0" encoding="utf-8"?>
<!-- Generator: Adobe Illustrator 16.0.0, SVG Export Plug-In . SVG Version: 6.00 Build 0)  -->
<!DOCTYPE svg PUBLIC "-//W3C//DTD SVG 1.1//EN" "http://www.w3.org/Graphics/SVG/1.1/DTD/svg11.dtd">
<svg version="1.1" id="Layer_1" xmlns="http://www.w3.org/2000/svg" xmlns:xlink="http://www.w3.org/1999/xlink" x="0px" y="0px"
	 width="70px" height="70px" viewBox="0 0 70 70" enable-background="new 0 0 70 70" xml:space="preserve">
<g>
	<g>
		<path d="M62.583,23.583v24h-56v-24H62.583 M62.983,19.583h-56c-2.209,0-4.4,2.467-4.4,4.676v24c0,2.209,2.191,3.324,4.4,3.324h56
			c2.209,0,3.6-1.115,3.6-3.324v-24C66.583,22.05,65.192,19.583,62.983,19.583L62.983,19.583z"/>
	</g>
	<g>
		<path d="M57.583,17.417c-1.104,0-2-0.896-2-2v-4.834h-42v4.834c0,1.104-0.896,2-2,2s-2-0.896-2-2v-6
			c0-1.104,1.313-2.834,2.417-2.834h46c1.104,0,1.583,1.729,1.583,2.834v6C59.583,16.521,58.688,17.417,57.583,17.417z"/>
	</g>
	<g>
		<path d="M58,62.583H12c-1.104,0-2.417-0.062-2.417-1.166v-6c0-1.104,0.896-2,2-2s2,0.896,2,2v3.166h42v-3.166c0-1.104,0.896-2,2-2
			s2,0.896,2,2v6C59.583,62.521,59.104,62.583,58,62.583z"/>
	</g>
	<g>
		<path d="M33.749,43.194h-3.643v-5.728h-4.695v5.728h-3.644V29.323h3.644v4.947h4.695v-4.947h3.643V43.194z"/>
		<path d="M36.271,29.323h5.943c4.267,0,6.819,2.494,6.819,6.857c0,4.656-2.396,7.014-7.015,7.014h-5.748V29.323z M41.863,40.175
			c2.436,0,3.526-1.461,3.526-3.896c0-2.514-1.305-3.955-3.78-3.955h-1.734v7.852H41.863z"/>
	</g>
	<g>
		<path d="M9.583,37.417c-0.552,0-1-0.447-1-1v-10c0-0.553,0.865-1.834,1.417-1.834h8c0.552,0,1,0.447,1,1s-0.448,1-1,1h-7.417
			v9.834C10.583,36.97,10.135,37.417,9.583,37.417z"/>
	</g>
	<g>
		<path d="M60,44.583h-4c-0.553,0-1-0.447-1-1s0.447-1,1-1h2.583v-3.166c0-0.553,0.447-1,1-1s1,0.447,1,1v4
			C60.583,43.97,60.553,44.583,60,44.583z"/>
	</g>
	<g>
		<path d="M9.583,43.417c-0.552,0-1-0.447-1-1v-2c0-0.553,0.448-1,1-1s1,0.447,1,1v2C10.583,42.97,10.135,43.417,9.583,43.417z"/>
	</g>
</g>
</svg>
