<?xml version="1.0" encoding="utf-8"?>
<!-- Generator: Adobe Illustrator 16.0.0, SVG Export Plug-In . SVG Version: 6.00 Build 0)  -->
<!DOCTYPE svg PUBLIC "-//W3C//DTD SVG 1.1//EN" "http://www.w3.org/Graphics/SVG/1.1/DTD/svg11.dtd">
<svg version="1.1" id="Layer_1" xmlns="http://www.w3.org/2000/svg" xmlns:xlink="http://www.w3.org/1999/xlink" x="0px" y="0px"
	 width="70px" height="70px" viewBox="0 0 70 70" enable-background="new 0 0 70 70" xml:space="preserve">
<g>
	<path d="M64.782,29.797c0.631-2.701,0.175-6.725-5.581-10.542L37.569,4.974c-0.005-0.004-0.011-0.009-0.016-0.013
		c-0.702-0.548-1.56-0.85-2.432-0.861c-0.055-0.002-0.108-0.003-0.163-0.003c-0.883,0-1.751,0.293-2.462,0.848
		c-0.042,0.032-0.084,0.066-0.124,0.101l-12.79,8.444V4.495c0-1.104-0.21-1.912-1.314-1.912H14.87c-1.104,0-1.287,0.807-1.287,1.912
		v12.956l-2.727,1.8c-0.084,0.055-0.165,0.113-0.244,0.175l-0.119,0.092c-3.174,2.457-6.456,4.997-5.225,10.279
		C6,32.93,8.332,34.903,11.583,35.253v27.33H7.87c-1.104,0-2,0.896-2,2s0.896,2,2,2h6h16.876h8.674h17.45h5c1.104,0,2-0.896,2-2
		s-0.896-2-2-2h-3.287V35.246C61.776,34.862,64.061,32.894,64.782,29.797z M9.164,28.889c-0.657-2.819,0.673-3.95,3.708-6.3
		l21.71-14.458V8.097l0.5,0.017l0.5-0.017v0.034l21.652,14.458c2.035,1.35,4.433,3.48,3.774,6.3
		c-0.431,1.85-1.851,2.438-3.526,2.438c-0.878,0-1.876-0.161-2.842-0.388l-19.601-12l-19.592,12
		c-0.967,0.227-1.937,0.388-2.815,0.388C10.957,31.326,9.596,30.738,9.164,28.889z M27.583,61.42V49.746
		c0-1.747,1.416-3.163,3.163-3.163h8.674c1.747,0,3.163,1.416,3.163,3.163V61.42c0,0.412-0.084,0.803-0.228,1.163H27.811
		C27.667,62.223,27.583,61.832,27.583,61.42z M44.44,62.583c0.086-0.375,0.143-0.762,0.143-1.163V49.746
		c0-2.852-2.312-5.163-5.163-5.163h-8.674c-2.852,0-5.163,2.312-5.163,5.163V61.42c0,0.401,0.056,0.788,0.143,1.163H15.583V34.996
		c0.252-0.05,0.504-0.1,0.77-0.163c0.416-0.098,0.813-0.261,1.178-0.483l17.495-10.72l17.496,10.72
		c0.364,0.223,0.762,0.386,1.177,0.483c0.306,0.071,0.598,0.131,0.885,0.187v27.563H44.44z"/>
	<path d="M31.583,54.417c-0.553,0-1,0.447-1,1v1c0,0.553,0.447,1,1,1s1-0.447,1-1v-1C32.583,54.864,32.136,54.417,31.583,54.417z"/>
	<path d="M30.87,35.583h9c0.553,0,1-0.447,1-1s-0.447-1-1-1h-9c-0.553,0-1,0.447-1,1S30.317,35.583,30.87,35.583z"/>
	<path d="M42.87,37.583h-15c-0.553,0-1,0.447-1,1s0.447,1,1,1h15c0.553,0,1-0.447,1-1S43.423,37.583,42.87,37.583z"/>
</g>
</svg>
