<?xml version="1.0" encoding="utf-8"?>
<!-- Generator: Adobe Illustrator 16.0.0, SVG Export Plug-In . SVG Version: 6.00 Build 0)  -->
<!DOCTYPE svg PUBLIC "-//W3C//DTD SVG 1.1//EN" "http://www.w3.org/Graphics/SVG/1.1/DTD/svg11.dtd">
<svg version="1.1" id="Layer_1" xmlns="http://www.w3.org/2000/svg" xmlns:xlink="http://www.w3.org/1999/xlink" x="0px" y="0px"
	 width="70px" height="70px" viewBox="0 0 70 70" enable-background="new 0 0 70 70" xml:space="preserve">
<g>
	<path d="M62.802,26.583H36.329c-0.323-1-0.667-3.589,2.021-6.873c1.476-1.804,2.105-3.795,1.823-5.903
		c-0.584-4.347-4.74-7.378-5.212-7.714c-0.901-0.641-2.15-0.41-2.789,0.49c-0.641,0.9-0.43,2.158,0.471,2.798
		c0.829,0.59,3.264,2.784,3.565,5.03c0.136,1.01-0.177,1.813-0.954,2.764c-3.167,3.871-3.376,7.409-3.005,9.409H6.802
		c-2.209,0-4.219,2.136-4.219,4.345v29.834c0,2.209,2.01,3.821,4.219,3.821h56c2.209,0,3.781-1.612,3.781-3.821V30.928
		C66.583,28.719,65.011,26.583,62.802,26.583z M62.583,60.583h-56v-30h56V60.583z"/>
	<path d="M26.583,35.583c0-0.552-0.448-1-1-1h-6c-0.552,0-1,0.448-1,1v4c0,0.553,0.448,1,1,1h6c0.552,0,1-0.447,1-1V35.583z
		 M20.583,36.583h4v2h-4V36.583z"/>
	<path d="M36.583,35.583c0-0.552-0.448-1-1-1h-6c-0.552,0-1,0.448-1,1v4c0,0.553,0.448,1,1,1h6c0.552,0,1-0.447,1-1V35.583z
		 M30.583,36.583h4v2h-4V36.583z"/>
	<path d="M47.583,35.583c0-0.552-0.447-1-1-1h-6c-0.553,0-1,0.448-1,1v4c0,0.553,0.447,1,1,1h6c0.553,0,1-0.447,1-1V35.583z
		 M41.583,36.583h4v2h-4V36.583z"/>
	<path d="M58.583,35.583c0-0.552-0.447-1-1-1h-6c-0.553,0-1,0.448-1,1v4c0,0.553,0.447,1,1,1h6c0.553,0,1-0.447,1-1V35.583z
		 M52.583,36.583h4v2h-4V36.583z"/>
	<path d="M16.583,35.583c0-0.552-0.448-1-1-1h-6c-0.552,0-1,0.448-1,1v4c0,0.553,0.448,1,1,1h6c0.552,0,1-0.447,1-1V35.583z
		 M10.583,36.583h4v2h-4V36.583z"/>
	<path d="M26.583,43.583c0-0.553-0.448-1-1-1h-6c-0.552,0-1,0.447-1,1v4c0,0.553,0.448,1,1,1h6c0.552,0,1-0.447,1-1V43.583z
		 M20.583,44.583h4v2h-4V44.583z"/>
	<path d="M36.583,43.583c0-0.553-0.448-1-1-1h-6c-0.552,0-1,0.447-1,1v4c0,0.553,0.448,1,1,1h6c0.552,0,1-0.447,1-1V43.583z
		 M30.583,44.583h4v2h-4V44.583z"/>
	<path d="M47.583,43.583c0-0.553-0.447-1-1-1h-6c-0.553,0-1,0.447-1,1v4c0,0.553,0.447,1,1,1h6c0.553,0,1-0.447,1-1V43.583z
		 M41.583,44.583h4v2h-4V44.583z"/>
	<path d="M16.583,43.583c0-0.553-0.448-1-1-1h-6c-0.552,0-1,0.447-1,1v4c0,0.553,0.448,1,1,1h6c0.552,0,1-0.447,1-1V43.583z
		 M10.583,44.583h4v2h-4V44.583z"/>
	<path d="M26.583,51.583c0-0.553-0.448-1-1-1h-6c-0.552,0-1,0.447-1,1v4c0,0.553,0.448,1,1,1h6c0.552,0,1-0.447,1-1V51.583z
		 M20.583,52.583h4v2h-4V52.583z"/>
	<path d="M36.583,51.583c0-0.553-0.448-1-1-1h-6c-0.552,0-1,0.447-1,1v4c0,0.553,0.448,1,1,1h6c0.552,0,1-0.447,1-1V51.583z
		 M30.583,52.583h4v2h-4V52.583z"/>
	<path d="M16.583,51.583c0-0.553-0.448-1-1-1h-6c-0.552,0-1,0.447-1,1v4c0,0.553,0.448,1,1,1h6c0.552,0,1-0.447,1-1V51.583z
		 M10.583,52.583h4v2h-4V52.583z"/>
	<path d="M41,56.583h17c0.553,0,0.583-0.144,0.583-0.696V43.886c0-0.553-0.03-1.303-0.583-1.303h-6c-0.553,0-1.417,0.75-1.417,1.303
		v6.697H41c-0.553,0-1.417,0.751-1.417,1.304v4C39.583,56.439,40.447,56.583,41,56.583z M41.583,52.583H52
		c0.553,0,0.583-0.144,0.583-0.696v-7.304h4v10h-15V52.583z"/>
</g>
</svg>
