<?xml version="1.0" encoding="utf-8"?>
<!-- Generator: Adobe Illustrator 16.0.0, SVG Export Plug-In . SVG Version: 6.00 Build 0)  -->
<!DOCTYPE svg PUBLIC "-//W3C//DTD SVG 1.1//EN" "http://www.w3.org/Graphics/SVG/1.1/DTD/svg11.dtd">
<svg version="1.1" id="Layer_1" xmlns="http://www.w3.org/2000/svg" xmlns:xlink="http://www.w3.org/1999/xlink" x="0px" y="0px"
	 width="70px" height="70px" viewBox="0 0 70 70" enable-background="new 0 0 70 70" xml:space="preserve">
<g>
	<path d="M55.408,21.583h-7.021l1.369-10.068c0.039-0.221,0.059-0.575,0.059-0.806c0-2.209-1.789-4.126-3.998-4.126h-0.005
		c-0.018,0-0.035,0-0.052,0c-0.453,0-2.856,0.34-6.195,1.458c-2.373,0.794-5.753,4.622-10.396,11.128
		c-2.819,3.951-4.735,7.091-5.824,9.706c-1.14-0.786-2.463-1.293-3.692-1.293h-8.396c-4.143,0-7.674,3.88-7.674,8.032v17.941
		c0,4.151,3.531,7.026,7.674,7.026h8.396c1.727,0,3.644-0.627,4.966-2.208c1.98,2.569,5.049,4.208,8.618,4.208h20.18
		c6.17,0,11.205-4.719,11.332-10.877l1.971-17.943c0.016-0.144,0.023-0.477,0.023-0.622C66.744,26.872,61.658,21.583,55.408,21.583z
		 M13.583,56.583v-4.997c0-0.813,0.916-1.5,2-1.5s2,0.688,2,1.5v4.997H13.583z M22.583,53.557c0,1.949-0.989,3.026-2.93,3.026h-0.07
		v-4.997c0-1.93-1.794-3.5-4-3.5s-4,1.57-4,3.5V57c-2-0.001-4-1.494-4-3.443V35.615c0-1.949,1.733-4.032,3.674-4.032h7.999h0.397
		c1.94,0,2.93,2.083,2.93,4.032v16.103V53.557z M60.753,51.444c0,4.07-3.284,7.139-7.335,7.139h-20.18
		c-4.051,0-6.655-2.796-6.655-6.865V35.615v-2.16c0-4.07,11.605-20.391,14.592-21.391c2.986-1,4.719-1.23,4.719-1.23L43.82,25.583
		h11.588c4.052,0,7.336,3.446,7.336,7.517L60.753,51.444z"/>
	<path d="M56.578,45.046c-0.549-0.038-1.032,0.368-1.076,0.919l-0.366,4.478c0,2.439-1.802,4.141-4.102,4.141H35.256
		c-0.552,0-1,0.447-1,1s0.448,1,1,1h15.778c3.364,0,6.102-2.641,6.099-6.063l0.363-4.504C57.54,45.467,57.129,45.09,56.578,45.046z"
		/>
	<path d="M57.521,39.004c-0.548-0.061-1.041,0.339-1.1,0.888l-0.232,2.176c-0.06,0.55,0.338,1.042,0.887,1.101
		c0.037,0.004,0.072,0.006,0.108,0.006c0.505,0,0.938-0.381,0.993-0.894l0.232-2.176C58.469,39.555,58.07,39.063,57.521,39.004z"/>
	<path d="M15.583,52c-0.552,0-1,0.447-1,1v2c0,0.553,0.448,1,1,1s1-0.447,1-1v-2C16.583,52.447,16.135,52,15.583,52z"/>
</g>
</svg>
