<?xml version="1.0" encoding="utf-8"?>
<!-- Generator: Adobe Illustrator 16.0.0, SVG Export Plug-In . SVG Version: 6.00 Build 0)  -->
<!DOCTYPE svg PUBLIC "-//W3C//DTD SVG 1.1//EN" "http://www.w3.org/Graphics/SVG/1.1/DTD/svg11.dtd">
<svg version="1.1" id="Layer_1" xmlns="http://www.w3.org/2000/svg" xmlns:xlink="http://www.w3.org/1999/xlink" x="0px" y="0px"
	 width="70px" height="70px" viewBox="0 0 70 70" enable-background="new 0 0 70 70" xml:space="preserve">
<g>
	<g>
		<path d="M58.792,6.567c2.189,0,4.085,1.911,4.085,4.12c0,2.208-1.65,3.896-3.84,3.896H28.963c-2.189,0-3.963-1.792-3.963-4
			c0-2.209,1.773-4,3.963-4h29.62 M59.037,2.583H28.963c-4.391,0-7.963,3.589-7.963,8s3.572,8,7.963,8h30.074
			c4.391,0,7.963-3.589,7.963-8S63.428,2.583,59.037,2.583L59.037,2.583z"/>
		<path d="M10.792,6.587c2.189,0,4.085,1.892,4.085,4.101c0,2.208-1.65,3.896-3.84,3.896h-0.074c-2.189,0-3.963-1.792-3.963-4
			c0-2.209,1.773-4,3.963-4h-0.38 M11.037,2.583h-0.074c-4.391,0-7.963,3.589-7.963,8s3.572,8,7.963,8h0.074
			c4.391,0,7.963-3.589,7.963-8S15.428,2.583,11.037,2.583L11.037,2.583z"/>
		<g>
			<path d="M32.073,10.583h-3c-0.552,0-1-0.447-1-1s0.448-1,1-1h3c0.552,0,1,0.447,1,1S32.625,10.583,32.073,10.583z"/>
		</g>
		<g>
			<path d="M47.073,10.583h-10c-0.552,0-1-0.447-1-1s0.448-1,1-1h10c0.552,0,1,0.447,1,1S47.625,10.583,47.073,10.583z"/>
		</g>
	</g>
	<g>
		<path d="M58.792,30.599c2.189,0,4.085,1.88,4.085,4.089c0,2.208-1.65,3.896-3.84,3.896H28.963c-2.189,0-3.963-1.792-3.963-4
			c0-2.209,1.773-4,3.963-4h29.62 M59.037,26.583H28.963c-4.391,0-7.963,3.589-7.963,8s3.572,8,7.963,8h30.074
			c4.391,0,7.963-3.589,7.963-8S63.428,26.583,59.037,26.583L59.037,26.583z"/>
		<path d="M10.792,30.587c2.189,0,4.085,1.892,4.085,4.101c0,2.208-1.65,3.896-3.84,3.896h-0.074c-2.189,0-3.963-1.792-3.963-4
			c0-2.209,1.773-4,3.963-4h-0.38 M11.037,26.583h-0.074c-4.391,0-7.963,3.589-7.963,8s3.572,8,7.963,8h0.074
			c4.391,0,7.963-3.589,7.963-8S15.428,26.583,11.037,26.583L11.037,26.583z"/>
	</g>
	<g>
		<path d="M58.792,54.604c2.189,0,4.085,1.875,4.085,4.084c0,2.208-1.65,3.896-3.84,3.896H28.963c-2.189,0-3.963-1.792-3.963-4
			c0-2.209,1.773-4,3.963-4h29.62 M59.037,50.583H28.963c-4.391,0-7.963,3.589-7.963,8s3.572,8,7.963,8h30.074
			c4.391,0,7.963-3.589,7.963-8S63.428,50.583,59.037,50.583L59.037,50.583z"/>
		<path d="M10.792,54.583c2.189,0,4.085,1.896,4.085,4.104c0,2.208-1.65,3.896-3.84,3.896h-0.074c-2.189,0-3.963-1.792-3.963-4
			c0-2.209,1.773-4,3.963-4h-0.38 M11.037,50.583h-0.074c-4.391,0-7.963,3.589-7.963,8s3.572,8,7.963,8h0.074
			c4.391,0,7.963-3.589,7.963-8S15.428,50.583,11.037,50.583L11.037,50.583z"/>
	</g>
</g>
</svg>
