<?xml version="1.0" encoding="utf-8"?>
<!-- Generator: Adobe Illustrator 16.0.0, SVG Export Plug-In . SVG Version: 6.00 Build 0)  -->
<!DOCTYPE svg PUBLIC "-//W3C//DTD SVG 1.1//EN" "http://www.w3.org/Graphics/SVG/1.1/DTD/svg11.dtd">
<svg version="1.1" id="Layer_1" xmlns="http://www.w3.org/2000/svg" xmlns:xlink="http://www.w3.org/1999/xlink" x="0px" y="0px"
	 width="70px" height="70px" viewBox="0 0 70 70" enable-background="new 0 0 70 70" xml:space="preserve">
<g>
	<path d="M51.196,28.583h-1.034c0,0-0.046-12.312-0.055-12.383C49.242,8.778,42.489,2.964,34.997,2.964
		c-8.27,0-15.414,6.452-15.414,14.383v11.236h-0.178c-4.072,0-4.822,2.172-4.822,4.381v30c0,2.209,0.613,3.619,2.822,3.619h34
		c2.209,0,3.179-1.41,3.179-3.619v-30C54.583,30.755,53.405,28.583,51.196,28.583z M23.583,17.347
		c0-5.726,5.142-10.383,11.206-10.383c5.461,0,10.444,4.207,11.126,9.596l-0.332,10.338v1.685h-22V17.347z M18.583,62.583v-3h3.834
		c0.552,0,1-0.447,1-1s-0.448-1-1-1h-3.834v-4h3.834c0.552,0,1-0.447,1-1s-0.448-1-1-1h-3.834v-3h3.834c0.552,0,1-0.447,1-1
		s-0.448-1-1-1h-3.834v-4h3.834c0.552,0,1-0.447,1-1s-0.448-1-1-1h-3.834v-4h3.834c0.552,0,1-0.447,1-1s-0.448-1-1-1h-3.834v-2h32v2
		h-2.166c-0.552,0-1,0.447-1,1s0.448,1,1,1h2.166v4h-2.166c-0.552,0-1,0.447-1,1s0.448,1,1,1h2.166v4h-2.166c-0.552,0-1,0.447-1,1
		s0.448,1,1,1h2.166v3h-2.166c-0.552,0-1,0.447-1,1s0.448,1,1,1h2.166v4h-2.166c-0.552,0-1,0.447-1,1s0.448,1,1,1h2.166v3H18.583z"
		/>
	<path d="M35.404,40.964c-3.309,0-6,2.691-6,6c0,1.928,0.945,3.721,2.458,4.834l-0.319,2.951c-0.061,0.564,0.121,0.939,0.5,1.361
		c0.38,0.422,0.921,0.473,1.488,0.473h3.746c0.568,0,1.109-0.051,1.488-0.473c0.38-0.422,0.562-0.893,0.5-1.457l-0.318-2.902
		c1.514-1.113,2.457-2.884,2.457-4.812C41.404,43.631,38.713,40.964,35.404,40.964z M36.817,50.513l0.46,4.07h-3.746l0.461-4.07
		c-1.511-0.572-2.588-1.934-2.588-3.645c0-2.209,1.791-3.904,4-3.904s4,1.791,4,4C39.404,48.675,38.328,49.94,36.817,50.513z"/>
</g>
</svg>
