<?xml version="1.0" encoding="utf-8"?>
<!-- Generator: Adobe Illustrator 16.0.0, SVG Export Plug-In . SVG Version: 6.00 Build 0)  -->
<!DOCTYPE svg PUBLIC "-//W3C//DTD SVG 1.1//EN" "http://www.w3.org/Graphics/SVG/1.1/DTD/svg11.dtd">
<svg version="1.1" id="Layer_1" xmlns="http://www.w3.org/2000/svg" xmlns:xlink="http://www.w3.org/1999/xlink" x="0px" y="0px"
	 width="70px" height="70px" viewBox="0 0 70 70" enable-background="new 0 0 70 70" xml:space="preserve">
<g>
	<path d="M53.52,24.566l-8.484-8.484c-0.781-0.781-2.047-0.781-2.828,0L3.316,54.973c-0.781,0.781-0.781,2.047,0,2.828l8.484,8.484
		c0.391,0.391,0.902,0.586,1.414,0.586s1.023-0.195,1.414-0.586L53.52,27.395C54.301,26.613,54.301,25.348,53.52,24.566z
		 M13.215,62.043l-5.656-5.656l30.406-30.406l5.656,5.656L13.215,62.043z M45.034,30.223l-5.656-5.656l4.243-4.243l5.656,5.656
		L45.034,30.223z"/>
	<path d="M51.828,16.452l2.088,0.995l1.593,1.679c0.755,0.796,1.805,1.247,2.901,1.247h0.001c1.097,0,2.146-0.451,2.901-1.247
		l1.592-1.679l2.087-0.995c0.99-0.472,1.743-1.331,2.083-2.374c0.339-1.044,0.234-2.182-0.29-3.146L65.681,8.9l-0.302-2.293
		c-0.144-1.088-0.727-2.069-1.614-2.715c-0.688-0.5-1.513-0.764-2.352-0.764c-0.243,0-0.486,0.022-0.729,0.067L58.41,3.617
		l-2.275-0.421c-0.242-0.045-0.485-0.067-0.729-0.067c-0.839,0-1.663,0.264-2.352,0.764c-0.888,0.646-1.472,1.627-1.614,2.715
		L51.139,8.9l-1.104,2.032c-0.524,0.964-0.629,2.102-0.29,3.146C50.085,15.121,50.838,15.98,51.828,16.452z M55.008,10.158
		l0.398-3.029l3.004,0.557l3.003-0.557l0.398,3.029l1.458,2.684l-2.757,1.314l-2.103,2.217l-2.104-2.217l-2.757-1.314L55.008,10.158
		z"/>
	<path d="M26.717,15.755l1.269,0.604l0.967,1.02c0.755,0.795,1.804,1.246,2.9,1.246c0.001,0,0.001,0,0.001,0
		c1.097,0,2.146-0.45,2.9-1.245l0.968-1.02l1.27-0.605c0.99-0.472,1.744-1.331,2.083-2.375s0.233-2.181-0.29-3.146l-0.671-1.233
		l-0.183-1.393c-0.143-1.088-0.727-2.069-1.614-2.715c-0.688-0.501-1.513-0.765-2.352-0.765c-0.243,0-0.487,0.022-0.729,0.067
		l-1.382,0.256l-1.381-0.256c-0.242-0.045-0.486-0.067-0.729-0.067c-0.838,0-1.662,0.264-2.351,0.764
		c-0.888,0.645-1.472,1.626-1.615,2.714l-0.184,1.395l-0.671,1.235c-0.523,0.964-0.628,2.101-0.288,3.145
		C24.974,14.425,25.727,15.283,26.717,15.755z M29.463,10.258l0.28-2.129l2.11,0.392l2.111-0.392l0.279,2.129l1.025,1.887
		l-1.938,0.924l-1.479,1.557l-1.478-1.557l-1.938-0.924L29.463,10.258z"/>
	<path d="M66.113,34.001l-0.183-1.393c-0.143-1.088-0.727-2.069-1.614-2.715c-0.688-0.501-1.513-0.765-2.352-0.765
		c-0.243,0-0.487,0.022-0.729,0.067l-1.382,0.256l-1.381-0.256c-0.242-0.045-0.486-0.067-0.729-0.067
		c-0.838,0-1.662,0.264-2.351,0.764c-0.888,0.645-1.472,1.626-1.615,2.714l-0.184,1.395l-0.671,1.235
		c-0.523,0.964-0.628,2.101-0.288,3.145c0.339,1.044,1.092,1.902,2.082,2.374l1.269,0.604l0.967,1.02
		c0.755,0.795,1.804,1.246,2.9,1.246c0.001,0,0.001,0,0.001,0c1.097,0,2.146-0.45,2.9-1.245l0.968-1.02l1.27-0.605
		c0.99-0.472,1.744-1.331,2.083-2.375s0.233-2.181-0.29-3.146L66.113,34.001z M61.332,38.068l-1.479,1.557l-1.478-1.557
		l-1.938-0.924l1.024-1.887l0.28-2.129l2.11,0.392l2.111-0.392l0.279,2.129l1.025,1.887L61.332,38.068z"/>
	<path d="M32.125,34.977c-0.391-0.391-1.023-0.391-1.414,0l-2.25,2.25c-0.391,0.391-0.391,1.023,0,1.414
		c0.195,0.195,0.451,0.293,0.707,0.293s0.512-0.098,0.707-0.293l2.25-2.25C32.516,36,32.516,35.367,32.125,34.977z"/>
	<path d="M25.711,39.977l-15,15c-0.391,0.391-0.391,1.023,0,1.414c0.195,0.195,0.451,0.293,0.707,0.293s0.512-0.098,0.707-0.293
		l15-15c0.391-0.391,0.391-1.023,0-1.414S26.102,39.586,25.711,39.977z"/>
</g>
</svg>
