<?xml version="1.0" encoding="utf-8"?>
<!-- Generator: Adobe Illustrator 16.0.0, SVG Export Plug-In . SVG Version: 6.00 Build 0)  -->
<!DOCTYPE svg PUBLIC "-//W3C//DTD SVG 1.1//EN" "http://www.w3.org/Graphics/SVG/1.1/DTD/svg11.dtd">
<svg version="1.1" id="Layer_1" xmlns="http://www.w3.org/2000/svg" xmlns:xlink="http://www.w3.org/1999/xlink" x="0px" y="0px"
	 width="70px" height="70px" viewBox="0 0 70 70" enable-background="new 0 0 70 70" xml:space="preserve">
<g>
	<path d="M46.857,8.583H24.099c-11.197,0-21.516,9.339-21.516,20.535v0.8c0,9.596,7.292,17.658,16.251,19.77l-0.966,7.311
		c-0.28,1.615,0.606,3.238,2.004,4.095c0.643,0.394,1.442,0.589,2.164,0.589c0.847,0,1.729-0.591,2.438-1.122l14.247-10.977h8.137
		c11.197,0,19.726-8.467,19.726-19.665v-0.8C66.583,17.922,58.055,8.583,46.857,8.583z M62.583,29.918
		c0,9.007-6.721,15.665-15.726,15.665h-9.47L22.112,57.36l1.382-11.295c-9.006,0-16.912-7.141-16.912-16.147v-0.8
		c0-9.005,8.51-16.535,17.516-16.535H46l0.231,0.076c9.006,0,16.352,7.454,16.352,16.459V29.918z"/>
	<path d="M19.441,18.422c0.573-0.098,1.164-0.147,1.756-0.147c0.553,0,1-0.447,1-1s-0.447-1-1-1c-0.704,0-1.407,0.059-2.092,0.175
		c-0.544,0.093-0.91,0.609-0.818,1.154c0.083,0.487,0.507,0.832,0.985,0.832C19.328,18.436,19.385,18.431,19.441,18.422z"/>
	<path d="M16.284,17.092c-4.357,1.95-7.701,6.568-7.701,11.491v0.152c0,0.553,0.447,1,1,1s1-0.447,1-1v-0.152
		c0-4.147,2.816-8.032,6.464-9.665c0.505-0.226,0.887-0.817,0.661-1.321C17.482,17.093,16.786,16.867,16.284,17.092z"/>
	<path d="M23.361,26.247c-2.481,0-4.5,2.019-4.5,4.5s2.019,4.5,4.5,4.5s4.5-2.019,4.5-4.5S25.843,26.247,23.361,26.247z
		 M23.361,33.247c-1.379,0-2.5-1.121-2.5-2.5s1.121-2.5,2.5-2.5s2.5,1.121,2.5,2.5S24.74,33.247,23.361,33.247z"/>
	<path d="M35.361,26.247c-2.481,0-4.5,2.019-4.5,4.5s2.019,4.5,4.5,4.5s4.5-2.019,4.5-4.5S37.843,26.247,35.361,26.247z
		 M35.361,33.247c-1.379,0-2.5-1.121-2.5-2.5s1.121-2.5,2.5-2.5s2.5,1.121,2.5,2.5S36.74,33.247,35.361,33.247z"/>
	<path d="M47.361,26.247c-2.481,0-4.5,2.019-4.5,4.5s2.019,4.5,4.5,4.5s4.5-2.019,4.5-4.5S49.843,26.247,47.361,26.247z
		 M47.361,33.247c-1.379,0-2.5-1.121-2.5-2.5s1.121-2.5,2.5-2.5s2.5,1.121,2.5,2.5S48.74,33.247,47.361,33.247z"/>
</g>
</svg>
