<?xml version="1.0" encoding="utf-8"?>
<!-- Generator: Adobe Illustrator 16.0.0, SVG Export Plug-In . SVG Version: 6.00 Build 0)  -->
<!DOCTYPE svg PUBLIC "-//W3C//DTD SVG 1.1//EN" "http://www.w3.org/Graphics/SVG/1.1/DTD/svg11.dtd">
<svg version="1.1" id="Layer_1" xmlns="http://www.w3.org/2000/svg" xmlns:xlink="http://www.w3.org/1999/xlink" x="0px" y="0px"
	 width="70px" height="70px" viewBox="0 0 70 70" enable-background="new 0 0 70 70" xml:space="preserve">
<g>
	<path d="M34.583,49.217c5.514,0,10-4.461,10-9.944v-0.115c0-0.182,0-25.997,0-25.997c0-5.482-4.486-9.943-10-9.943
		s-10,4.461-10,9.943v26.112C24.583,44.756,29.069,49.217,34.583,49.217z M34.583,7.217c3.313,0,6,2.661,6,5.943v1.423h-1.01
		c-0.553,0-1,0.447-1,1s0.447,1,1,1h1.01v4h-1.01c-0.553,0-1,0.447-1,1s0.447,1,1,1h1.01v4h-1.01c-0.553,0-1,0.447-1,1s0.447,1,1,1
		h1.01v3h-1.01c-0.553,0-1,0.447-1,1s0.447,1,1,1h1.01v4h-1.01c-0.553,0-1,0.447-1,1s0.447,1,1,1h0.578
		c-0.051,3-2.715,5.851-5.995,5.851s-5.944-2.851-5.995-5.851h1.412c0.553,0,1-0.447,1-1s-0.447-1-1-1h-0.99v-4h0.99
		c0.553,0,1-0.447,1-1s-0.447-1-1-1h-0.99v-3h0.99c0.553,0,1-0.447,1-1s-0.447-1-1-1h-0.99v-4h0.99c0.553,0,1-0.447,1-1
		s-0.447-1-1-1h-0.99v-4h0.99c0.553,0,1-0.447,1-1s-0.447-1-1-1h-0.99V13.16C28.583,9.878,31.271,7.217,34.583,7.217z"/>
	<path d="M54.714,37.758c0-1.104-1.003-2-2.107-2s-2.053,0.896-2.053,2c0,8.06-7.125,14.869-15.527,14.869
		c-8.402,0-15.514-6.81-15.514-14.869c0-1.104-0.902-2-2.006-2s-1.79,0.896-1.79,2c0,9.294,6.866,17.254,16.866,18.635v6.19h-6.01
		c-1.104,0-2,0.896-2,2s0.896,2,2,2h16c1.104,0,2-0.896,2-2s-0.896-2-2-2h-5.99v-6.015C46.583,55.964,54.714,47.609,54.714,37.758z"
		/>
</g>
</svg>
