<?xml version="1.0" encoding="utf-8"?>
<!-- Generator: Adobe Illustrator 16.0.0, SVG Export Plug-In . SVG Version: 6.00 Build 0)  -->
<!DOCTYPE svg PUBLIC "-//W3C//DTD SVG 1.1//EN" "http://www.w3.org/Graphics/SVG/1.1/DTD/svg11.dtd">
<svg version="1.1" id="Layer_1" xmlns="http://www.w3.org/2000/svg" xmlns:xlink="http://www.w3.org/1999/xlink" x="0px" y="0px"
	 width="70px" height="70px" viewBox="0 0 70 70" enable-background="new 0 0 70 70" xml:space="preserve">
<g>
	<path d="M66.583,6.773c0-2.084-1.183-4.19-3.156-4.19H6.573c-1.974,0-3.99,2.106-3.99,4.19v56.453c0,2.084,2.017,3.356,3.99,3.356
		h56.854c1.974,0,3.156-1.272,3.156-3.356V6.773z M62.583,62.583h-56v-56h56V62.583z"/>
	<path d="M9.583,44.417c0.553,0,1-0.447,1-1v-4c0-0.553-0.447-1-1-1s-1,0.447-1,1v4C8.583,43.97,9.03,44.417,9.583,44.417z"/>
	<path d="M10.417,60.583h30c0.553,0,1-0.447,1-1s-0.447-1-1-1H10.583v-9.166c0-0.553-0.447-1-1-1s-1,0.447-1,1v11
		C8.583,60.97,9.864,60.583,10.417,60.583z"/>
	<path d="M28.416,42.567l-11.815,1.806c-0.372,0.057-0.682,0.318-0.799,0.677s-0.023,0.752,0.243,1.019l10.009,10.011
		c0.19,0.19,0.446,0.293,0.707,0.293c0.104,0,0.209-0.017,0.312-0.05c0.358-0.117,0.62-0.427,0.677-0.799l1.807-11.816
		c0.048-0.314-0.057-0.634-0.281-0.858S28.737,42.519,28.416,42.567z M26.071,53.268l-7.216-7.216l8.518-1.302L26.071,53.268z"/>
	<path d="M43.613,29.514c0.05,0,0.101-0.004,0.151-0.012l11.814-1.807c0.372-0.057,0.682-0.318,0.799-0.677s0.023-0.752-0.243-1.019
		l-10.01-10.01c-0.267-0.267-0.659-0.358-1.019-0.243c-0.358,0.117-0.62,0.427-0.677,0.799l-1.805,11.816
		c-0.048,0.314,0.057,0.634,0.281,0.858C43.095,29.41,43.351,29.514,43.613,29.514z M46.108,18.802l7.215,7.216l-8.516,1.302
		L46.108,18.802z"/>
	<path d="M15.696,26.949l11.818,1.271c0.051,0.008,0.102-0.638,0.151-0.638c0.007,0,0.012,0,0.02,0c0.553,0,1,0.202,1-0.351
		c0-0.121-0.021,0.202-0.061,0.094l-1.779-11.519c-0.057-0.373-0.318-0.632-0.677-0.749c-0.359-0.117-0.752-0.007-1.019,0.261
		l-10.01,10.009c-0.267,0.267-0.36,0.637-0.243,0.995S15.324,26.893,15.696,26.949z M25.168,18.171l1.304,8.518l-8.52-1.302
		L25.168,18.171z"/>
	<path d="M43.525,54.896c0.057,0.372,0.318,0.682,0.677,0.799c0.103,0.033,0.207,0.05,0.312,0.05c0.261,0,0.517-0.103,0.707-0.293
		l10.01-10.01c0.267-0.267,0.36-0.66,0.243-1.019s-0.427-0.62-0.799-0.677l-11.815-1.807c-0.318-0.048-0.635,0.057-0.858,0.281
		c-0.225,0.225-0.329,0.544-0.281,0.858L43.525,54.896z M52.419,45.424l-7.215,7.216l-1.302-8.518L52.419,45.424z"/>
</g>
</svg>
