<?xml version="1.0" encoding="utf-8"?>
<!-- Generator: Adobe Illustrator 16.0.0, SVG Export Plug-In . SVG Version: 6.00 Build 0)  -->
<!DOCTYPE svg PUBLIC "-//W3C//DTD SVG 1.1//EN" "http://www.w3.org/Graphics/SVG/1.1/DTD/svg11.dtd">
<svg version="1.1" id="Layer_1" xmlns="http://www.w3.org/2000/svg" xmlns:xlink="http://www.w3.org/1999/xlink" x="0px" y="0px"
	 width="70px" height="70px" viewBox="0 0 70 70" enable-background="new 0 0 70 70" xml:space="preserve">
<g>
	<path d="M20.67,33.143l-1.547,1.547c-0.391,0.391-0.391,1.023,0,1.414c0.195,0.195,0.451,0.293,0.707,0.293
		s0.512-0.098,0.707-0.293l1.547-1.547c0.391-0.391,0.391-1.023,0-1.414S21.061,32.752,20.67,33.143z"/>
	<path d="M16.803,37.009l-3.718,3.719c-4.232,4.232-4.115,10.98,0.268,15.363c0.195,0.195,0.451,0.293,0.707,0.293
		s0.512-0.098,0.707-0.293c0.391-0.391,0.391-1.023,0-1.414c-1.734-1.734-2.724-3.97-2.786-6.294
		c-0.063-2.339,0.832-4.555,2.518-6.241l3.718-3.719c0.391-0.391,0.391-1.023,0-1.414S17.194,36.619,16.803,37.009z"/>
	<path d="M65.882,4.904c-0.183-1.087-1.212-1.82-2.299-1.638c-1.088,0.181-1.823,1.211-1.646,2.299
		c0.197,1.21,0.373,4.791-1.17,6.802c-0.709,0.923-1.728,1.439-3.114,1.578c-5.453,0.545-8.256,3.088-9.643,5.072
		c-2.821-2.677-6.491-4.157-10.394-4.157c-4.04,0-7.838,1.573-10.694,4.431L8.363,37.849c-5.897,5.897-5.897,15.493,0,21.389
		l3.093,3.093c2.856,2.857,6.654,4.431,10.694,4.431c4.04,0,7.838-1.573,10.693-4.431l18.561-18.56
		c5.896-5.897,5.896-15.492,0-21.389l-0.5-0.5c0.605-1.141,2.406-3.483,7.147-3.958c2.482-0.248,4.523-1.335,5.902-3.141
		C66.865,10.97,65.924,5.15,65.882,4.904z M29.751,22.119c2.102-2.102,4.896-3.259,7.866-3.259s5.765,1.157,7.866,3.259l0.839,0.838
		l-4.199,4.2c-1.189-0.566-2.709-0.384-3.666,0.573l-3.094,3.094c-0.602,0.602-0.934,1.401-0.934,2.253
		c0,0.505,0.13,0.985,0.35,1.424l-1.115,1.115c-3.57-3.663-6.89-7.423-8.054-9.356L29.751,22.119z M41.55,30.824l-3.094,3.093
		c-0.449,0.449-1.229,0.448-1.679,0c-0.225-0.225-0.348-0.522-0.348-0.84c0-0.316,0.123-0.614,0.348-0.839l3.094-3.094
		c0.224-0.224,0.521-0.348,0.839-0.348s0.616,0.124,0.84,0.348C42.013,29.607,42.012,30.361,41.55,30.824z M30.016,59.503
		c-2.101,2.102-4.894,3.259-7.865,3.259c-2.972,0-5.765-1.157-7.866-3.259l-3.094-3.093c-4.337-4.338-4.337-11.395,0-15.732
		l12.992-12.992c3.167,4.646,14.148,16.19,18.794,18.855L30.016,59.503z M48.576,40.943l-4.124,4.124
		c-1.287-0.373-5.325-3.969-9.384-8.029l1.125-1.124c0.438,0.221,0.919,0.35,1.424,0.35c0.852,0,1.652-0.331,2.254-0.934
		l3.093-3.093c0.994-0.995,1.179-2.482,0.582-3.676l4.19-4.191l0.84,0.84C52.913,29.548,52.913,36.606,48.576,40.943z"/>
</g>
</svg>
