<?xml version="1.0" encoding="utf-8"?>
<!-- Generator: Adobe Illustrator 16.0.0, SVG Export Plug-In . SVG Version: 6.00 Build 0)  -->
<!DOCTYPE svg PUBLIC "-//W3C//DTD SVG 1.1//EN" "http://www.w3.org/Graphics/SVG/1.1/DTD/svg11.dtd">
<svg version="1.1" id="Layer_1" xmlns="http://www.w3.org/2000/svg" xmlns:xlink="http://www.w3.org/1999/xlink" x="0px" y="0px"
	 width="70px" height="70px" viewBox="0 0 70 70" enable-background="new 0 0 70 70" xml:space="preserve">
<g>
	<path d="M19.988,51.851c-2.774,0-5.03,2.257-5.03,5.03c0,0.553,0.448,1,1,1s1-0.447,1-1c0-1.671,1.359-3.03,3.03-3.03
		c0.552,0,1-0.447,1-1S20.54,51.851,19.988,51.851z"/>
	<path d="M49.987,42.851c-2.773,0-5.029,2.257-5.029,5.03c0,0.553,0.447,1,1,1c0.552,0,1-0.447,1-1c0-1.671,1.359-3.03,3.029-3.03
		c0.553,0,1-0.447,1-1S50.54,42.851,49.987,42.851z"/>
	<path d="M59.583,5.547c0-0.643-0.102-1.246-0.623-1.622s-1.087-0.477-1.696-0.275l-30.157,10c-0.817,0.272-1.524,1.036-1.524,1.897
		v33.362c-1-1.267-3.546-2.028-5.804-2.028c-5.514,0-9.896,4.486-9.896,10s4.538,10,10.052,10c5.351,0,9.362-4.229,9.616-9.518
		c0.022-0.118,0.031-0.238,0.031-0.363V25.93l26-8.666v22.646c-1-1.267-3.547-2.028-5.805-2.028c-5.514,0-9.896,4.486-9.896,10
		s4.539,10,10.053,10c5.352,0,9.402-4.093,9.657-9.382c0.021-0.118-0.01-0.374-0.01-0.499V5.547z M19.988,62.881
		c-3.309,0-6-2.691-6-6s2.691-6,6-6s6,2.691,6,6S23.296,62.881,19.988,62.881z M29.583,23.822v-6.834l26-8.667v6.835L29.583,23.822z
		 M49.987,53.881c-3.309,0-6-2.691-6-6s2.691-6,6-6s6,2.691,6,6S53.296,53.881,49.987,53.881z"/>
</g>
</svg>
