<?xml version="1.0" encoding="utf-8"?>
<!-- Generator: Adobe Illustrator 16.0.0, SVG Export Plug-In . SVG Version: 6.00 Build 0)  -->
<!DOCTYPE svg PUBLIC "-//W3C//DTD SVG 1.1//EN" "http://www.w3.org/Graphics/SVG/1.1/DTD/svg11.dtd">
<svg version="1.1" id="Layer_1" xmlns="http://www.w3.org/2000/svg" xmlns:xlink="http://www.w3.org/1999/xlink" x="0px" y="0px"
	 width="70px" height="70px" viewBox="0 0 70 70" enable-background="new 0 0 70 70" xml:space="preserve">
<g>
	<g>
		<path d="M23.583,7c2.209,0,4,1.773,4,3.963v48.074c0,2.189-1.791,3.963-4,3.963c-2.208,0-4-1.773-4-3.963V10.963
			C19.583,8.773,21.375,7,23.583,7 M23.583,3c-4.411,0-8,3.572-8,7.963v48.074c0,4.391,3.589,7.963,8,7.963s8-3.572,8-7.963V10.963
			C31.583,6.572,27.994,3,23.583,3L23.583,3z"/>
		<g>
			<path d="M23.583,16.227c-0.552,0-1-0.447-1-1v-3c0-0.553,0.448-1,1-1s1,0.447,1,1v3C24.583,15.779,24.135,16.227,23.583,16.227z"
				/>
		</g>
		<g>
			<path d="M23.583,35.227c-0.552,0-1-0.447-1-1v-14c0-0.553,0.448-1,1-1s1,0.447,1,1v14C24.583,34.779,24.135,35.227,23.583,35.227
				z"/>
		</g>
	</g>
	<g>
		<path d="M45.583,7c2.208,0,4,1.773,4,3.963v48.074c0,2.189-1.792,3.963-4,3.963c-2.209,0-4-1.773-4-3.963V10.963
			C41.583,8.773,43.374,7,45.583,7 M45.583,3c-4.411,0-8,3.572-8,7.963v48.074c0,4.391,3.589,7.963,8,7.963s8-3.572,8-7.963V10.963
			C53.583,6.572,49.994,3,45.583,3L45.583,3z"/>
		<g>
			<path d="M43.583,59.227c-0.552,0-1-0.447-1-1v-3c0-0.553,0.448-1,1-1s1,0.447,1,1v3C44.583,58.779,44.135,59.227,43.583,59.227z"
				/>
		</g>
		<g>
			<path d="M43.583,51.227c-0.552,0-1-0.447-1-1v-14c0-0.553,0.448-1,1-1s1,0.447,1,1v14C44.583,50.779,44.135,51.227,43.583,51.227
				z"/>
		</g>
	</g>
</g>
</svg>
