<?xml version="1.0" encoding="utf-8"?>
<!-- Generator: Adobe Illustrator 16.0.0, SVG Export Plug-In . SVG Version: 6.00 Build 0)  -->
<!DOCTYPE svg PUBLIC "-//W3C//DTD SVG 1.1//EN" "http://www.w3.org/Graphics/SVG/1.1/DTD/svg11.dtd">
<svg version="1.1" id="Layer_1" xmlns="http://www.w3.org/2000/svg" xmlns:xlink="http://www.w3.org/1999/xlink" x="0px" y="0px"
	 width="70px" height="70px" viewBox="0 0 70 70" enable-background="new 0 0 70 70" xml:space="preserve">
<g>
	<path d="M63.196,2.583H6.405c-2.209,0-3.822,2.096-3.822,4.305v57c0,2.209,2.613,2.695,4.822,2.695h56
		c2.209,0,3.179-0.486,3.179-2.695v-56C66.583,5.679,65.405,2.583,63.196,2.583z M62.583,62.583h-56v-56h56V62.583z"/>
	<path d="M17.273,50.583h36.263c1.104,0,1.047-0.185,1.047-1.289V14.757c0-1.104-0.15-2.174-1.256-2.174H16.273
		c-1.104,0-1.69,1.069-1.69,2.174v34.537C14.583,50.398,16.169,50.583,17.273,50.583z M16.583,48.583v-11.83
		c0.223-0.021,0.443-0.104,0.614-0.275l7.671-7.671l9.826,8.426l-7.497,7.496c-0.391,0.391-0.391,1.023,0,1.414
		c0.195,0.195,0.451,0.293,0.707,0.293s0.512-0.098,0.707-0.293l12.769-12.769l11.202,11.202v4.006H16.583z M52.583,14.583v27.166
		L42.088,31.254c-0.391-0.391-1.023-0.391-1.414,0l-4.572,4.572c-0.018-0.018-0.026-0.042-0.046-0.059l-10.589-9.08
		c-0.396-0.339-0.988-0.317-1.358,0.052l-7.526,7.526V14.583H52.583z"/>
	<path d="M44.057,28.187c3.018,0,5.473-2.455,5.473-5.473s-2.455-5.473-5.473-5.473s-5.473,2.455-5.473,5.473
		S41.039,28.187,44.057,28.187z M44.057,19.241c1.915,0,3.473,1.558,3.473,3.473s-1.558,3.473-3.473,3.473s-3.473-1.558-3.473-3.473
		S42.142,19.241,44.057,19.241z"/>
</g>
</svg>
