<?xml version="1.0" encoding="utf-8"?>
<!-- Generator: Adobe Illustrator 16.0.0, SVG Export Plug-In . SVG Version: 6.00 Build 0)  -->
<!DOCTYPE svg PUBLIC "-//W3C//DTD SVG 1.1//EN" "http://www.w3.org/Graphics/SVG/1.1/DTD/svg11.dtd">
<svg version="1.1" id="Layer_1" xmlns="http://www.w3.org/2000/svg" xmlns:xlink="http://www.w3.org/1999/xlink" x="0px" y="0px"
	 width="70px" height="70px" viewBox="0 0 70 70" enable-background="new 0 0 70 70" xml:space="preserve">
<g>
	<g>
		<path d="M35,7.396c9.99,0,18.087,8.098,18.087,18.087C53.087,40.588,35,62.604,35,62.604s-18.087-19.24-18.087-37.122
			C16.913,15.493,25.01,7.396,35,7.396 M35,3.396c-12.179,0-22.087,9.908-22.087,22.087c0,19.245,18.39,39.029,19.173,39.862
			c0.758,0.805,1.813,1.26,2.914,1.26c0.045,0,0.09-0.001,0.134-0.002c1.149-0.039,2.228-0.57,2.958-1.459
			c0.775-0.944,18.996-23.312,18.996-39.661C57.087,13.304,47.179,3.396,35,3.396L35,3.396z"/>
		<g>
			<path d="M35,32.675c-4.125,0-7.482-3.356-7.482-7.482S30.875,17.71,35,17.71c4.126,0,7.482,3.356,7.482,7.482
				S39.126,32.675,35,32.675z M35,19.71c-3.022,0-5.482,2.459-5.482,5.482s2.46,5.482,5.482,5.482c3.023,0,5.482-2.459,5.482-5.482
				S38.023,19.71,35,19.71z"/>
		</g>
		<g>
			<path d="M32.923,12.449c-0.488,0-0.914-0.356-0.988-0.854c-0.081-0.546,0.297-1.055,0.842-1.136
				c0.734-0.108,1.482-0.164,2.223-0.164c0.553,0,1,0.447,1,1s-0.447,1-1,1c-0.643,0-1.291,0.048-1.928,0.143
				C33.021,12.445,32.972,12.449,32.923,12.449z"/>
		</g>
		<g>
			<path d="M21.104,26.192c-0.552,0-1-0.447-1-1c0-5.01,2.496-9.654,6.677-12.426c0.46-0.306,1.08-0.179,1.386,0.281
				c0.305,0.461,0.179,1.081-0.281,1.387c-3.621,2.398-5.782,6.421-5.782,10.758C22.104,25.745,21.656,26.192,21.104,26.192z"/>
		</g>
	</g>
	<g>
		<path d="M37,55.165c-0.223,0-0.448-0.074-0.635-0.228c-0.426-0.351-0.488-0.98-0.138-1.407c0.036-0.044,3.69-4.514,6.725-9.956
			c0.27-0.482,0.879-0.653,1.361-0.386c0.482,0.269,0.654,0.878,0.385,1.36c-3.125,5.604-6.772,10.063-6.925,10.251
			C37.576,55.04,37.289,55.165,37,55.165z"/>
	</g>
</g>
</svg>
