<?xml version="1.0" encoding="utf-8"?>
<!-- Generator: Adobe Illustrator 16.0.0, SVG Export Plug-In . SVG Version: 6.00 Build 0)  -->
<!DOCTYPE svg PUBLIC "-//W3C//DTD SVG 1.1//EN" "http://www.w3.org/Graphics/SVG/1.1/DTD/svg11.dtd">
<svg version="1.1" id="Layer_1" xmlns="http://www.w3.org/2000/svg" xmlns:xlink="http://www.w3.org/1999/xlink" x="0px" y="0px"
	 width="70px" height="70px" viewBox="0 0 70 70" enable-background="new 0 0 70 70" xml:space="preserve">
<g>
	<path d="M62.597,21.583H8.46c-3.954,0-6.877,3.133-6.877,6.979v20.137c0,3.751,2.968,6.884,6.877,6.884h4.123v4.485
		c0,3.828,3.521,6.515,7.349,6.515h30.137c3.828,0,6.515-2.687,6.515-6.515v-4.485h6.014c3.481,0,4.986-2.268,4.986-6.884V28.563
		C67.583,23.216,64.771,21.583,62.597,21.583z M52.583,60.068c0,1.619-0.896,2.515-2.515,2.515H19.932
		c-1.619,0-3.349-0.896-3.349-2.515V46.932c0-1.619,1.729-3.349,3.349-3.349h30.137c1.619,0,2.515,1.729,2.515,3.349V60.068z
		 M62.597,51.583h-6.014v-4.651c0-3.828-2.687-7.349-6.515-7.349H19.932c-3.828,0-7.349,3.521-7.349,7.349v4.651H8.46
		c-1.7,0-2.877-1.32-2.877-2.884V28.563c0-1.228,0.968-2.979,2.877-2.979h54.137c1.294,0,0.986,1.028,0.986,2.979v20.137
		C63.583,49.733,64.09,51.583,62.597,51.583z"/>
	<path d="M14.583,20.417c1.104,0,2-0.896,2-2V9.563c0-1.228,0.521-2.979,3.877-2.979h30.137c1.294,0,1.986,1.028,1.986,2.979v8.854
		c0,1.104,0.896,2,2,2s2-0.896,2-2V9.563c0-5.347-1.667-6.979-5.986-6.979H20.46c-5.543,0-7.877,2.084-7.877,6.979v8.854
		C12.583,19.521,13.479,20.417,14.583,20.417z"/>
	<path d="M17.417,31.583c0.552,0,1-0.447,1-1s-0.448-1-1-1h-3c-0.552,0-1,0.447-1,1s0.448,1,1,1H17.417z"/>
	<path d="M21.417,31.583h3c0.552,0,1-0.447,1-1s-0.448-1-1-1h-3c-0.552,0-1,0.447-1,1S20.865,31.583,21.417,31.583z"/>
	<path d="M55.417,33.583h-40c-0.552,0-1,0.447-1,1s0.448,1,1,1h40c0.552,0,1-0.447,1-1S55.969,33.583,55.417,33.583z"/>
	<path d="M22.417,49.583h12c0.552,0,1-0.447,1-1s-0.448-1-1-1h-12c-0.552,0-1,0.447-1,1S21.865,49.583,22.417,49.583z"/>
	<path d="M47.417,47.583h-9c-0.552,0-1,0.447-1,1s0.448,1,1,1h9c0.552,0,1-0.447,1-1S47.969,47.583,47.417,47.583z"/>
	<path d="M22.417,54.583h6c0.552,0,1-0.447,1-1s-0.448-1-1-1h-6c-0.552,0-1,0.447-1,1S21.865,54.583,22.417,54.583z"/>
	<path d="M31.417,53.583c0,0.553,0.448,1,1,1h7c0.552,0,1-0.447,1-1s-0.448-1-1-1h-7C31.865,52.583,31.417,53.03,31.417,53.583z"/>
	<path d="M32.417,57.583h-10c-0.552,0-1,0.447-1,1s0.448,1,1,1h10c0.552,0,1-0.447,1-1S32.969,57.583,32.417,57.583z"/>
	<path d="M43.417,57.583h-7c-0.552,0-1,0.447-1,1s0.448,1,1,1h7c0.552,0,1-0.447,1-1S43.969,57.583,43.417,57.583z"/>
	<path d="M47.417,52.583h-4c-0.552,0-1,0.447-1,1s0.448,1,1,1h4c0.552,0,1-0.447,1-1S47.969,52.583,47.417,52.583z"/>
</g>
</svg>
