<?xml version="1.0" encoding="utf-8"?>
<!-- Generator: Adobe Illustrator 16.0.0, SVG Export Plug-In . SVG Version: 6.00 Build 0)  -->
<!DOCTYPE svg PUBLIC "-//W3C//DTD SVG 1.1//EN" "http://www.w3.org/Graphics/SVG/1.1/DTD/svg11.dtd">
<svg version="1.1" id="Layer_1" xmlns="http://www.w3.org/2000/svg" xmlns:xlink="http://www.w3.org/1999/xlink" x="0px" y="0px"
	 width="70px" height="70px" viewBox="0 0 70 70" enable-background="new 0 0 70 70" xml:space="preserve">
<g>
	<path d="M27.792,8.103v9.427c-5.957,1.364-8.811,5.091-9.185,12.032h9.185v22.336H7.813V33.531
		C7.813,20.257,13.521,10.083,27.792,8.103 M27.792,4.103c-0.183,0-0.366,0.013-0.55,0.038C12.134,6.237,3.813,16.675,3.813,33.531
		v18.366c0,2.209,1.791,4,4,4h19.979c2.209,0,4-1.791,4-4V29.562c0-2.209-1.791-4-4-4h-4.411c0.988-2.571,2.832-3.567,5.304-4.133
		c1.818-0.417,3.107-2.034,3.107-3.899V8.103c0-1.156-0.501-2.257-1.373-3.017C29.687,4.448,28.751,4.103,27.792,4.103L27.792,4.103
		z"/>
	<path d="M62.187,18.103v9.427c-5.955,1.364-8.809,5.091-9.183,12.032h9.183v22.336H42.208V43.531
		C42.208,30.257,47.917,20.083,62.187,18.103 M62.187,14.103c-0.183,0-0.366,0.013-0.55,0.038
		c-15.108,2.097-23.429,12.534-23.429,29.391v18.366c0,2.209,1.791,4,4,4h19.979c2.209,0,4-1.791,4-4V39.562c0-2.209-1.791-4-4-4
		h-4.409c0.988-2.571,2.831-3.567,5.303-4.133c1.817-0.417,3.106-2.034,3.106-3.899v-9.427c0-1.156-0.501-2.257-1.373-3.017
		C64.081,14.448,63.146,14.103,62.187,14.103L62.187,14.103z"/>
	<g>
		<path d="M24.583,45.565c-0.553,0-1-0.447-1-1V33.583h-4.654c-0.553,0-1-0.447-1-1s0.447-1,1-1h6c0.553,0,0.654,0.43,0.654,0.982
			v12C25.583,45.118,25.136,45.565,24.583,45.565z"/>
	</g>
	<g>
		<path d="M59.583,57.565c-0.553,0-1-0.447-1-1v-2c0-0.553,0.447-1,1-1s1,0.447,1,1v2C60.583,57.118,60.136,57.565,59.583,57.565z"
			/>
	</g>
	<g>
		<path d="M59.583,51.565c-0.553,0-1-0.447-1-1v-6.982h-4.654c-0.553,0-1-0.447-1-1s0.447-1,1-1h6c0.553,0,0.654,0.43,0.654,0.982v8
			C60.583,51.118,60.136,51.565,59.583,51.565z"/>
	</g>
</g>
</svg>
