<?xml version="1.0" encoding="utf-8"?>
<!-- Generator: Adobe Illustrator 16.0.0, SVG Export Plug-In . SVG Version: 6.00 Build 0)  -->
<!DOCTYPE svg PUBLIC "-//W3C//DTD SVG 1.1//EN" "http://www.w3.org/Graphics/SVG/1.1/DTD/svg11.dtd">
<svg version="1.1" id="Layer_1" xmlns="http://www.w3.org/2000/svg" xmlns:xlink="http://www.w3.org/1999/xlink" x="0px" y="0px"
	 width="70px" height="70px" viewBox="0 0 70 70" enable-background="new 0 0 70 70" xml:space="preserve">
<g>
	<path d="M65.981,51.389L57,44.818c-0.608-0.447-1.493-0.513-2.165-0.173s-1.252,1.03-1.252,1.784v5.237
		c-3.181,0.34-14.083,0.226-18.823-16.212c6.214-15.712,15.76-16.886,18.823-16.83v4.946c0,0.754,0.58,1.444,1.252,1.784
		c0.285,0.145,0.75,0.216,1.059,0.216c0.418,0,0.829-0.131,1.18-0.389l8.937-6.571c0.513-0.377,0.806-0.975,0.806-1.611
		s-0.321-1.234-0.834-1.611L57,8.818c-0.608-0.448-1.493-0.513-2.165-0.173s-1.252,1.03-1.252,1.784v4.198
		c-3.822-0.046-13.442,1.306-20.44,14.734c-3.03-10.222-7.689-16.728-13.89-19.343c-7.746-3.267-14.796,0.881-15.092,1.06
		c-0.944,0.567-1.248,1.789-0.685,2.735c0.563,0.947,1.79,1.257,2.738,0.696c0.058-0.032,5.678-3.284,11.526-0.787
		c5.703,2.432,9.93,9.333,12.563,20.512c0.082,0.348,0.171,0.678,0.258,1.014c-0.064,0.175-0.132,0.337-0.196,0.515
		c-3.696,10.345-8.764,17.12-14.651,19.592c-5.297,2.224-9.498,0.335-9.661,0.26c-0.997-0.477-2.19-0.055-2.667,0.942
		s-0.054,2.19,0.942,2.667c0.153,0.073,2.579,1.202,6.164,1.202c1.938,0,4.217-0.33,6.657-1.336
		c6.238-2.571,11.403-8.591,15.392-17.916c5.415,12.753,14.946,14.519,19.785,14.519c0.465,0,0.885-0.017,1.255-0.041v3.919
		c0,0.754,0.58,1.444,1.252,1.784c0.285,0.145,0.75,0.216,1.059,0.216c0.418,0,0.829-0.131,1.18-0.389l8.937-6.571
		c0.513-0.377,0.806-0.975,0.806-1.611S66.494,51.766,65.981,51.389z M57.583,14.38L61.147,17l-3.564,2.619V14.38z M57.583,55.619
		v-5.238L61.147,53L57.583,55.619z"/>
	<path d="M38.995,37.081c-0.215-0.509-0.803-0.744-1.311-0.533c-0.509,0.215-0.747,0.802-0.533,1.311
		c3.465,8.215,8.91,10.974,12.867,11.841c0.072,0.016,0.144,0.023,0.215,0.023c0.46,0,0.873-0.318,0.976-0.786
		c0.118-0.539-0.223-1.072-0.763-1.19C46.95,46.979,42.126,44.507,38.995,37.081z"/>
	<path d="M8.467,17.864c5.117-0.824,11.476-1.843,17.331,12.953c0.155,0.393,0.531,0.632,0.93,0.632c0.123,0,0.247-0.022,0.368-0.07
		c0.514-0.203,0.765-0.784,0.562-1.298C21.211,13.79,13.354,15.054,8.15,15.889l-0.771,0.122c-0.546,0.082-0.921,0.592-0.838,1.139
		c0.082,0.545,0.581,0.919,1.139,0.838L8.467,17.864z"/>
</g>
</svg>
