<?xml version="1.0" encoding="utf-8"?>
<!-- Generator: Adobe Illustrator 16.0.0, SVG Export Plug-In . SVG Version: 6.00 Build 0)  -->
<!DOCTYPE svg PUBLIC "-//W3C//DTD SVG 1.1//EN" "http://www.w3.org/Graphics/SVG/1.1/DTD/svg11.dtd">
<svg version="1.1" id="Layer_1" xmlns="http://www.w3.org/2000/svg" xmlns:xlink="http://www.w3.org/1999/xlink" x="0px" y="0px"
	 width="70px" height="70px" viewBox="0 0 70 70" enable-background="new 0 0 70 70" xml:space="preserve">
<g>
	<path d="M65.208,62.583h-1.625v-44.21c0-4.115-3.664-7.592-8-7.592c-4.338,0-8,3.477-8,7.592v44.21h-2v-33.21
		c0-4.115-3.664-7.592-8-7.592c-4.337,0-8,3.477-8,7.592v33.21h-2V40.372c0-4.115-3.663-7.591-8-7.591c-4.336,0-8,3.477-8,7.591
		v22.211h-5v-4h2.625c0.552,0,1-0.447,1-1s-0.448-1-1-1H6.583v-8h2.625c0.552,0,1-0.447,1-1s-0.448-1-1-1H6.583v-6h2.625
		c0.552,0,1-0.447,1-1s-0.448-1-1-1H6.583v-6h2.625c0.552,0,1-0.447,1-1s-0.448-1-1-1H6.583v-8h2.625c0.552,0,1-0.447,1-1
		s-0.448-1-1-1H6.583v-8h2.625c0.552,0,1-0.447,1-1s-0.448-1-1-1H6.583V5.208c0-1.104-0.896-2-2-2s-2,0.896-2,2v60
		c0,1.105,1.521,1.375,2.625,1.375h60c1.105,0,2-0.896,2-2C67.208,63.478,66.313,62.583,65.208,62.583z M51.583,18.373
		c0-1.913,1.869-3.592,4-3.592s4,1.679,4,3.592v44.21h-8V18.373z M33.583,29.373c0-1.913,1.869-3.592,4-3.592s4,1.679,4,3.592v33.21
		h-8V29.373z M15.583,40.372c0-1.913,1.869-3.591,4-3.591s4,1.679,4,3.591v22.211h-8V40.372z"/>
	<path d="M56.583,21.208c-0.553,0-1,0.447-1,1v14c0,0.553,0.447,1,1,1c0.551,0,1-0.447,1-1v-14
		C57.583,21.656,57.134,21.208,56.583,21.208z"/>
	<path d="M38.583,33.208c-0.552,0-1,0.447-1,1v10c0,0.553,0.448,1,1,1c0.551,0,1-0.447,1-1v-10
		C39.583,33.656,39.134,33.208,38.583,33.208z"/>
	<path d="M20.583,42.208c-0.552,0-1,0.447-1,1v7c0,0.553,0.448,1,1,1c0.552,0,1-0.447,1-1v-7
		C21.583,42.655,21.135,42.208,20.583,42.208z"/>
</g>
</svg>
