<?xml version="1.0" encoding="utf-8"?>
<!-- Generator: Adobe Illustrator 16.0.0, SVG Export Plug-In . SVG Version: 6.00 Build 0)  -->
<!DOCTYPE svg PUBLIC "-//W3C//DTD SVG 1.1//EN" "http://www.w3.org/Graphics/SVG/1.1/DTD/svg11.dtd">
<svg version="1.1" id="Layer_1" xmlns="http://www.w3.org/2000/svg" xmlns:xlink="http://www.w3.org/1999/xlink" x="0px" y="0px"
	 width="70px" height="70px" viewBox="0 0 70 70" enable-background="new 0 0 70 70" xml:space="preserve">
<g>
	<path d="M28.757,18.369c1.449-0.284,3.224-0.429,5.274-0.429c9.194,0,9.301,2.125,9.301,2.146c0,0.553,0.447,1,1,1
		c0.552,0,1-0.447,1-1c0-2.751-3.803-4.146-11.301-4.146c-2.18,0-4.083,0.157-5.659,0.466c-0.542,0.106-0.895,0.632-0.789,1.174
		C27.689,18.123,28.215,18.473,28.757,18.369z"/>
	<path d="M25.834,18.13c-0.332-0.44-0.958-0.532-1.4-0.201c-1.124,0.841-1.292,1.713-1.292,2.158c0,0.553,0.448,1.004,1,1.004
		s1-0.444,1-0.997c0.007-0.056,0.112-0.28,0.49-0.563C26.075,19.199,26.165,18.572,25.834,18.13z"/>
	<path d="M44.718,27.388c3.301-0.744,5.77-3.608,5.77-7.157c0-2.855-1.607-9.351-16.5-9.351c-15.551,0-16,8.378-16,9.351
		c0,3.485,2.381,6.308,5.592,7.113c-6.176,3.629-10.342,10.326-10.342,17.993c0,11.511,9.364,20.875,20.875,20.875
		c11.511,0,20.875-9.364,20.875-20.875C54.987,37.7,50.854,31.028,44.718,27.388z M21.988,20.231c0-1.932,2.5-5.351,12-5.351
		c10.917,0,12.5,3.419,12.5,5.351s-1.551,3.352-3.467,3.352H25.455C23.54,23.583,21.988,22.163,21.988,20.231z M34.113,62.212
		c-9.32,0-16.875-7.555-16.875-16.875s7.555-16.875,16.875-16.875c9.32,0,16.875,7.555,16.875,16.875S43.433,62.212,34.113,62.212z"
		/>
	<path d="M16,19.583c0-1.104-0.896-2-2-2h-3c-1.104,0-2,0.896-2,2s0.896,2,2,2h3C15.104,21.583,16,20.688,16,19.583z"/>
	<path d="M17.134,10.415c0.39,0.391,0.902,0.586,1.414,0.586s1.024-0.195,1.414-0.586c0.781-0.781,0.781-2.047,0-2.828l-2.121-2.121
		c-0.78-0.781-2.048-0.781-2.828,0c-0.781,0.781-0.781,2.047,0,2.828L17.134,10.415z"/>
	<path d="M58,17.583h-3c-1.104,0-2,0.896-2,2s0.896,2,2,2h3c1.104,0,2-0.896,2-2S59.104,17.583,58,17.583z"/>
	<path d="M49.987,11.001c0.512,0,1.024-0.195,1.414-0.586l2.121-2.121c0.781-0.781,0.781-2.047,0-2.828
		c-0.779-0.781-2.047-0.781-2.828,0l-2.121,2.121c-0.781,0.781-0.781,2.047,0,2.828C48.964,10.806,49.476,11.001,49.987,11.001z"/>
	<path d="M34.583,9c1.104,0,2-0.896,2-2V5c0-1.104-0.896-2-2-2s-2,0.896-2,2v2C32.583,8.104,33.479,9,34.583,9z"/>
</g>
</svg>
