<?xml version="1.0" encoding="utf-8"?>
<!-- Generator: Adobe Illustrator 16.0.0, SVG Export Plug-In . SVG Version: 6.00 Build 0)  -->
<!DOCTYPE svg PUBLIC "-//W3C//DTD SVG 1.1//EN" "http://www.w3.org/Graphics/SVG/1.1/DTD/svg11.dtd">
<svg version="1.1" id="Layer_1" xmlns="http://www.w3.org/2000/svg" xmlns:xlink="http://www.w3.org/1999/xlink" x="0px" y="0px"
	 width="70px" height="70px" viewBox="0 0 70 70" enable-background="new 0 0 70 70" xml:space="preserve">
<path d="M63.583,38.956V5.329c0-1.104-0.536-2.746-1.641-2.746h-30c-1.104,0-2.359,1.641-2.359,2.746v22.502l-15.779,8.437
	c-0.047,0.025,0.101,0.052,0.056,0.08C9.52,39.103,2.727,47.161,8.111,57.931c4.133,8.266,12.277,9.158,15.589,9.158
	c0.846,0,1.323-0.061,1.381-0.066c0.153-0.018,0.25-0.053,0.394-0.105c0.137-0.049,13.725-4.988,27.085-11.061
	C64.209,50.562,63.939,41.073,63.583,38.956z M33.583,11.583h26v7h-26V11.583z M59.583,6.583v3h-26v-3H59.583z M32.697,30.804
	c0.655-0.347,0.886-1.027,0.886-1.769v-8.453h26v17.373c-2,0.042-5.967,0.694-10.309,4.311c-5.244,4.371-4.194,10.207-3.571,12.338
	c-8.561,3.695-16.449,6.688-19.787,7.93c0.631-13.176-7.521-20.924-9.835-22.844L32.697,30.804z M11.682,56.142
	c-3.827-7.654,0.302-12.926,2.761-15.186c1.263,1.002,10.333,8.691,9.445,22.014c-0.002,0.039,0.013,0.076,0.016,0.115
	c-0.07,0.002-0.129,0.004-0.207,0.004C21.128,63.089,14.817,62.411,11.682,56.142z M51.086,52.216
	c-1.188,0.539-2.377,1.07-3.56,1.588c-0.526-1.865-1.245-6.461,3.001-10c4.109-3.426,7.638-3.865,9.243-3.855
	C59.761,42.104,59.043,48.599,51.086,52.216z"/>
</svg>
