<?xml version="1.0" encoding="utf-8"?>
<!-- Generator: Adobe Illustrator 16.0.0, SVG Export Plug-In . SVG Version: 6.00 Build 0)  -->
<!DOCTYPE svg PUBLIC "-//W3C//DTD SVG 1.1//EN" "http://www.w3.org/Graphics/SVG/1.1/DTD/svg11.dtd">
<svg version="1.1" id="Layer_1" xmlns="http://www.w3.org/2000/svg" xmlns:xlink="http://www.w3.org/1999/xlink" x="0px" y="0px"
	 width="70px" height="70px" viewBox="0 0 70 70" enable-background="new 0 0 70 70" xml:space="preserve">
<g>
	<path d="M65.331,31.168c1.066-1.068,1.44-2.646,0.967-4.08c-0.473-1.434-1.714-2.479-3.207-2.702l-16.728-2.5
		c-0.212-0.032-0.394-0.152-0.479-0.317L38.632,5.827C37.979,4.408,36.561,3.5,34.999,3.5s-2.98,0.909-3.634,2.327L24.116,21.57
		c-0.086,0.165-0.268,0.285-0.479,0.316l-16.729,2.5c-1.493,0.223-2.734,1.268-3.207,2.702c-0.474,1.434-0.1,3.012,0.967,4.081
		l12.258,12.279c0.103,0.103,0.154,0.229,0.148,0.355l-3.991,17.822c-0.35,1.562,0.265,3.181,1.563,4.117
		c0.696,0.503,1.518,0.757,2.341,0.757c0.711,0,1.423-0.189,2.059-0.57l15.652-9.395c0.095-0.043,0.198-0.065,0.301-0.065
		c0.112,0,0.226,0.026,0.326,0.076l16.581,9.431c0.616,0.351,1.298,0.523,1.977,0.523c0.87,0,1.735-0.283,2.453-0.84
		c1.276-0.99,1.832-2.652,1.407-4.212l-4.818-17.685c0.006-0.113,0.058-0.224,0.146-0.313L65.331,31.168z M48.984,44.519
		L53.884,62.5l-16.639-9.464c-0.7-0.377-1.473-0.566-2.246-0.566c-0.771,0-1.544,0.189-2.244,0.566L16.987,62.5l4.027-17.981
		c0.239-1.42-0.228-2.867-1.257-3.896L7.5,28.343l16.728-2.5c1.527-0.228,2.844-1.188,3.501-2.555L34.999,7.5l7.272,15.788
		c0.657,1.367,1.972,2.327,3.501,2.555l16.728,2.5L50.243,40.622C49.214,41.651,48.747,43.099,48.984,44.519z"/>
	<path d="M33.807,19.971c-0.486-0.264-1.093-0.087-1.357,0.399l-3.859,7.07c-0.347,0.721-1.039,1.224-1.852,1.345l-6.747,1.008
		c-0.547,0.082-0.923,0.591-0.842,1.137c0.074,0.496,0.501,0.852,0.988,0.852c0.049,0,0.099-0.003,0.148-0.011l6.747-1.008
		c1.469-0.22,2.724-1.138,3.336-2.411l3.836-7.025C34.47,20.843,34.291,20.236,33.807,19.971z"/>
	<path d="M35.317,15.22c-0.505-0.234-1.097-0.011-1.326,0.49l-0.725,1.574c-0.231,0.501-0.012,1.095,0.49,1.326
		c0.136,0.063,0.277,0.092,0.417,0.092c0.379,0,0.741-0.216,0.909-0.582l0.725-1.574C36.039,16.044,35.819,15.451,35.317,15.22z"/>
</g>
</svg>
