<?xml version="1.0" encoding="utf-8"?>
<!-- Generator: Adobe Illustrator 16.0.0, SVG Export Plug-In . SVG Version: 6.00 Build 0)  -->
<!DOCTYPE svg PUBLIC "-//W3C//DTD SVG 1.1//EN" "http://www.w3.org/Graphics/SVG/1.1/DTD/svg11.dtd">
<svg version="1.1" id="Layer_1" xmlns="http://www.w3.org/2000/svg" xmlns:xlink="http://www.w3.org/1999/xlink" x="0px" y="0px"
	 width="70px" height="70px" viewBox="0 0 70 70" enable-background="new 0 0 70 70" xml:space="preserve">
<g>
	<g>
		<path d="M35,7c15.465,0,28,12.535,28,28c0,15.467-12.535,28-28,28S7,50.467,7,35C7,19.535,19.535,7,35,7 M35,3
			C17.355,3,3,17.355,3,35s14.355,32,32,32s32-14.355,32-32S52.645,3,35,3L35,3z"/>
	</g>
	<g>
		<g>
			<path d="M47.583,47.583c0,0.553-0.447,1-1,1h-25c-0.552,0-1-0.447-1-1v-25c0-0.552,0.448-1,1-1h25c0.553,0,1,0.448,1,1V47.583z
				 M22.583,46.583h23v-23h-23V46.583z"/>
		</g>
		<g>
			<path d="M25.583,38.293c-0.553,0-1-0.447-1-1v-10c0-0.553,0.793-1.71,1.346-1.71h7c0.553,0,1,0.447,1,1s-0.447,1-1,1h-6.346v9.71
				C26.583,37.846,26.136,38.293,25.583,38.293z"/>
		</g>
		<g>
			<path d="M25.583,44.293c-0.553,0-1-0.447-1-1v-1c0-0.553,0.447-1,1-1s1,0.447,1,1v1C26.583,43.846,26.136,44.293,25.583,44.293z"
				/>
		</g>
	</g>
</g>
</svg>
