<?xml version="1.0" encoding="utf-8"?>
<!-- Generator: Adobe Illustrator 16.0.0, SVG Export Plug-In . SVG Version: 6.00 Build 0)  -->
<!DOCTYPE svg PUBLIC "-//W3C//DTD SVG 1.1//EN" "http://www.w3.org/Graphics/SVG/1.1/DTD/svg11.dtd">
<svg version="1.1" id="Layer_1" xmlns="http://www.w3.org/2000/svg" xmlns:xlink="http://www.w3.org/1999/xlink" x="0px" y="0px"
	 width="70px" height="70px" viewBox="0 0 70 70" enable-background="new 0 0 70 70" xml:space="preserve">
<g>
	<path d="M58.839,12.551l-9.974-8.492c-0.75-0.75-1.553-1.476-2.613-1.476H13.439c-2.209,0-3.856,1.4-3.856,3.609v57
		c0,2.209,1.647,3.391,3.856,3.391h43c2.209,0,3.144-1.182,3.144-3.391V15.379C59.583,14.318,59.591,13.301,58.839,12.551z
		 M56.048,14.583h-8.465V7.17L56.048,14.583z M13.583,62.583v-56h32V16c0,0.553,1.282,0.583,1.834,0.583h8.166v46H13.583z"/>
	<path d="M21.417,22.583h10c0.552,0,1-0.447,1-1s-0.448-1-1-1h-10c-0.552,0-1,0.447-1,1S20.865,22.583,21.417,22.583z"/>
	<path d="M47.417,20.583h-12c-0.552,0-1,0.447-1,1s0.448,1,1,1h12c0.552,0,1-0.447,1-1S47.969,20.583,47.417,20.583z"/>
	<path d="M21.417,27.583h4c0.552,0,1-0.447,1-1s-0.448-1-1-1h-4c-0.552,0-1,0.447-1,1S20.865,27.583,21.417,27.583z"/>
	<path d="M28.417,26.583c0,0.553,0.448,1,1,1h7c0.552,0,1-0.447,1-1s-0.448-1-1-1h-7C28.865,25.583,28.417,26.03,28.417,26.583z"/>
	<path d="M21.417,32.583h8c0.552,0,1-0.447,1-1s-0.448-1-1-1h-8c-0.552,0-1,0.447-1,1S20.865,32.583,21.417,32.583z"/>
	<path d="M47.417,30.583h-14c-0.552,0-1,0.447-1,1s0.448,1,1,1h14c0.552,0,1-0.447,1-1S47.969,30.583,47.417,30.583z"/>
	<path d="M47.417,25.583h-6c-0.552,0-1,0.447-1,1s0.448,1,1,1h6c0.552,0,1-0.447,1-1S47.969,25.583,47.417,25.583z"/>
	<path d="M40.417,50.583h-7c-0.552,0-1,0.447-1,1s0.448,1,1,1h7c0.552,0,1-0.447,1-1S40.969,50.583,40.417,50.583z"/>
	<path d="M47.417,45.583h-7c-0.552,0-1,0.447-1,1s0.448,1,1,1h7c0.552,0,1-0.447,1-1S47.969,45.583,47.417,45.583z"/>
	<path d="M21.417,47.583h15c0.552,0,1-0.447,1-1s-0.448-1-1-1h-15c-0.552,0-1,0.447-1,1S20.865,47.583,21.417,47.583z"/>
	<path d="M28.417,50.583h-7c-0.552,0-1,0.447-1,1s0.448,1,1,1h7c0.552,0,1-0.447,1-1S28.969,50.583,28.417,50.583z"/>
	<path d="M21.417,37.583h6c0.552,0,1-0.447,1-1s-0.448-1-1-1h-6c-0.552,0-1,0.447-1,1S20.865,37.583,21.417,37.583z"/>
	<path d="M47.417,35.583h-16c-0.552,0-1,0.447-1,1s0.448,1,1,1h16c0.552,0,1-0.447,1-1S47.969,35.583,47.417,35.583z"/>
	<path d="M21.417,42.583h13c0.552,0,1-0.447,1-1s-0.448-1-1-1h-13c-0.552,0-1,0.447-1,1S20.865,42.583,21.417,42.583z"/>
	<path d="M47.417,40.583h-9c-0.552,0-1,0.447-1,1s0.448,1,1,1h9c0.552,0,1-0.447,1-1S47.969,40.583,47.417,40.583z"/>
</g>
</svg>
