<?xml version="1.0" encoding="utf-8"?>
<!-- Generator: Adobe Illustrator 16.0.0, SVG Export Plug-In . SVG Version: 6.00 Build 0)  -->
<!DOCTYPE svg PUBLIC "-//W3C//DTD SVG 1.1//EN" "http://www.w3.org/Graphics/SVG/1.1/DTD/svg11.dtd">
<svg version="1.1" id="Layer_1" xmlns="http://www.w3.org/2000/svg" xmlns:xlink="http://www.w3.org/1999/xlink" x="0px" y="0px"
	 width="70px" height="70px" viewBox="0 0 70 70" enable-background="new 0 0 70 70" xml:space="preserve">
<g>
	<path d="M43.053,20.184c-0.057-0.332-0.166-0.65-0.298-0.96l5.536-9.016c0.761-1.234,0.794-2.801,0.088-4.067
		c-0.707-1.266-2.043-2.057-3.492-2.057l-19.772-0.01c-1.45,0-2.786,0.784-3.493,2.05c-0.707,1.266-0.674,2.814,0.087,4.049
		l5.537,9.051c-0.131,0.31-0.241,0.629-0.298,0.961L21.172,53.95c-0.258,1.5,0.359,3.088,1.59,3.983l9.886,7.222
		c0.701,0.51,1.527,0.783,2.352,0.783s1.65-0.247,2.352-0.757l9.886-7.181c1.231-0.896,1.849-2.411,1.591-3.911L43.053,20.184z
		 M44.886,8.177l-5.199,8.467c-0.189-0.033-0.38-0.062-0.576-0.062h-8.22c-0.196,0-0.386,0.028-0.574,0.061l-5.202-8.502
		L44.886,8.177z M34.938,61.837l-9.854-7.407l5.637-32.858c0.057,0.002,0.112,0.012,0.169,0.012h8.133l5.739,32.949L34.938,61.837z"
		/>
	<path d="M32.058,29.571c-0.549-0.095-1.062,0.271-1.155,0.816l-2.566,14.936c-0.094,0.544,0.271,1.061,0.816,1.154
		c0.058,0.01,0.114,0.015,0.17,0.015c0.478,0,0.901-0.344,0.984-0.831l2.566-14.936C32.967,30.182,32.602,29.665,32.058,29.571z"/>
	<path d="M28.688,49.179c-0.543-0.096-1.061,0.271-1.154,0.816l-0.408,2.376c-0.093,0.544,0.272,1.062,0.817,1.154
		c0.057,0.01,0.114,0.015,0.17,0.015c0.478,0,0.901-0.344,0.984-0.831l0.408-2.376C29.599,49.789,29.233,49.271,28.688,49.179z"/>
</g>
</svg>
