<?xml version="1.0" encoding="utf-8"?>
<!-- Generator: Adobe Illustrator 16.0.0, SVG Export Plug-In . SVG Version: 6.00 Build 0)  -->
<!DOCTYPE svg PUBLIC "-//W3C//DTD SVG 1.1//EN" "http://www.w3.org/Graphics/SVG/1.1/DTD/svg11.dtd">
<svg version="1.1" id="Layer_1" xmlns="http://www.w3.org/2000/svg" xmlns:xlink="http://www.w3.org/1999/xlink" x="0px" y="0px"
	 width="70px" height="70px" viewBox="0 0 70 70" enable-background="new 0 0 70 70" xml:space="preserve">
<g>
	<path d="M43.683,3.944c-0.527-0.238-0.741-0.354-1.298-0.354c-0.957,0-1.849,0.046-2.594,0.702l-17.62,15.291h-9.968
		c-4.806,0-9.62,4.504-9.62,9.31v12.57c0,4.806,4.814,8.12,9.62,8.12h10.166l17.474,15.709c0.745,0.658,1.689,1.149,2.646,1.149
		c0.557,0,0.666-0.042,1.193-0.28c1.434-0.646,1.9-1.999,1.9-3.571v-55C45.583,6.018,45.116,4.591,43.683,3.944z M24.583,46.876
		V22.611l13-11.583v47.91l-13.032-11.9C24.56,46.982,24.583,46.934,24.583,46.876z M12.203,45.583c-2.604,0-5.62-1.517-5.62-4.12
		v-12.57c0-2.604,3.017-5.31,5.62-5.31h10.57c0.079,0-0.19-0.09-0.19-0.044v21.977c0-0.032,0.282,0.067,0.19,0.067H12.203z
		 M39.583,60.764V9.246l2-1.782V62.59L39.583,60.764z"/>
	<path d="M9.583,37.876c-0.553,0-1,0.447-1,1v2c0,0.553,0.447,1,1,1s1-0.447,1-1v-2C10.583,38.323,10.136,37.876,9.583,37.876z"/>
	<path d="M15.417,25.583H15.17c-2.828,0-6.587,1.169-6.587,4.536v5.757c0,0.553,0.447,1,1,1s1-0.447,1-1v-5.757
		c0-1.464,2.334-2.536,4.587-2.536h0.247c0.553,0,1-0.447,1-1S15.97,25.583,15.417,25.583z"/>
	<path d="M50.583,25.876c-1.104,0-2,0.896-2,2v13c0,1.104,0.896,2,2,2s2-0.896,2-2v-13C52.583,26.771,51.688,25.876,50.583,25.876z"
		/>
	<path d="M57.583,15.876c-1.104,0-2,0.896-2,2v33c0,1.104,0.896,2,2,2s2-0.896,2-2v-33C59.583,16.771,58.688,15.876,57.583,15.876z"
		/>
	<path d="M64.583,5.876c-1.104,0-2,0.896-2,2v53c0,1.104,0.896,2,2,2s2-0.896,2-2v-53C66.583,6.771,65.688,5.876,64.583,5.876z"/>
</g>
</svg>
