<?xml version="1.0" encoding="utf-8"?>
<!-- Generator: Adobe Illustrator 16.0.0, SVG Export Plug-In . SVG Version: 6.00 Build 0)  -->
<!DOCTYPE svg PUBLIC "-//W3C//DTD SVG 1.1//EN" "http://www.w3.org/Graphics/SVG/1.1/DTD/svg11.dtd">
<svg version="1.1" id="Layer_1" xmlns="http://www.w3.org/2000/svg" xmlns:xlink="http://www.w3.org/1999/xlink" x="0px" y="0px"
	 width="70px" height="70px" viewBox="0 0 70 70" enable-background="new 0 0 70 70" xml:space="preserve">
<g>
	<path d="M58.823,12.968l-9.983-8.7c-0.75-0.75-1.563-1.685-2.623-1.685H13.405c-2.209,0-3.822,1.817-3.822,4.026v57
		c0,2.209,2.613,2.974,4.822,2.974h42c2.209,0,3.179-0.765,3.179-2.974V15.796C59.583,14.735,59.573,13.718,58.823,12.968z
		 M56.047,14.583h-8.464V7.621L56.047,14.583z M55.583,62.583h-42v-56h32v8.834c0,0.553,0.282,1.166,0.834,1.166h9.166V62.583z"/>
	<path d="M41.402,38.94c-0.03-0.527-0.469-1.357-0.998-1.357h-10c-0.529,0-0.967,0.831-0.998,1.357l-0.948,17.265
		c-0.017,0.274-0.06,1.046,0.129,1.246c0.189,0.201,0.542,0.132,0.817,0.132h12c0.008,0,0.014,0,0.021,0c0.552,0,1-0.029,1-0.582
		c0-0.09-0.012-0.176-0.033-0.258L41.402,38.94z M30.465,55.583l0.883-16h8.114l0.882,16H30.465z"/>
	<path d="M37.583,50.469c0-0.489-0.397-0.886-0.886-0.886h-2.228c-0.489,0-0.886,0.396-0.886,0.886v2.229
		c0,0.489,0.397,0.886,0.886,0.886h2.228c0.489,0,0.886-0.396,0.886-0.886V50.469z M36.417,52.417h-2v-2h2V52.417z"/>
</g>
<path d="M29,33.583h4c0.552,0,0.583,0.137,0.583-0.416v-4.584H37c0.552,0,0.583,0.137,0.583-0.416v-4
	c0-0.553-0.031-1.584-0.583-1.584h-3.417v-3H37c0.552,0,0.583,0.137,0.583-0.416v-4c0-0.553-0.031-1.584-0.583-1.584h-4
	c-0.552,0-1.417,1.031-1.417,1.584v3.416H29c-0.552,0-1.417,1.031-1.417,1.584v4c0,0.553,0.865,0.416,1.417,0.416h2.583v3H29
	c-0.552,0-1.417,1.031-1.417,1.584v4C27.583,33.72,28.448,33.583,29,33.583z M34,16.167h2v2h-2V16.167z M36,27.167h-2v-2h2V27.167z
	 M30,21.167h2v2h-2V21.167z M30,30.167h2v2h-2V30.167z"/>
</svg>
