<?xml version="1.0" encoding="utf-8"?>
<!-- Generator: Adobe Illustrator 16.0.0, SVG Export Plug-In . SVG Version: 6.00 Build 0)  -->
<!DOCTYPE svg PUBLIC "-//W3C//DTD SVG 1.1//EN" "http://www.w3.org/Graphics/SVG/1.1/DTD/svg11.dtd">
<svg version="1.1" id="Layer_1" xmlns="http://www.w3.org/2000/svg" xmlns:xlink="http://www.w3.org/1999/xlink" x="0px" y="0px"
	 width="70px" height="70px" viewBox="0 0 70 70" enable-background="new 0 0 70 70" xml:space="preserve">
<g>
	<path d="M34.288,58.188c-0.18,0.189-0.29,0.439-0.29,0.711c0,0.26,0.11,0.52,0.29,0.709c0.19,0.18,0.45,0.291,0.71,0.291
		c0.261,0,0.521-0.111,0.711-0.291c0.18-0.189,0.289-0.449,0.289-0.709s-0.109-0.521-0.289-0.711
		C35.339,57.819,34.658,57.819,34.288,58.188z"/>
	<path d="M43.257,47.532c-0.309-0.178-0.502-0.178-0.811,0l-7.537,4.348l-7.581-4.348c-0.309-0.178-0.761-0.178-1.07,0
		c-0.311,0.178-0.676,0.508-0.676,0.865v9.623c0,0.357,0.363,0.688,0.673,0.867c0.154,0.088,0.517,0.133,0.69,0.133
		s0.33-0.045,0.484-0.133l7.497-4.334l7.503,4.334c0.154,0.088,0.326,0.133,0.499,0.133s0.173-0.045,0.327-0.133
		c0.309-0.18,0.326-0.51,0.326-0.867v-9.623C43.583,48.04,43.565,47.71,43.257,47.532z M27.583,56.288V50.13l5.333,3.08
		L27.583,56.288z M41.583,56.288l-5.316-3.047c0-0.01-0.014-0.02-0.014-0.031c0-0.01,0.023-0.02,0.022-0.029l5.308-3.051V56.288z"/>
	<path d="M34.982,35.398c8.375,0,13.5-11.978,13.5-18.5c0-7.444-6.056-13.5-13.5-13.5s-13.5,6.056-13.5,13.5
		C21.482,23.42,26.607,35.398,34.982,35.398z M34.982,31.398c-4.103,0-7.589-5.657-8.917-10.634
		c0.085-0.109,0.161-0.234,0.214-0.347l3.12-6.834h11.169l3.119,6.719c0.06,0.125,0.143,0.248,0.24,0.352
		C42.621,25.655,39.114,31.398,34.982,31.398z M34.982,7.398c5.246,0,9.5,4.254,9.5,9.5c0,0.155-0.016,0.325-0.023,0.486
		l-2.357-5.015c-0.166-0.347-0.518-0.786-0.902-0.786H28.766c-0.387,0-0.739,0.441-0.904,0.791l-2.35,5.131
		c-0.012-0.206-0.029-0.415-0.029-0.61C25.482,11.649,29.736,7.398,34.982,7.398z"/>
	<path d="M48.089,41.261c-0.649-0.408-1.388-0.6-2.128-0.6c-0.671,0-1.342,0.168-1.949,0.508c-2.724,1.52-5.84,2.322-9.012,2.322
		c-3.171,0-6.288-0.803-9.014-2.322c-0.606-0.338-1.277-0.506-1.947-0.506c-0.739,0-1.479,0.205-2.127,0.613
		C15.589,45.247,11,54.202,11,62.622c0,2.209,1.791,3.961,4,3.961h40c2.209,0,4-1.752,4-3.961
		C59,54.202,54.411,45.233,48.089,41.261z M15,62.583c0-7,3.597-14.541,9.039-17.959c3.221,1.795,6.964,2.833,10.961,2.833
		s7.74-1.04,10.961-2.837C51.403,48.04,55,55.583,55,62.583H15z"/>
</g>
</svg>
