<?xml version="1.0" encoding="utf-8"?>
<!-- Generator: Adobe Illustrator 16.0.0, SVG Export Plug-In . SVG Version: 6.00 Build 0)  -->
<!DOCTYPE svg PUBLIC "-//W3C//DTD SVG 1.1//EN" "http://www.w3.org/Graphics/SVG/1.1/DTD/svg11.dtd">
<svg version="1.1" id="Layer_1" xmlns="http://www.w3.org/2000/svg" xmlns:xlink="http://www.w3.org/1999/xlink" x="0px" y="0px"
	 width="70px" height="70px" viewBox="0 0 70 70" enable-background="new 0 0 70 70" xml:space="preserve">
<g>
	<path d="M59.427,2.583h-48c-2.209,0-4.844,2.305-4.844,4.514v56c0,2.209,2.635,3.486,4.844,3.486h48
		c2.209,0,3.156-1.277,3.156-3.486v-56C62.583,4.888,61.636,2.583,59.427,2.583z M58.583,62.583h-48v-56h48V62.583z"/>
	<path d="M54.583,11.583c0-0.552-0.447-1-1-1h-39c-0.552,0-1,0.448-1,1v12c0,0.552,0.448,1,1,1h39c0.553,0,1-0.448,1-1V11.583z
		 M15.583,12.583h37v10h-37V12.583z"/>
	<path d="M21.583,28.583c0-0.552-0.448-1-1-1h-6c-0.552,0-1,0.448-1,1v4c0,0.552,0.448,1,1,1h6c0.552,0,1-0.448,1-1V28.583z
		 M15.583,29.583h4v2h-4V29.583z"/>
	<path d="M32.583,28.583c0-0.552-0.448-1-1-1h-6c-0.552,0-1,0.448-1,1v4c0,0.552,0.448,1,1,1h6c0.552,0,1-0.448,1-1V28.583z
		 M30.583,31.583h-4v-2h4V31.583z"/>
	<path d="M43.583,28.583c0-0.552-0.447-1-1-1h-6c-0.552,0-1,0.448-1,1v4c0,0.552,0.448,1,1,1h6c0.553,0,1-0.448,1-1V28.583z
		 M41.583,31.583h-4v-2h4V31.583z"/>
	<path d="M54.583,28.583c0-0.552-0.447-1-1-1h-6c-0.553,0-1,0.448-1,1v4c0,0.552,0.447,1,1,1h6c0.553,0,1-0.448,1-1V28.583z
		 M52.583,31.583h-4v-2h4V31.583z"/>
	<path d="M21.583,36.583c0-0.552-0.448-1-1-1h-6c-0.552,0-1,0.448-1,1v4c0,0.553,0.448,1,1,1h6c0.552,0,1-0.447,1-1V36.583z
		 M15.583,37.583h4v2h-4V37.583z"/>
	<path d="M32.583,36.583c0-0.552-0.448-1-1-1h-6c-0.552,0-1,0.448-1,1v4c0,0.553,0.448,1,1,1h6c0.552,0,1-0.447,1-1V36.583z
		 M30.583,39.583h-4v-2h4V39.583z"/>
	<path d="M43.583,36.583c0-0.552-0.447-1-1-1h-6c-0.552,0-1,0.448-1,1v4c0,0.553,0.448,1,1,1h6c0.553,0,1-0.447,1-1V36.583z
		 M41.583,39.583h-4v-2h4V39.583z"/>
	<path d="M54.583,36.583c0-0.552-0.447-1-1-1h-6c-0.553,0-1,0.448-1,1v4c0,0.553,0.447,1,1,1h6c0.553,0,1-0.447,1-1V36.583z
		 M52.583,39.583h-4v-2h4V39.583z"/>
	<path d="M21.583,44.583c0-0.553-0.448-1-1-1h-6c-0.552,0-1,0.447-1,1v4c0,0.553,0.448,1,1,1h6c0.552,0,1-0.447,1-1V44.583z
		 M15.583,45.583h4v2h-4V45.583z"/>
	<path d="M32.583,44.583c0-0.553-0.448-1-1-1h-6c-0.552,0-1,0.447-1,1v4c0,0.553,0.448,1,1,1h6c0.552,0,1-0.447,1-1V44.583z
		 M30.583,47.583h-4v-2h4V47.583z"/>
	<path d="M43.583,44.583c0-0.553-0.447-1-1-1h-6c-0.552,0-1,0.447-1,1v4c0,0.553,0.448,1,1,1h6c0.553,0,1-0.447,1-1V44.583z
		 M41.583,47.583h-4v-2h4V47.583z"/>
	<path d="M54.583,44.583c0-0.553-0.447-1-1-1h-6c-0.553,0-1,0.447-1,1v12c0,0.553,0.447,1,1,1h6c0.553,0,1-0.447,1-1V44.583z
		 M52.583,55.583h-4v-10h4V55.583z"/>
	<path d="M21.583,52.583c0-0.553-0.448-1-1-1h-6c-0.552,0-1,0.447-1,1v4c0,0.553,0.448,1,1,1h6c0.552,0,1-0.447,1-1V52.583z
		 M15.583,53.583h4v2h-4V53.583z"/>
	<path d="M32.583,52.583c0-0.553-0.448-1-1-1h-6c-0.552,0-1,0.447-1,1v4c0,0.553,0.448,1,1,1h6c0.552,0,1-0.447,1-1V52.583z
		 M30.583,55.583h-4v-2h4V55.583z"/>
	<path d="M43.583,52.583c0-0.553-0.447-1-1-1h-6c-0.552,0-1,0.447-1,1v4c0,0.553,0.448,1,1,1h6c0.553,0,1-0.447,1-1V52.583z
		 M41.583,55.583h-4v-2h4V55.583z"/>
	<path d="M23,13.583h-5c-0.553,0-1.417,1.281-1.417,1.834v3c0,0.553,0.447,1,1,1s1-0.447,1-1v-2.834H23c0.553,0,1-0.447,1-1
		S23.553,13.583,23,13.583z"/>
</g>
</svg>
