<?xml version="1.0" encoding="utf-8"?>
<!-- Generator: Adobe Illustrator 16.0.0, SVG Export Plug-In . SVG Version: 6.00 Build 0)  -->
<!DOCTYPE svg PUBLIC "-//W3C//DTD SVG 1.1//EN" "http://www.w3.org/Graphics/SVG/1.1/DTD/svg11.dtd">
<svg version="1.1" id="Layer_1" xmlns="http://www.w3.org/2000/svg" xmlns:xlink="http://www.w3.org/1999/xlink" x="0px" y="0px"
	 width="70px" height="70px" viewBox="0 0 70 70" enable-background="new 0 0 70 70" xml:space="preserve">
<g>
	<path d="M63.903,8.583h-10.32V6.208c0-1.104-0.896-2-2-2s-2,0.896-2,2v2.375h-5V6.208c0-1.104-0.896-2-2-2s-2,0.896-2,2v2.375h-5
		V6.208c0-1.104-0.896-2-2-2s-2,0.896-2,2v2.375h-5V6.208c0-1.104-0.896-2-2-2s-2,0.896-2,2v2.375h-5V6.208c0-1.104-0.896-2-2-2
		s-2,0.896-2,2v2.375h-5.68c-2.209,0-5.32,2.66-5.32,4.869v49c0,2.209,3.111,3.131,5.32,3.131h56c2.209,0,2.68-0.922,2.68-3.131v-49
		C66.583,11.243,66.112,8.583,63.903,8.583z M13.583,12.583v2.625c0,1.104,0.896,2,2,2s2-0.896,2-2v-2.625h5v2.625
		c0,1.104,0.896,2,2,2s2-0.896,2-2v-2.625h5v2.625c0,1.104,0.896,2,2,2s2-0.896,2-2v-2.625h5v2.625c0,1.104,0.896,2,2,2s2-0.896,2-2
		v-2.625h5v2.625c0,1.104,0.896,2,2,2s2-0.896,2-2v-2.625h9v10h-56v-10H13.583z M6.583,61.583v-37h56v37H6.583z"/>
	<path d="M30.423,41.918c2.453-1.484,5-2.997,5-6.253c0-2.947-2.178-4.836-5.338-4.836c-3.23,0-5.502,2.215-5.502,5.516v0.238h2.279
		c0.047-2,0.754-4.093,3.254-4.093c1.91,0,3.231,1.351,3.231,3.213c0,2.429-2.193,3.687-3.985,4.819
		c-2.901,1.816-4.766,3.061-4.977,7.061h10.197v-2h-7.887C27.146,43.583,28.89,42.838,30.423,41.918z"/>
	<path d="M48.583,30.583h-11v2h9.168c-3.539,4-6.181,9-6.557,15h2.216c0.685-7,3.173-11.025,6.173-14.704V30.583z"/>
	<path d="M58.583,49.208c-0.553,0-1,0.449-1,1v7.375h-5.166c-0.553,0-1,0.447-1,1s0.447,1,1,1h7c0.553,0,0.166,0.178,0.166-0.375v-9
		C59.583,49.657,59.136,49.208,58.583,49.208z"/>
	<path d="M48.417,57.583h-2c-0.553,0-1,0.447-1,1s0.447,1,1,1h2c0.553,0,1-0.447,1-1S48.97,57.583,48.417,57.583z"/>
</g>
</svg>
