<?xml version="1.0" encoding="utf-8"?>
<!-- Generator: Adobe Illustrator 16.0.0, SVG Export Plug-In . SVG Version: 6.00 Build 0)  -->
<!DOCTYPE svg PUBLIC "-//W3C//DTD SVG 1.1//EN" "http://www.w3.org/Graphics/SVG/1.1/DTD/svg11.dtd">
<svg version="1.1" id="Layer_1" xmlns="http://www.w3.org/2000/svg" xmlns:xlink="http://www.w3.org/1999/xlink" x="0px" y="0px"
	 width="70px" height="70px" viewBox="0 0 70 70" enable-background="new 0 0 70 70" xml:space="preserve">
<g>
	<path d="M61.987,13.583H51.526l-3.541-6.026c-0.719-1.223-2.031-1.974-3.449-1.974H23.438c-1.396,0-2.691,0.729-3.417,1.921
		l-3.698,6.079H5.988c-2.209,0-4.405,1.888-4.405,4.097v38c0,2.209,2.196,3.903,4.405,3.903h56c2.209,0,3.596-1.694,3.596-3.903v-38
		C65.583,15.471,64.196,13.583,61.987,13.583z M5.583,29.583h14.636c-0.938,2-1.479,4.177-1.479,6.506
		c0,1.938,0.378,4.494,1.041,5.494H5.583V29.583z M61.583,55.583h-56v-12h15.143c2.622,5,7.58,7.752,13.262,7.752
		c5.683,0,10.64-2.752,13.262-7.752h14.333V55.583z M20.741,36.506c0-7.305,5.942-13.247,13.247-13.247
		c7.304,0,13.248,5.942,13.248,13.247c0,7.304-5.943,13.246-13.248,13.246C26.683,49.752,20.741,43.81,20.741,36.506z
		 M61.583,41.583H48.194c0.662-1,1.041-3.556,1.041-5.494c0-2.329-0.541-4.506-1.479-6.506h13.826V41.583z M61.583,27.583H46.494
		c-0.115,0,0.284,0.238,0.181,0.274c-2.736-4.099-7.399-6.703-12.687-6.703c-5.286,0-9.84,2.39-12.576,6.486
		c-0.097-0.032-0.304-0.058-0.412-0.058H5.583v-10h12.989l4.867-8h21.098l4.701,8h12.346V27.583z"/>
	<path d="M30.867,27.743c0.101,0,0.203-0.015,0.304-0.048c0.907-0.289,1.855-0.437,2.816-0.437c0.552,0,1-0.447,1-1s-0.448-1-1-1
		c-1.168,0-2.321,0.179-3.425,0.532c-0.526,0.168-0.816,0.73-0.648,1.257C30.05,27.473,30.443,27.743,30.867,27.743z"/>
	<path d="M25.524,40.237c-0.52-1.179-0.783-2.434-0.783-3.731c0-2.748,1.21-5.335,3.319-7.098c0.424-0.354,0.48-0.985,0.126-1.409
		c-0.354-0.423-0.985-0.479-1.409-0.126c-2.566,2.145-4.037,5.29-4.037,8.633c0,1.577,0.321,3.104,0.953,4.538
		c0.165,0.374,0.531,0.597,0.916,0.597c0.135,0,0.272-0.027,0.403-0.085C25.518,41.333,25.747,40.742,25.524,40.237z"/>
	<path d="M27.194,11.554c-0.464-0.299-1.082-0.163-1.382,0.302l-0.938,1.461c-0.298,0.465-0.163,1.083,0.302,1.382
		c0.167,0.107,0.354,0.158,0.539,0.158c0.329,0,0.651-0.162,0.843-0.46l0.938-1.461C27.794,12.471,27.659,11.853,27.194,11.554z"/>
	<path d="M23.751,16.704c-0.465-0.3-1.084-0.374-1.382,0.091l-1.928,2.788H11c-0.552,0-1,0.447-1,1s0.448,1,1,1h9.988
		c0.34,0,0.657,0.036,0.841-0.25l2.223-3.351C24.35,17.517,24.216,17.003,23.751,16.704z"/>
</g>
</svg>
