<?xml version="1.0" encoding="utf-8"?>
<!-- Generator: Adobe Illustrator 16.0.0, SVG Export Plug-In . SVG Version: 6.00 Build 0)  -->
<!DOCTYPE svg PUBLIC "-//W3C//DTD SVG 1.1//EN" "http://www.w3.org/Graphics/SVG/1.1/DTD/svg11.dtd">
<svg version="1.1" id="Layer_1" xmlns="http://www.w3.org/2000/svg" xmlns:xlink="http://www.w3.org/1999/xlink" x="0px" y="0px"
	 width="70px" height="70px" viewBox="0 0 70 70" enable-background="new 0 0 70 70" xml:space="preserve">
<g>
	<path d="M66.134,29.025c-0.759-0.956-1.913-1.442-3.134-1.442h-0.977c-0.306-1-1.038-2.941-2.137-3.994
		c-1.438-1.38-3.335-2.127-5.322-2.105c-3.633,0.078-6.607,3.1-7.193,6.1h-3.188l4.542-15.368c0.01-0.033,0.02-0.124,0.027-0.158
		c0.367-1.525,0.112-3.131-0.72-4.47c-0.854-1.376-2.208-2.348-3.812-2.71c-3.238-0.73-6.497,1.238-7.237,4.308l-2.305,7.813
		c-2.108-1.654-4.715-2.46-7.405-2.268c-2.864,0.211-5.474,1.637-7.35,3.811c-2.163,2.505-2.998,6.043-2.42,9.043H7
		c-1.221,0-2.375,0.501-3.133,1.457s-1.04,2.177-0.762,3.366l7,30.043c0.422,1.81,2.037,3.134,3.896,3.134h42
		c1.859,0,3.473-1.338,3.896-3.148l7-29.972C67.173,31.273,66.893,29.981,66.134,29.025z M54.65,25.603
		c0.918-0.044,1.802,0.375,2.47,1.014c0.278,0.267,0.493,0.966,0.666,0.966h-6.271C52.02,26.583,53.227,25.632,54.65,25.603z
		 M40.846,10.326c0.255-1.054,1.378-1.752,2.492-1.507c0.551,0.125,1.011,0.419,1.297,0.878c0.254,0.41,0.338,0.988,0.238,1.451
		l-4.864,16.435h-4.215L40.846,10.326z M22.952,21.152c1.178-1.365,2.817-2.247,4.615-2.379c1.801-0.137,3.54,0.416,4.904,1.594
		c0.317,0.273,0.695,0.528,1.083,0.572l-1.93,6.644H21.597C20.946,25.583,21.431,22.914,22.952,21.152z M62.791,31.583l-0.905,4
		H7.933l-0.933-4H62.791z M56,61.583H14l-5.6-24h53.033L56,61.583z"/>
	<path d="M22.835,42.979c-0.544,0.091-0.913,0.607-0.822,1.151l2,12c0.082,0.489,0.505,0.836,0.985,0.836
		c0.054,0,0.11-0.004,0.166-0.014c0.544-0.091,0.912-0.606,0.822-1.15l-2-12C23.895,43.258,23.383,42.885,22.835,42.979z"/>
	<path d="M47.164,42.979c-0.548-0.097-1.061,0.277-1.15,0.823l-2,12c-0.091,0.544,0.277,1.06,0.822,1.15
		c0.056,0.01,0.11,0.014,0.165,0.014c0.48,0,0.904-0.347,0.985-0.836l2-12C48.077,43.587,47.709,43.07,47.164,42.979z"/>
	<path d="M33.583,42.773c-0.552,0-1,0.447-1,1.001v12c0,0.553,0.448,1,1,1s1-0.447,1-1v-12
		C34.583,43.221,34.135,42.773,33.583,42.773z"/>
</g>
</svg>
