<?xml version="1.0" encoding="utf-8"?>
<!-- Generator: Adobe Illustrator 16.0.0, SVG Export Plug-In . SVG Version: 6.00 Build 0)  -->
<!DOCTYPE svg PUBLIC "-//W3C//DTD SVG 1.1//EN" "http://www.w3.org/Graphics/SVG/1.1/DTD/svg11.dtd">
<svg version="1.1" id="Layer_1" xmlns="http://www.w3.org/2000/svg" xmlns:xlink="http://www.w3.org/1999/xlink" x="0px" y="0px"
	 width="70px" height="70px" viewBox="0 0 70 70" enable-background="new 0 0 70 70" xml:space="preserve">
<g>
	<g>
		<path d="M62.583,23.583v24h-56v-24H62.583 M63.344,19.583h-56c-2.209,0-4.761,2.467-4.761,4.676v24
			c0,2.209,2.552,3.324,4.761,3.324h56c2.209,0,3.239-1.115,3.239-3.324v-24c0-2.209-1.238-4.676-3.447-4.676H63.344z"/>
	</g>
	<g>
		<path d="M56.583,17.417c-1.104,0-2-0.896-2-2v-4.834h-42v4.834c0,1.104-0.896,2-2,2s-2-0.896-2-2V8.638
			c0-1.104,0.625-2.055,1.729-2.055h47.104c1.104,0,1.166,1.729,1.166,2.834v6C58.583,16.521,57.688,17.417,56.583,17.417z"/>
	</g>
	<g>
		<path d="M57.417,62.583h-46c-1.104,0-2.834-0.062-2.834-1.166v-6c0-1.104,0.896-2,2-2s2,0.896,2,2v3.166h42v-3.166
			c0-1.104,0.896-2,2-2s2,0.896,2,2v6C58.583,62.521,58.521,62.583,57.417,62.583z"/>
	</g>
	<g>
		<path d="M8.583,37.417c-0.552,0-1-0.447-1-1v-10c0-0.553,1.282-1.834,1.834-1.834h8c0.552,0,1,0.447,1,1s-0.448,1-1,1H9.583v9.834
			C9.583,36.97,9.135,37.417,8.583,37.417z"/>
	</g>
	<g>
		<path d="M58.417,44.583h-3c-0.552,0-1-0.447-1-1s0.448-1,1-1h2.166v-3.166c0-0.553,0.448-1,1-1s1,0.447,1,1v4
			C59.583,43.97,59.583,44.583,58.417,44.583z"/>
	</g>
	<g>
		<path d="M8.583,43.417c-0.552,0-1-0.447-1-1v-2c0-0.553,0.448-1,1-1s1,0.447,1,1v2C9.583,42.97,9.135,43.417,8.583,43.417z"/>
	</g>
	<g>
		<path d="M28.617,43.191c-4.046,0-6.627-3.045-6.627-6.962c0-3.879,2.691-6.903,6.701-6.903c3.229,0,5.81,2.245,5.995,5.215h-3.935
			c-0.224-1.188-0.984-1.855-2.135-1.855c-1.912,0-2.543,1.912-2.543,3.544c0,2.189,0.965,3.546,2.543,3.546
			c1.188,0,1.93-0.742,2.135-2.116h3.99C34.501,41.315,31.828,43.191,28.617,43.191z"/>
		<path d="M42.713,43.191c-4.047,0-6.627-3.045-6.627-6.962c0-3.879,2.691-6.903,6.701-6.903c3.229,0,5.81,2.245,5.995,5.215h-3.935
			c-0.224-1.188-0.984-1.855-2.135-1.855c-1.912,0-2.543,1.912-2.543,3.544c0,2.189,0.965,3.546,2.543,3.546
			c1.188,0,1.93-0.742,2.135-2.116h3.99C48.597,41.315,45.924,43.191,42.713,43.191z"/>
	</g>
</g>
</svg>
