<?xml version="1.0" encoding="utf-8"?>
<!-- Generator: Adobe Illustrator 16.0.0, SVG Export Plug-In . SVG Version: 6.00 Build 0)  -->
<!DOCTYPE svg PUBLIC "-//W3C//DTD SVG 1.1//EN" "http://www.w3.org/Graphics/SVG/1.1/DTD/svg11.dtd">
<svg version="1.1" id="Layer_1" xmlns="http://www.w3.org/2000/svg" xmlns:xlink="http://www.w3.org/1999/xlink" x="0px" y="0px"
	 width="70px" height="70px" viewBox="0 0 70 70" enable-background="new 0 0 70 70" xml:space="preserve">
<g>
	<path d="M35,3C17.354,3,3,17.355,3,35s14.354,32,32,32c17.645,0,32-14.355,32-32S52.645,3,35,3z M35,63C19.535,63,7,50.467,7,35
		C7,19.535,19.535,7,35,7s28,12.535,28,28C63,50.467,50.465,63,35,63z"/>
	<path d="M26.758,11.977c-0.207-0.512-0.79-0.759-1.302-0.551c-2.668,1.081-5.12,2.601-7.286,4.517
		c-0.414,0.365-0.453,0.998-0.087,1.411c0.197,0.224,0.473,0.338,0.749,0.338c0.235,0,0.472-0.083,0.662-0.251
		c1.996-1.765,4.255-3.165,6.713-4.161C26.719,13.072,26.966,12.488,26.758,11.977z"/>
	<path d="M14.584,19.842c-0.569,0.766-1.099,1.568-1.573,2.384c-0.277,0.478-0.116,1.09,0.361,1.367
		c0.158,0.092,0.331,0.136,0.502,0.136c0.345,0,0.68-0.178,0.865-0.497c0.438-0.752,0.926-1.49,1.45-2.196
		c0.329-0.443,0.236-1.07-0.207-1.399C15.54,19.307,14.914,19.399,14.584,19.842z"/>
	<path d="M50.506,52.56c-1.997,1.765-4.256,3.165-6.714,4.161c-0.512,0.207-0.758,0.791-0.551,1.303
		c0.157,0.389,0.532,0.624,0.927,0.624c0.125,0,0.253-0.023,0.376-0.073c2.668-1.081,5.12-2.601,7.286-4.517
		c0.414-0.365,0.453-0.998,0.087-1.411C51.552,52.232,50.92,52.194,50.506,52.56z"/>
	<path d="M56.627,46.407c-0.477-0.277-1.089-0.117-1.367,0.361c-0.437,0.751-0.924,1.489-1.449,2.196
		c-0.329,0.443-0.237,1.07,0.206,1.399c0.18,0.133,0.389,0.197,0.596,0.197c0.306,0,0.607-0.14,0.804-0.403
		c0.569-0.767,1.099-1.569,1.572-2.384C57.267,47.297,57.104,46.685,56.627,46.407z"/>
	<path d="M40.373,35.529l6.452-10.743c0.235-0.393,0.175-0.896-0.148-1.22c-0.324-0.325-0.825-0.387-1.22-0.155l-10.779,6.399
		c-0.029,0.017-0.045,0.045-0.072,0.064c-1.188,0.127-2.293,0.626-3.149,1.482c-0.817,0.817-1.311,1.861-1.467,2.986l-6.815,11.349
		c-0.236,0.393-0.175,0.896,0.148,1.22c0.192,0.194,0.449,0.295,0.709,0.295c0.175,0,0.352-0.046,0.511-0.141l11.313-6.718
		c0.048-0.028,0.078-0.073,0.12-0.108c1.094-0.169,2.107-0.661,2.905-1.458C39.763,37.901,40.267,36.756,40.373,35.529z
		 M39.787,32.621c-0.242-0.456-0.531-0.889-0.906-1.264c-0.39-0.39-0.841-0.688-1.317-0.934l5.505-3.268L39.787,32.621z
		 M30.487,37.4c0.25,0.501,0.562,0.975,0.97,1.382c0.423,0.423,0.915,0.746,1.438,0.999l-5.966,3.542L30.487,37.4z M35.169,38.319
		c-0.832,0-1.664-0.317-2.298-0.951c-1.27-1.269-1.27-3.327,0-4.597c0.634-0.635,1.466-0.951,2.298-0.951
		c0.831,0,1.663,0.316,2.298,0.951c0.623,0.623,0.936,1.435,0.947,2.25c-0.025,0.104-0.029,0.206-0.02,0.311
		c-0.06,0.742-0.359,1.469-0.927,2.036C36.832,38.002,36,38.319,35.169,38.319z"/>
</g>
</svg>
