<?xml version="1.0" encoding="utf-8"?>
<!-- Generator: Adobe Illustrator 16.0.0, SVG Export Plug-In . SVG Version: 6.00 Build 0)  -->
<!DOCTYPE svg PUBLIC "-//W3C//DTD SVG 1.1//EN" "http://www.w3.org/Graphics/SVG/1.1/DTD/svg11.dtd">
<svg version="1.1" id="Layer_1" xmlns="http://www.w3.org/2000/svg" xmlns:xlink="http://www.w3.org/1999/xlink" x="0px" y="0px"
	 width="70px" height="70px" viewBox="0 0 70 70" enable-background="new 0 0 70 70" xml:space="preserve">
<g>
	<path d="M64.583,23.583c1.104,0,2-0.896,2-2v-17c0-1.104-0.896-2-2-2h-18c-1.104,0-2,0.896-2,2v6h-20v-6c0-1.104-0.896-2-2-2h-18
		c-1.104,0-2,0.896-2,2v17c0,1.104,0.896,2,2,2h6v22h-6c-1.104,0-2,0.896-2,2v17c0,1.104,0.896,2,2,2h18c1.104,0,2-0.896,2-2v-6h20
		v6c0,1.104,0.896,2,2,2h18c1.104,0,2-0.896,2-2v-17c0-1.104-0.896-2-2-2h-7v-22H64.583z M62.583,6.583v13h-14v-13H62.583z
		 M6.583,6.583h14v13h-14V6.583z M20.583,62.583h-14v-13h14V62.583z M62.583,62.583h-14v-13h14V62.583z M53.583,45.583h-6.485
		c0.354-0.393,0.352-0.994-0.027-1.373l-1.417-1.417c-0.391-0.391-1.023-0.391-1.414,0s-0.391,1.023,0,1.414l1.417,1.417
		c0.049,0.049,0.11,0.074,0.166,0.11c-0.727,0.3-1.239,1.014-1.239,1.849v7h-20v-5.161c0.192-0.035,0.379-0.109,0.527-0.258
		l0.707-0.707c0.391-0.391,0.391-1.023,0-1.414c-0.367-0.367-0.941-0.376-1.334-0.053c-0.254-0.813-1.004-1.407-1.9-1.407h-8v-22h8
		c0.329,0,0.635-0.087,0.908-0.228c0.049,0.111,0.114,0.217,0.205,0.309l0.707,0.707c0.195,0.195,0.451,0.293,0.707,0.293
		s0.512-0.098,0.707-0.293c0.391-0.391,0.391-1.023,0-1.414L25.11,22.25c-0.159-0.159-0.361-0.236-0.568-0.266
		c0.026-0.13,0.041-0.264,0.041-0.401v-7h20v7c0,1.104,0.896,2,2,2h1.629c-0.023,0.283,0.061,0.572,0.277,0.788
		c0.195,0.195,0.451,0.293,0.707,0.293s0.512-0.098,0.707-0.293l0.707-0.707c0.023-0.024,0.033-0.056,0.054-0.081h2.919V45.583z"/>
	<path d="M41.405,30.041l-1.417,1.417c-0.391,0.391-0.391,1.023,0,1.414c0.195,0.195,0.451,0.293,0.707,0.293
		s0.512-0.098,0.707-0.293l1.417-1.417c0.391-0.391,0.391-1.023,0-1.414S41.796,29.65,41.405,30.041z"/>
	<path d="M28.654,42.792l-1.417,1.417c-0.391,0.391-0.391,1.023,0,1.414c0.195,0.195,0.451,0.293,0.707,0.293
		s0.512-0.098,0.707-0.293l1.417-1.417c0.391-0.391,0.391-1.023,0-1.414S29.045,42.401,28.654,42.792z"/>
	<path d="M45.656,25.79l-1.417,1.417c-0.391,0.391-0.391,1.023,0,1.414c0.195,0.195,0.451,0.293,0.707,0.293
		s0.512-0.098,0.707-0.293l1.417-1.417c0.391-0.391,0.391-1.023,0-1.414S46.047,25.399,45.656,25.79z"/>
	<path d="M32.904,38.542l-1.417,1.417c-0.391,0.391-0.391,1.023,0,1.414c0.195,0.195,0.451,0.293,0.707,0.293
		s0.512-0.098,0.707-0.293l1.417-1.417c0.391-0.391,0.391-1.023,0-1.414S33.295,38.151,32.904,38.542z"/>
	<path d="M38.569,34.291c-0.391-0.391-1.023-0.391-1.414,0l-0.002,0.002l-0.001-0.001c-0.391-0.391-1.023-0.391-1.414,0
		s-0.391,1.023,0,1.414l0.001,0.001l-0.001,0.001c-0.391,0.391-0.391,1.023,0,1.414c0.195,0.195,0.451,0.293,0.707,0.293
		s0.512-0.098,0.707-0.293l0.001-0.001l0.002,0.002c0.195,0.195,0.451,0.293,0.707,0.293s0.512-0.098,0.707-0.293
		c0.391-0.391,0.391-1.023,0-1.414l-0.002-0.002l0.002-0.002C38.96,35.314,38.96,34.682,38.569,34.291z"/>
	<path d="M41.402,38.542c-0.391-0.391-1.023-0.391-1.414,0s-0.391,1.023,0,1.414l1.417,1.417c0.195,0.195,0.451,0.293,0.707,0.293
		s0.512-0.098,0.707-0.293c0.391-0.391,0.391-1.023,0-1.414L41.402,38.542z"/>
	<path d="M32.901,30.041c-0.391-0.391-1.023-0.391-1.414,0s-0.391,1.023,0,1.414l1.417,1.417c0.195,0.195,0.451,0.293,0.707,0.293
		s0.512-0.098,0.707-0.293c0.391-0.391,0.391-1.023,0-1.414L32.901,30.041z"/>
	<path d="M28.651,25.791c-0.391-0.391-1.023-0.391-1.414,0s-0.391,1.023,0,1.414l1.417,1.417c0.195,0.195,0.451,0.293,0.707,0.293
		s0.512-0.098,0.707-0.293c0.391-0.391,0.391-1.023,0-1.414L28.651,25.791z"/>
</g>
</svg>
