<?xml version="1.0" encoding="utf-8"?>
<!-- Generator: Adobe Illustrator 16.0.0, SVG Export Plug-In . SVG Version: 6.00 Build 0)  -->
<!DOCTYPE svg PUBLIC "-//W3C//DTD SVG 1.1//EN" "http://www.w3.org/Graphics/SVG/1.1/DTD/svg11.dtd">
<svg version="1.1" id="Layer_1" xmlns="http://www.w3.org/2000/svg" xmlns:xlink="http://www.w3.org/1999/xlink" x="0px" y="0px"
	 width="70px" height="70px" viewBox="0 0 70 70" enable-background="new 0 0 70 70" xml:space="preserve">
<g>
	<path d="M26.708,40.38c-2.729-1.785-4.23-4.543-4.23-7.767c0-0.553-0.447-1-1-1s-1,0.447-1,1c0,3.921,1.823,7.273,5.135,9.44
		c0.169,0.11,0.359,0.163,0.547,0.163c0.326,0,0.646-0.159,0.838-0.452C27.3,41.302,27.17,40.683,26.708,40.38z"/>
	<path d="M32.12,42.131c-0.449,0-0.902-0.038-1.349-0.097c-0.555-0.079-1.05,0.296-1.121,0.844
		c-0.072,0.547,0.313,0.807,0.861,0.879c0.531,0.07,1.072-0.174,1.608-0.174h0.046c0.553,0,0.978-0.174,0.978-0.727
		S32.673,42.131,32.12,42.131z"/>
	<path d="M63.413,14.708c-1.549-1.545-3.83-1.704-6.83-1.707v-6.77c0-2.209-0.896-4.648-3.105-4.648h-36
		c-2.209,0-4.895,2.439-4.895,4.648v6.771c-2,0.011-5.285,0.198-6.834,1.741c-0.531,0.531-1.166,1.639-1.166,3.139v6.595
		c0,3.623,3.774,9.131,8.47,9.312c1.961,9.13,10.53,16.25,19.53,17.117v6.677h0.128c-3.506,0-6.149,2.479-6.149,5.767
		c0,0.08,0.015,0.233,0.023,0.233h-9.168c-1.104,0-2,0.896-2,2s0.896,2,2,2h37c1.104,0,2-0.896,2-2s-0.896-2-2-2H44.39
		c0,0,0.004-0.027,0.004-0.041c0-3.342-2.701-5.959-6.149-5.959h-1.661v-6.667c10-0.818,17.584-7.956,19.534-17.12
		c4.839-0.105,8.466-5.685,8.466-9.318v-6.595C64.583,16.355,63.947,15.24,63.413,14.708z M40.394,63.542
		c0,0.014,0.004,0.041,0.004,0.041h-9.859c0.009,0,0.023-0.153,0.023-0.233c0-1.304,1.158-1.767,2.149-1.767h5.533
		C39.313,61.583,40.394,62.256,40.394,63.542z M16.583,16.583h36v8h-36V16.583z M52.583,5.583v9h-36v-9H52.583z M8.583,24.478
		v-6.595c0-0.095,0.01-0.31,0.005-0.318c0.461-0.39,2.995-0.543,3.995-0.561V29.38c0,0.106,0.007,0.211,0.008,0.316
		C10.537,29.112,8.583,26.152,8.583,24.478z M35.555,46.583h-0.153c-9.899,0-18.818-7.579-18.818-17.203v-2.797h36v2.797
		C52.583,39.004,45.453,46.583,35.555,46.583z M60.583,24.478c0,1.698-1.967,4.72-4.009,5.242c0.002-0.114,0.009-0.226,0.009-0.34
		V17.001c2,0.005,3.575,0.155,3.976,0.496c0,0,0.024,0.223,0.024,0.386V24.478z"/>
</g>
</svg>
