<?xml version="1.0" encoding="utf-8"?>
<!-- Generator: Adobe Illustrator 16.0.0, SVG Export Plug-In . SVG Version: 6.00 Build 0)  -->
<!DOCTYPE svg PUBLIC "-//W3C//DTD SVG 1.1//EN" "http://www.w3.org/Graphics/SVG/1.1/DTD/svg11.dtd">
<svg version="1.1" id="Layer_1" xmlns="http://www.w3.org/2000/svg" xmlns:xlink="http://www.w3.org/1999/xlink" x="0px" y="0px"
	 width="70px" height="70px" viewBox="0 0 70 70" enable-background="new 0 0 70 70" xml:space="preserve">
<g>
	<path d="M63.071,3.583h-56c-2.209,0-4.488,2.243-4.488,4.452v40c0,2.209,2.279,3.548,4.488,3.548h56
		c2.209,0,3.512-1.339,3.512-3.548v-40C66.583,5.826,65.28,3.583,63.071,3.583z M62.583,47.583h-56v-40h56V47.583z"/>
	<path d="M59.583,12.583c0-0.552-0.447-1-1-1h-48c-0.552,0-1,0.448-1,1v29c0,0.553,0.448,1,1,1h48c0.553,0,1-0.447,1-1V12.583z
		 M11.583,13.583h46v27h-46V13.583z"/>
	<path d="M55.583,34.917c-0.553,0-1,0.447-1,1v1.666H51c-0.553,0-1,0.447-1,1s0.447,1,1,1h5c0.553,0,0.583-0.113,0.583-0.666v-3
		C56.583,35.364,56.136,34.917,55.583,34.917z"/>
	<path d="M55.583,18.917c-0.553,0-1,0.447-1,1v13c0,0.553,0.447,1,1,1s1-0.447,1-1v-13C56.583,19.364,56.136,18.917,55.583,18.917z"
		/>
	<path d="M36,43.583h-1c-0.553,0-1,0.447-1,1s0.447,1,1,1h1c0.553,0,1-0.447,1-1S36.553,43.583,36,43.583z"/>
	<path d="M49,62.583h-4.059c-0.747-5-4.938-8.583-9.995-8.583s-9.249,3.583-9.995,8.583H20c-1.104,0-2,0.896-2,2s0.896,2,2,2h29
		c1.104,0,2-0.896,2-2S50.104,62.583,49,62.583z M34.946,58c2.844,0,5.234,1.583,5.921,4.583H29.026
		C29.712,59.583,32.103,58,34.946,58z"/>
</g>
</svg>
