<?xml version="1.0" encoding="utf-8"?>
<!-- Generator: Adobe Illustrator 16.0.0, SVG Export Plug-In . SVG Version: 6.00 Build 0)  -->
<!DOCTYPE svg PUBLIC "-//W3C//DTD SVG 1.1//EN" "http://www.w3.org/Graphics/SVG/1.1/DTD/svg11.dtd">
<svg version="1.1" id="Layer_1" xmlns="http://www.w3.org/2000/svg" xmlns:xlink="http://www.w3.org/1999/xlink" x="0px" y="0px"
	 width="70px" height="70px" viewBox="0 0 70 70" enable-background="new 0 0 70 70" xml:space="preserve">
<g>
	<path d="M63.182,21.754C57.994,10.928,46.664,3.583,34.665,3.583h-0.082v0.016c-4.537,0.084-8.963,1.303-13.087,3.28
		C13.938,10.502,8.222,16.953,5.44,24.858C2.659,32.763,3.112,41.33,6.734,48.888c5.189,10.825,16.296,17.846,28.305,17.846
		c4.71,0,9.264-1.025,13.541-3.074c7.558-3.623,13.251-9.997,16.033-17.902C67.395,37.853,66.805,29.312,63.182,21.754z
		 M59.701,23.546c2.507,5.23,3.199,10.859,2.338,16.182l-24.934-5.479l9.594-23.611C52.193,13.228,56.87,17.641,59.701,23.546z
		 M35.034,62.76c-10.205,0-19.997-5.731-24.703-15.55C3.795,33.577,9.547,17.228,23.184,10.692C27,8.863,31.031,7.997,34.998,7.996
		c2.717,0,5.401,0.418,7.971,1.2L32.507,34.939c-0.009,0.021-0.011,0.044-0.02,0.066c-0.021,0.056-0.037,0.113-0.053,0.17
		c-0.008,0.03-0.021,0.057-0.028,0.087c-0.002,0.011-0.001,0.021-0.004,0.032c-0.006,0.032-0.01,0.063-0.015,0.095
		c-0.009,0.058-0.012,0.117-0.016,0.175c-0.003,0.042-0.009,0.085-0.009,0.127c0,0.029,0.002,0.057,0.004,0.086
		c0.002,0.057,0.01,0.113,0.018,0.17c0.006,0.044,0.007,0.089,0.016,0.133c0.005,0.028,0.014,0.054,0.021,0.082
		c0.013,0.053,0.031,0.105,0.048,0.157c0.014,0.043,0.024,0.086,0.041,0.128c0.013,0.031,0.029,0.06,0.043,0.09
		c0.01,0.021,0.014,0.043,0.025,0.063l12.393,24.268C41.723,62.142,38.356,62.76,35.034,62.76z M48.583,59.146L38.067,38.555
		l23.046,5.064C59.098,50,54.761,55.627,48.583,59.146z"/>
	<path d="M34.583,3.583v0.016c0.166-0.003,0.331-0.016,0.497-0.016H34.583z"/>
	<path d="M25.089,14.67c-1.066,0.512-2.098,1.106-3.063,1.768c-0.456,0.312-0.572,0.935-0.261,1.39
		c0.193,0.283,0.507,0.436,0.826,0.436c0.194,0,0.391-0.057,0.563-0.175c0.883-0.604,1.824-1.147,2.8-1.615
		c0.498-0.238,0.708-0.836,0.469-1.334C26.184,14.642,25.589,14.428,25.089,14.67z"/>
	<path d="M17.846,20.118c-6.159,6.933-7.548,16.819-3.538,25.187c0.172,0.358,0.529,0.567,0.902,0.567
		c0.145,0,0.292-0.031,0.432-0.099c0.498-0.238,0.708-0.836,0.469-1.334c-3.66-7.638-2.392-16.664,3.231-22.993
		c0.366-0.413,0.329-1.045-0.084-1.412C18.845,19.668,18.214,19.704,17.846,20.118z"/>
	<path d="M46.671,16.389l-6,14c-0.218,0.507,0.018,1.095,0.525,1.313c0.128,0.056,0.262,0.081,0.394,0.081
		c0.388,0,0.757-0.227,0.919-0.606l6-14c0.218-0.507-0.018-1.095-0.525-1.313C47.48,15.645,46.889,15.88,46.671,16.389z"/>
</g>
</svg>
