<?xml version="1.0" encoding="utf-8"?>
<!-- Generator: Adobe Illustrator 16.0.0, SVG Export Plug-In . SVG Version: 6.00 Build 0)  -->
<!DOCTYPE svg PUBLIC "-//W3C//DTD SVG 1.1//EN" "http://www.w3.org/Graphics/SVG/1.1/DTD/svg11.dtd">
<svg version="1.1" id="Layer_1" xmlns="http://www.w3.org/2000/svg" xmlns:xlink="http://www.w3.org/1999/xlink" x="0px" y="0px"
	 width="70px" height="70px" viewBox="0 0 70 70" enable-background="new 0 0 70 70" xml:space="preserve">
<g>
	<path d="M41.639,26.487l10.509,7.038c0.458,0.308,0.581,0.929,0.273,1.388c-0.192,0.288-0.51,0.443-0.832,0.443
		c-0.191,0-0.385-0.055-0.555-0.169l-10.509-7.038c-0.458-0.308-0.581-0.929-0.273-1.388C40.559,26.302,41.182,26.18,41.639,26.487z
		"/>
	<path d="M2.583,16.654v36.691c0,1.477,0.48,2.833,1.783,3.528c0.591,0.315,0.904,0.472,1.55,0.472c0.778,0,1.707-0.228,2.378-0.677
		l20.289-13.402v10.079c0,1.477,0.482,2.833,1.785,3.528c0.59,0.315,0.908,0.472,1.554,0.472c0.779,0,1.556-0.228,2.227-0.677
		l27.393-18.346c0.413-0.276,0.764-0.623,1.042-1.018V51.5c0,1.104,0.896,2,2,2s2-0.896,2-2v-33c0-1.104-0.896-2-2-2s-2,0.896-2,2
		v14.195c-0.278-0.395-0.629-0.742-1.042-1.018L34.148,13.331c-0.671-0.449-1.447-0.677-2.227-0.677
		c-0.646,0-0.963,0.156-1.554,0.472c-1.303,0.695-1.785,2.052-1.785,3.528v9.736L7.95,13.304c-0.662-0.432-1.422-0.649-2.185-0.649
		c-0.654,0-0.901,0.16-1.497,0.483C2.978,13.837,2.583,15.187,2.583,16.654z M32.583,38.873v-8.13V16.476L59.559,35L32.583,53.346
		V38.873z M6.583,16.333l22,14.411v8.13l-22,14.473V16.333z"/>
</g>
</svg>
