<?xml version="1.0" encoding="utf-8"?>
<!-- Generator: Adobe Illustrator 16.0.0, SVG Export Plug-In . SVG Version: 6.00 Build 0)  -->
<!DOCTYPE svg PUBLIC "-//W3C//DTD SVG 1.1//EN" "http://www.w3.org/Graphics/SVG/1.1/DTD/svg11.dtd">
<svg version="1.1" id="Layer_1" xmlns="http://www.w3.org/2000/svg" xmlns:xlink="http://www.w3.org/1999/xlink" x="0px" y="0px"
	 width="70px" height="70px" viewBox="0 0 70 70" enable-background="new 0 0 70 70" xml:space="preserve">
<g>
	<path d="M58.9,26.157c-0.212-0.707-0.796-1.24-1.519-1.386L38.76,21.002l0.595-2.938c0.105-0.52,0-1.061-0.293-1.502
		c-0.294-0.442-0.751-0.75-1.271-0.854l-18.292-3.701c0.933-0.908,1.516-2.173,1.516-3.578c0-2.762-2.238-5-5-5
		s-5.062,2.238-5.062,5c0,1.487,0.63,2.807,1.63,3.723v52.416c0,1.105,0.896,2,2,2s2-0.895,2-2v-29.55l14.62,2.849l-0.559,2.915
		c-0.105,0.52,0.015,1.049,0.308,1.49c0.294,0.441,0.759,0.725,1.278,0.828l20.587,4.33c0.132,0.027,0.269,0.152,0.4,0.152
		c0.007,0,0.017,0,0.02,0c1.105,0,2-1.01,2-2.113c0-0.334-0.081-0.654-0.225-0.93l-3.385-9.597l6.769-6.768
		C58.919,27.655,59.113,26.863,58.9,26.157z M17.337,31.079c-0.236-0.046-0.754-0.042-0.754-0.007V15.523l18.393,3.708l-0.563,2.934
		l0.015,0L32.02,33.947L17.337,31.079z M47.909,32.949c-0.548,0.545-0.732,1.357-0.474,2.086l2.717,7.66l-15.16-3.066l2.975-14.703
		l14.96,3.027L47.909,32.949z"/>
	<path d="M30.211,21.45l-10-2c-0.541-0.112-1.069,0.241-1.177,0.784c-0.108,0.542,0.243,1.068,0.784,1.177l10,2
		c0.066,0.014,0.132,0.02,0.197,0.02c0.467,0,0.885-0.328,0.979-0.804C31.104,22.084,30.752,21.558,30.211,21.45z"/>
	<path d="M40.803,30.408l3.029,0.656c0.071,0.016,0.143,0.022,0.213,0.022c0.461,0,0.875-0.32,0.977-0.788
		c0.117-0.54-0.226-1.072-0.766-1.189l-3.029-0.656c-0.538-0.115-1.072,0.227-1.189,0.766C39.92,29.758,40.263,30.291,40.803,30.408
		z"/>
</g>
</svg>
