<?xml version="1.0" encoding="utf-8"?>
<!-- Generator: Adobe Illustrator 16.0.0, SVG Export Plug-In . SVG Version: 6.00 Build 0)  -->
<!DOCTYPE svg PUBLIC "-//W3C//DTD SVG 1.1//EN" "http://www.w3.org/Graphics/SVG/1.1/DTD/svg11.dtd">
<svg version="1.1" id="Layer_1" xmlns="http://www.w3.org/2000/svg" xmlns:xlink="http://www.w3.org/1999/xlink" x="0px" y="0px"
	 width="70px" height="70px" viewBox="0 0 70 70" enable-background="new 0 0 70 70" xml:space="preserve">
<g>
	<path d="M63.799,35.485c-2.429-2.43-5.659-3.768-9.095-3.768c-1.424,0-2.833,0.236-4.169,0.691
		c-1.613-1.061-3.061-2.161-4.392-3.311c0.987-1.079,2.765-2.273,5.913-2.587c2.397-0.24,4.369-1.29,5.701-3.036
		c2.758-3.612,1.96-8.916,1.859-9.509c-0.184-1.09-1.219-1.832-2.305-1.639c-1.089,0.184-1.823,1.216-1.639,2.305
		c0.007,0.041,0.64,4.143-1.096,6.416c-0.661,0.867-1.617,1.353-2.92,1.482c-4.298,0.429-6.886,2.17-8.396,3.788
		c-1.951-2.134-3.574-4.48-4.969-7.159c1.188-4.397-0.034-9.214-3.312-12.491c-2.433-2.433-5.667-3.772-9.107-3.772
		c-3.441,0-6.676,1.34-9.108,3.772l-5.912,5.912C6.711,16.723-0.234,30.051,5.682,35.969c1.297,1.296,3.073,1.953,5.279,1.953
		c2.924,0,6.417-1.203,9.206-2.247L34.791,50.3c-1.884,5.023-3.827,10.951-0.293,14.484c1.058,1.059,3.005,2.32,6.267,2.32
		c6.202,0,14.062-4.43,17.123-7.492l5.911-5.91C68.821,48.679,68.821,40.507,63.799,35.485z M60.971,50.874l-5.911,5.91
		c-2.659,2.66-9.626,6.32-14.295,6.32c-1.421,0-2.629-0.34-3.438-1.148c-2.213-2.213,0.85-9.16,2.115-12.662L21.174,31.026
		c-2.618,0.946-7.161,2.896-10.213,2.896c-1.03,0-1.892-0.223-2.45-0.781c-3.468-3.469,1.704-14.265,5.173-17.732l5.911-5.912
		c1.733-1.734,4.007-2.601,6.28-2.601c2.272,0,4.545,0.866,6.279,2.601c2.686,2.686,3.283,6.661,1.809,9.93
		c3.118,6.614,7.614,12.289,16.25,17.506c1.383-0.81,2.938-1.215,4.491-1.215c2.269,0,4.535,0.864,6.267,2.596
		C64.439,41.782,64.439,47.405,60.971,50.874z"/>
	<path d="M32.492,29.109c-0.391-0.391-1.023-0.391-1.414,0s-0.391,1.023,0,1.414l2.955,2.955c0.195,0.195,0.451,0.293,0.707,0.293
		s0.512-0.098,0.707-0.293c0.391-0.391,0.391-1.023,0-1.414L32.492,29.109z"/>
	<path d="M26.582,15.809c-0.391-0.391-1.023-0.391-1.414,0l-2.987,2.987l-2.987-2.987c-0.391-0.391-1.023-0.391-1.414,0
		s-0.391,1.023,0,1.414l2.987,2.987l-2.987,2.987c-0.391,0.391-0.391,1.023,0,1.414c0.195,0.195,0.451,0.293,0.707,0.293
		s0.512-0.098,0.707-0.293l2.987-2.987l2.987,2.987c0.195,0.195,0.451,0.293,0.707,0.293s0.512-0.098,0.707-0.293
		c0.391-0.391,0.391-1.023,0-1.414l-2.987-2.987l2.987-2.987C26.973,16.833,26.973,16.2,26.582,15.809z"/>
	<path d="M55.46,50.534c-0.19,0.189-0.29,0.439-0.29,0.709c0,0.26,0.1,0.52,0.29,0.701c0.189,0.189,0.439,0.299,0.71,0.299
		c0.26,0,0.52-0.109,0.71-0.289c0.18-0.191,0.29-0.451,0.29-0.711s-0.11-0.52-0.29-0.709C56.51,50.163,55.819,50.163,55.46,50.534z"
		/>
	<path d="M55.46,43.144c-0.19,0.189-0.29,0.449-0.29,0.709c0,0.271,0.1,0.521,0.29,0.711c0.189,0.18,0.439,0.289,0.71,0.289
		c0.26,0,0.52-0.109,0.7-0.289c0.189-0.189,0.3-0.439,0.3-0.711c0-0.26-0.11-0.52-0.3-0.709C56.5,42.772,55.83,42.772,55.46,43.144z
		"/>
	<path d="M51.03,50.534c-0.19,0.189-0.301,0.439-0.301,0.709c0,0.26,0.11,0.52,0.29,0.701c0.19,0.189,0.45,0.299,0.71,0.299
		c0.271,0,0.521-0.109,0.71-0.289c0.19-0.191,0.29-0.451,0.29-0.711c0-0.27-0.1-0.52-0.29-0.709
		C52.08,50.163,51.39,50.163,51.03,50.534z"/>
	<path d="M51.03,43.144c-0.19,0.189-0.301,0.449-0.301,0.709c0,0.271,0.11,0.531,0.301,0.711c0.18,0.18,0.439,0.289,0.699,0.289
		c0.271,0,0.521-0.109,0.71-0.289c0.19-0.189,0.29-0.439,0.29-0.711c0-0.26-0.1-0.52-0.29-0.709
		C52.069,42.772,51.399,42.772,51.03,43.144z"/>
	<path d="M46.59,50.534c-0.18,0.189-0.29,0.439-0.29,0.709c0,0.26,0.11,0.52,0.29,0.701c0.19,0.189,0.45,0.299,0.71,0.299
		s0.52-0.109,0.71-0.289c0.18-0.191,0.29-0.441,0.29-0.711s-0.11-0.529-0.29-0.709C47.649,50.163,46.96,50.163,46.59,50.534z"/>
	<path d="M46.59,43.144c-0.18,0.189-0.29,0.449-0.29,0.709c0,0.271,0.11,0.521,0.29,0.711c0.19,0.18,0.45,0.289,0.71,0.289
		s0.52-0.109,0.71-0.289c0.19-0.189,0.29-0.449,0.29-0.711c0-0.26-0.1-0.52-0.29-0.709C47.63,42.772,46.97,42.772,46.59,43.144z"/>
	<path d="M38.404,35.02c-0.391-0.391-1.023-0.391-1.414,0s-0.391,1.023,0,1.414l2.955,2.956c0.195,0.195,0.451,0.293,0.707,0.293
		s0.512-0.098,0.707-0.293c0.391-0.391,0.391-1.024,0-1.415L38.404,35.02z"/>
</g>
</svg>
