<?xml version="1.0" encoding="utf-8"?>
<!-- Generator: Adobe Illustrator 16.0.0, SVG Export Plug-In . SVG Version: 6.00 Build 0)  -->
<!DOCTYPE svg PUBLIC "-//W3C//DTD SVG 1.1//EN" "http://www.w3.org/Graphics/SVG/1.1/DTD/svg11.dtd">
<svg version="1.1" id="Layer_1" xmlns="http://www.w3.org/2000/svg" xmlns:xlink="http://www.w3.org/1999/xlink" x="0px" y="0px"
	 width="70px" height="70px" viewBox="0 0 70 70" enable-background="new 0 0 70 70" xml:space="preserve">
<g>
	<path d="M48.089,41.256c-0.649-0.408-1.388-0.595-2.128-0.595c-0.671,0-1.342,0.168-1.949,0.508
		c-2.724,1.52-5.84,2.322-9.012,2.322c-3.171,0-6.288-0.803-9.016-2.322c-0.605-0.338-1.276-0.506-1.946-0.506
		c-0.74,0-1.479,0.205-2.128,0.613C15.589,45.247,11,54.202,11,62.622c0,2.209,1.791,3.961,4,3.961h40c2.209,0,4-1.752,4-3.961
		C59,54.202,54.411,45.229,48.089,41.256z M15,62.583c0-7,3.597-14.541,9.038-17.959c3.222,1.795,6.965,2.828,10.962,2.828
		s7.74-1.033,10.961-2.83C51.403,48.042,55,55.583,55,62.583H15z"/>
	<path d="M17.71,36.094c0.7,0.745,1.608,1.155,2.557,1.155c1.23,0,2.349-0.691,2.989-1.848l2.9-5.233
		c2.248,3.027,5.237,5.229,8.826,5.229c3.6,0,6.597-2.215,8.847-5.256l2.915,5.26c0.641,1.156,1.759,1.847,2.989,1.848
		c0.948,0,1.856-0.41,2.557-1.155l3.834-4.078c0.859-0.914,1.172-2.047,0.857-3.107c-0.315-1.06-1.195-1.838-2.417-2.135
		l-7.833-1.899c1.142-2.832,1.751-5.729,1.751-7.977c0-7.444-6.056-13.5-13.5-13.5s-13.5,6.056-13.5,13.5
		c0,2.251,0.611,5.151,1.754,7.985l-7.803,1.891c-1.22,0.297-2.1,1.075-2.415,2.135c-0.314,1.061-0.002,2.193,0.857,3.107
		L17.71,36.094z M52.226,30.323l-2.342,2.491l-1.959-3.534L52.226,30.323z M34.982,31.398c-4.3,0-7.929-6.214-9.1-11.345
		c5.469-1.643,8.481-4.605,9.748-6.15c3.584,3.223,7.042,4.132,8.755,4.39C43.756,23.629,39.791,31.398,34.982,31.398z
		 M34.982,7.398c5.034,0,9.144,3.92,9.469,8.873c-1.632-0.293-4.941-1.274-8.248-4.58c-0.216-0.216-0.516-0.322-0.826-0.284
		c-0.305,0.036-0.577,0.212-0.736,0.474c-0.026,0.044-2.593,4.141-9.091,6.181c-0.041-0.403-0.067-0.795-0.067-1.164
		C25.482,11.652,29.736,7.398,34.982,7.398z M22.079,29.275l-1.962,3.539l-2.344-2.492L22.079,29.275z"/>
	<path d="M34.875,49.46c-2.404,0-4,3.027-4,5.029c0,2.189,1.794,3.971,4,3.971s4-1.781,4-3.971
		C38.875,52.487,37.279,49.46,34.875,49.46z M34.875,56.46c-1.103,0-2-0.883-2-1.971c0-1.223,1.054-3.029,2-3.029s2,1.807,2,3.029
		C36.875,55.577,35.978,56.46,34.875,56.46z"/>
	<circle cx="28.156" cy="50.054" r="1.406"/>
	<circle cx="24.156" cy="48.054" r="1.406"/>
	<circle cx="41.156" cy="50.054" r="1.406"/>
	<circle cx="45.156" cy="48.054" r="1.406"/>
</g>
</svg>
