<?xml version="1.0" encoding="utf-8"?>
<!-- Generator: Adobe Illustrator 16.0.0, SVG Export Plug-In . SVG Version: 6.00 Build 0)  -->
<!DOCTYPE svg PUBLIC "-//W3C//DTD SVG 1.1//EN" "http://www.w3.org/Graphics/SVG/1.1/DTD/svg11.dtd">
<svg version="1.1" id="Layer_1" xmlns="http://www.w3.org/2000/svg" xmlns:xlink="http://www.w3.org/1999/xlink" x="0px" y="0px"
	 width="70px" height="70px" viewBox="0 0 70 70" enable-background="new 0 0 70 70" xml:space="preserve">
<path d="M66.216,56.427l-24-18.411c-0.874-0.669-2.131-0.564-2.804,0.314c-0.672,0.877-0.505,2.017,0.372,2.688l6.054,4.564H23.842
	l12.342-9.485c1.312-0.909,10.732-7.428,10.732-13.629c0-7.234-4.119-12.096-10.25-12.096c-3.624,0-6.887,1.789-8.515,4.668
	c-1.063,1.881-2.34,5.875,1.048,11.503c0.571,0.947,1.802,1.251,2.745,0.682c0.946-0.57,1.252-1.8,0.683-2.746
	c-1.735-2.882-2.088-5.537-0.993-7.473c0.919-1.627,2.848-2.641,5.032-2.641c5.948,0,6.25,6.737,6.25,8.089
	c0,3.002-5.293,7.991-9.052,10.585c-0.031,0.021-0.063,0.016-0.092,0.04l-30,23.27c-0.675,0.524-0.941,1.304-0.664,2.112
	S4.146,59.583,5,59.583h60c0.857,0,1.619-0.33,1.895-1.143C67.169,57.629,66.896,56.948,66.216,56.427z M48.49,47.583l2.4,1.811
	C49.748,50.311,49,51.701,49,53.277c0,0.836,0.226,1.612,0.59,2.306H19.41c0.364-0.693,0.59-1.47,0.59-2.306
	c0-1.402-0.584-2.667-1.517-3.576l2.757-2.118H48.49z M16.864,50.945C17.551,51.496,18,52.331,18,53.277
	c0,0.932-0.436,1.755-1.104,2.306H10.83L16.864,50.945z M52.104,55.583C51.436,55.032,51,54.209,51,53.277
	c0-1.133,0.639-2.109,1.567-2.619l6.532,4.925H52.104z"/>
</svg>
