<?xml version="1.0" encoding="utf-8"?>
<!-- Generator: Adobe Illustrator 16.0.0, SVG Export Plug-In . SVG Version: 6.00 Build 0)  -->
<!DOCTYPE svg PUBLIC "-//W3C//DTD SVG 1.1//EN" "http://www.w3.org/Graphics/SVG/1.1/DTD/svg11.dtd">
<svg version="1.1" id="Layer_1" xmlns="http://www.w3.org/2000/svg" xmlns:xlink="http://www.w3.org/1999/xlink" x="0px" y="0px"
	 width="70px" height="70px" viewBox="0 0 70 70" enable-background="new 0 0 70 70" xml:space="preserve">
<g>
	<path d="M21.583,39c-1.104,0-2,0.896-2,2v23c0,1.104,0.896,2,2,2s2-0.896,2-2V41C23.583,39.896,22.688,39,21.583,39z"/>
	<path d="M47.583,39c-1.104,0-2,0.896-2,2v23c0,1.104,0.896,2,2,2c1.105,0,2-0.896,2-2V41C49.583,39.896,48.688,39,47.583,39z"/>
	<path d="M55.036,31.968c0,0.553,0.459,1.208,1.023,1.208c0.566,0,1.023-0.655,1.023-1.208c0-12.228-9.549-22.385-21.285-22.385
		H34.91c-11.831,0-21.826,10.285-21.826,22.274c0,0.553,0.458,1.156,1.023,1.156c0.565,0,1.023-0.552,1.023-1.104
		c0-10.905,9.058-20.326,19.78-20.326h0.889C46.405,11.583,55.036,20.842,55.036,31.968z"/>
	<path d="M62.583,42.718v-9.891c0-16.435-10.893-29.244-26.097-29.244h-1.122c-15.832,0-29.781,13.618-29.781,29.244V44
		c0,0.137,0.093,0.271,0.118,0.399c-1.673,2.312-2.646,5.109-2.646,8.06c0,7.436,6.359,13.958,13.795,13.958
		c1.104,0,1.733-0.896,1.733-2V40.5c0-1.104-0.739-2-1.844-2c-2.593,0-5.156,0.807-7.156,2.155v-7.828
		c0-13.458,12.118-25.244,25.781-25.244h1.122c12.923,0,22.097,11.091,22.097,25.244v7.044c-2-0.866-3.75-1.371-5.791-1.371
		c-1.105,0-2.209,0.896-2.209,2v23.917c0,1.104,1.182,2,2.287,2c7.436,0,13.918-6.522,13.918-13.958
		C66.788,48.753,65.583,45.275,62.583,42.718z M14.583,62.172c-1-0.173-1.403-0.438-2.083-0.776
		c0.052-0.122,0.083-0.255,0.083-0.396V43.483c1-0.319,1-0.572,2-0.738V62.172z M10.583,44.743v15.431
		c-2-1.794-3.958-4.525-3.958-7.715C6.625,49.269,8.583,46.537,10.583,44.743z M54.583,42.745c1,0.166,2,0.419,2,0.738v17.95
		c0,0.319-1,0.573-2,0.738V42.745z M58.583,60.173v-15.43c2,1.794,3.959,4.526,3.959,7.716S60.583,58.38,58.583,60.173z"/>
</g>
</svg>
