<?xml version="1.0" encoding="utf-8"?>
<!-- Generator: Adobe Illustrator 16.0.0, SVG Export Plug-In . SVG Version: 6.00 Build 0)  -->
<!DOCTYPE svg PUBLIC "-//W3C//DTD SVG 1.1//EN" "http://www.w3.org/Graphics/SVG/1.1/DTD/svg11.dtd">
<svg version="1.1" id="Layer_1" xmlns="http://www.w3.org/2000/svg" xmlns:xlink="http://www.w3.org/1999/xlink" x="0px" y="0px"
	 width="70px" height="70px" viewBox="0 0 70 70" enable-background="new 0 0 70 70" xml:space="preserve">
<g>
	<path d="M46.185,5C40.611,5,37.369,7.139,35,10.011C32.631,7.139,29.389,5,23.815,5C12.338,5,3,13.876,3,24.787
		c0,2.957,0.851,7.335,2.718,9.962c6.147,8.637,25.62,28.241,26.446,29.072C32.915,64.575,33.936,65,35,65s2.084-0.424,2.836-1.179
		c0.825-0.831,20.299-20.435,26.444-29.07c1.868-2.624,2.72-7.005,2.72-9.964C67,13.876,57.662,5,46.185,5z M61.021,32.432
		C54.996,40.898,35,61,35,61S15.004,40.898,8.978,32.432C7.69,30.621,7,27.105,7,24.787C7,16.066,14.526,9,23.815,9
		c6.427,0,8.355,3.388,11.185,8.363C37.829,12.388,39.757,9,46.185,9C55.472,9,63,16.066,63,24.787
		C63,27.105,62.311,30.621,61.021,32.432z"/>
	<path d="M50.062,16.177c0.379,0,0.742-0.216,0.91-0.583c0.23-0.502,0.01-1.096-0.492-1.326c-1.813-0.832-3.765-1.253-5.799-1.253
		c-0.553,0-1,0.448-1,1s0.447,1,1,1c1.744,0,3.415,0.36,4.965,1.071C49.78,16.147,49.923,16.177,50.062,16.177z"/>
	<path d="M53.632,17.584c-0.42,0.358-0.471,0.989-0.113,1.41c1.604,1.882,2.45,4.149,2.45,6.557c0,1.556-0.481,3.912-1.26,5.006
		c-1.088,1.527-2.94,3.756-5.507,6.625c-0.368,0.411-0.333,1.044,0.078,1.412c0.191,0.171,0.43,0.255,0.667,0.255
		c0.274,0,0.548-0.112,0.745-0.333c2.616-2.925,4.516-5.211,5.646-6.799c1.071-1.505,1.631-4.241,1.631-6.166
		c0-2.848-1.039-5.637-2.927-7.854C54.683,17.276,54.053,17.228,53.632,17.584z"/>
</g>
</svg>
