<?xml version="1.0" encoding="utf-8"?>
<!-- Generator: Adobe Illustrator 16.0.0, SVG Export Plug-In . SVG Version: 6.00 Build 0)  -->
<!DOCTYPE svg PUBLIC "-//W3C//DTD SVG 1.1//EN" "http://www.w3.org/Graphics/SVG/1.1/DTD/svg11.dtd">
<svg version="1.1" id="Layer_1" xmlns="http://www.w3.org/2000/svg" xmlns:xlink="http://www.w3.org/1999/xlink" x="0px" y="0px"
	 width="70px" height="70px" viewBox="0 0 70 70" enable-background="new 0 0 70 70" xml:space="preserve">
<g>
	<path d="M67.575,22.269C66.729,10.996,56.877,2.518,45.597,3.36C34.324,4.207,25.843,14.066,26.689,25.339
		c0.089,1.184,0.28,2.341,0.563,3.471c-0.251,0.087-0.489,0.224-0.695,0.414L3.332,50.474c-0.413,0.378-0.749,0.913-0.749,1.474
		v13.167c0,1.104,1.096,1.469,2.201,1.469h12c1.104,0,1.799-0.364,1.799-1.469v-3.531h6.049c0.588,0,1.146-0.126,1.526-0.574
		c0.38-0.449,0.543-0.91,0.447-1.49l-0.612-3.936h3.639c0.566,0,1.107-0.009,1.486-0.43l10.611-11.575
		c1.749,0.478,3.557,0.727,5.387,0.727c0.517,0,1.034-0.02,1.552-0.059C59.94,43.398,68.422,33.539,67.575,22.269z M48.369,40.258
		c-3.252,0.244-6.467-0.468-9.301-2.057c-0.964-0.542-2.183-0.198-2.723,0.766c-0.54,0.963-0.197,2.183,0.766,2.723
		c0.164,0.092,0.332,0.172,0.498,0.259l-8.868,9.635h-5.108c-0.588,0-1.146,0.392-1.526,0.84c-0.38,0.449-0.543,1.174-0.447,1.754
		l0.612,3.406h-5.488c-1.104,0-2.201,1.427-2.201,2.531v2.469h-8v-9.756l22.064-20.153c0.173,0.359,0.355,0.716,0.55,1.067
		c0.537,0.967,1.756,1.315,2.72,0.779c0.966-0.536,1.314-1.753,0.778-2.719c-1.157-2.087-1.836-4.362-2.018-6.763
		c-0.681-9.073,6.146-17.009,15.219-17.69c9.079-0.671,17.008,6.147,17.69,15.219C64.268,31.64,57.441,39.575,48.369,40.258z"/>
	<path d="M50.633,15.828c-2.469,0-4.477,2.008-4.477,4.476c0,1.195,0.466,2.32,1.313,3.166c0.845,0.845,1.969,1.31,3.164,1.31
		c2.469,0,4.477-2.008,4.477-4.477C55.109,17.835,53.102,15.828,50.633,15.828z M50.633,22.779c-1.367,0-2.477-1.107-2.477-2.476
		s1.109-2.476,2.477-2.476s2.477,1.107,2.477,2.475C53.109,21.672,52,22.779,50.633,22.779z"/>
	<path d="M45.396,10.645c-0.319,0-0.639,0.013-0.952,0.04c-0.551,0.047-0.959,0.531-0.912,1.081
		c0.045,0.521,0.481,0.915,0.996,0.915c0.027,0,0.057-0.001,0.086-0.004c0.258-0.021,0.52-0.032,0.782-0.032c0.552,0,1-0.447,1-1
		S45.947,10.645,45.396,10.645z"/>
	<path d="M40.637,11.681c-4.047,1.859-6.663,5.936-6.663,10.387c0,0.553,0.447,1,1,1s1-0.447,1-1c0-3.672,2.158-7.035,5.497-8.568
		c0.502-0.23,0.723-0.824,0.492-1.326C41.73,11.67,41.138,11.451,40.637,11.681z"/>
	<path d="M26.976,37.443l-13.37,11.638c-0.417,0.362-0.46,0.994-0.098,1.41c0.198,0.228,0.476,0.344,0.755,0.344
		c0.233,0,0.467-0.081,0.656-0.246l13.369-11.638c0.417-0.362,0.461-0.994,0.098-1.41C28.023,37.124,27.392,37.08,26.976,37.443z"/>
	<path d="M11.39,51.011l-1.645,1.433c-0.417,0.362-0.46,0.994-0.097,1.411c0.198,0.227,0.475,0.343,0.754,0.343
		c0.233,0,0.467-0.081,0.656-0.246l1.645-1.433c0.417-0.362,0.46-0.994,0.097-1.411C12.437,50.692,11.807,50.647,11.39,51.011z"/>
</g>
</svg>
