<?xml version="1.0" encoding="utf-8"?>
<!-- Generator: Adobe Illustrator 16.0.0, SVG Export Plug-In . SVG Version: 6.00 Build 0)  -->
<!DOCTYPE svg PUBLIC "-//W3C//DTD SVG 1.1//EN" "http://www.w3.org/Graphics/SVG/1.1/DTD/svg11.dtd">
<svg version="1.1" id="Layer_1" xmlns="http://www.w3.org/2000/svg" xmlns:xlink="http://www.w3.org/1999/xlink" x="0px" y="0px"
	 width="70px" height="70px" viewBox="0 0 70 70" enable-background="new 0 0 70 70" xml:space="preserve">
<g>
	<path d="M59.5,27.848c0-13.509-10.99-24.5-24.5-24.5s-24.5,10.991-24.5,24.5c0,9.392,5.314,17.562,13.091,21.672
		c0.006,0.052,0.004,0.103,0.015,0.155l2.9,14.539c0.185,0.938,1.007,1.369,1.962,1.369h3.383c0.347,1,0.984,1,1.723,1h2
		c0.738,0,1.376,0,1.723-1h3.371c0.958,0,1.782-0.463,1.964-1.404l2.772-14.174C53.725,46.085,59.5,37.639,59.5,27.848z
		 M39.017,61.583h-8.905l-2.068-10.281c2.207,0.654,4.54,1.028,6.957,1.028c2.064,0,4.069-0.285,5.986-0.768L39.017,61.583z
		 M32.117,48.032l-2.774-13.359c0.045,0.003,0.089,0.012,0.135,0.012c0.869,0,1.621-0.609,2.097-1.683
		c0.028-0.033,0.054-0.067,0.077-0.104c0.046-0.071,0.087-0.123,0.12-0.158c0.032,0.036,0.073,0.086,0.118,0.157
		c0.029,0.045,0.063,0.088,0.101,0.127c0.478,1.054,1.224,1.65,2.083,1.65c0.479,0,1.374-0.198,2.021-1.518
		c0.007-0.012,0.014-0.025,0.02-0.038c0.022-0.047,0.044-0.096,0.065-0.145c0.02-0.024,0.037-0.05,0.055-0.076
		c0.046-0.071,0.087-0.123,0.12-0.158c0.033,0.035,0.074,0.087,0.12,0.158c0.021,0.034,0.046,0.065,0.072,0.096
		c0.475,1.08,1.229,1.691,2.102,1.691c0.87,0,1.623-0.609,2.098-1.684c0.027-0.033,0.054-0.067,0.077-0.104
		c0.045-0.07,0.086-0.122,0.118-0.157c0.026,0.027,0.06,0.074,0.093,0.122l-3.15,15.17c-0.006,0.03,0.003,0.06,0,0.09
		c-0.944,0.133-1.902,0.226-2.883,0.226c-0.981,0-1.938-0.093-2.882-0.226C32.114,48.092,32.124,48.063,32.117,48.032z
		 M39.993,47.71l3.124-15.043c0.096-0.458-0.15-0.893-0.555-1.087c-0.896-1.132-2.356-1.151-3.246-0.013
		c-0.146,0.113-0.262,0.267-0.328,0.448c-0.125,0.339-0.257,0.53-0.341,0.622c-0.085-0.091-0.217-0.282-0.342-0.622
		c-0.058-0.159-0.162-0.296-0.293-0.404c-0.6-0.795-1.286-0.921-1.659-0.921c-0.369,0-1.048,0.124-1.645,0.902
		c-0.13,0.108-0.232,0.25-0.295,0.416c-0.032,0.086-0.067,0.169-0.096,0.229c-0.004,0.008-0.009,0.017-0.013,0.025
		c-0.089,0.185-0.173,0.299-0.231,0.362c-0.084-0.091-0.215-0.28-0.339-0.614c-0.062-0.166-0.176-0.309-0.318-0.417
		c-0.448-0.585-1.025-0.904-1.646-0.904c-0.365,0-1.033,0.121-1.624,0.877c-0.146,0.113-0.262,0.266-0.328,0.447
		c-0.125,0.34-0.258,0.531-0.342,0.623c-0.084-0.091-0.217-0.282-0.342-0.623c-0.145-0.393-0.57-0.655-0.989-0.655
		c-0.169,0-0.318,0.052-0.454,0.126c-0.011,0.002-0.021-0.002-0.032,0c-0.541,0.112-0.889,0.642-0.776,1.182l3.124,15.043
		C21.103,45.478,14.5,37.445,14.5,27.848c0-11.323,9.178-20.5,20.5-20.5s20.5,9.177,20.5,20.5
		C55.5,37.445,48.897,45.478,39.993,47.71z"/>
	<path d="M32.842,11.742c-0.39,0-0.777,0.016-1.16,0.047c-0.551,0.045-0.96,0.528-0.915,1.079c0.044,0.522,0.48,0.918,0.996,0.918
		c0.027,0,0.056-0.001,0.083-0.003c0.328-0.027,0.661-0.041,0.996-0.041c0.553,0,1-0.448,1-1S33.395,11.742,32.842,11.742z"/>
	<path d="M27.03,13.007c-4.942,2.269-8.136,7.247-8.136,12.683c0,0.552,0.447,1,1,1s1-0.448,1-1c0-4.657,2.736-8.922,6.97-10.866
		c0.502-0.23,0.723-0.824,0.492-1.326C28.125,12.997,27.53,12.777,27.03,13.007z"/>
	<path d="M29.575,54.84c-0.068,0.548,0.32,1.048,0.868,1.116l7.292,0.912c0.042,0.005,0.084,0.008,0.125,0.008
		c0.497,0,0.928-0.37,0.991-0.876c0.068-0.548-0.32-1.048-0.868-1.116l-7.292-0.912C30.143,53.908,29.645,54.293,29.575,54.84z"/>
	<path d="M37.463,58.817l-6.087-0.76c-0.548-0.063-1.047,0.32-1.116,0.868c-0.068,0.548,0.32,1.048,0.868,1.116l6.087,0.76
		c0.042,0.005,0.084,0.008,0.125,0.008c0.497,0,0.928-0.37,0.991-0.876C38.399,59.386,38.011,58.886,37.463,58.817z"/>
</g>
</svg>
