<?xml version="1.0" encoding="utf-8"?>
<!-- Generator: Adobe Illustrator 16.0.0, SVG Export Plug-In . SVG Version: 6.00 Build 0)  -->
<!DOCTYPE svg PUBLIC "-//W3C//DTD SVG 1.1//EN" "http://www.w3.org/Graphics/SVG/1.1/DTD/svg11.dtd">
<svg version="1.1" id="Layer_1" xmlns="http://www.w3.org/2000/svg" xmlns:xlink="http://www.w3.org/1999/xlink" x="0px" y="0px"
	 width="70px" height="70px" viewBox="0 0 70 70" enable-background="new 0 0 70 70" xml:space="preserve">
<g>
	<g>
		<path d="M62.583,6.583v56h-56v-56H62.583 M63.219,2.583h-56c-2.209,0-4.636,2.398-4.636,4.607v56c0,2.209,2.427,3.393,4.636,3.393
			h56c2.209,0,3.364-1.184,3.364-3.393v-56c0-2.209-1.363-4.607-3.572-4.607H63.219z"/>
	</g>
	<g>
		<g>
			<path d="M8.583,44.417c-0.553,0-1-0.447-1-1v-4c0-0.553,0.447-1,1-1s1,0.447,1,1v4C9.583,43.97,9.136,44.417,8.583,44.417z"/>
		</g>
		<g>
			<path d="M39.417,60.583h-30c-0.553,0-1.834,0.387-1.834-0.166v-11c0-0.553,0.447-1,1-1s1,0.447,1,1v9.166h29.834
				c0.553,0,1,0.447,1,1S39.97,60.583,39.417,60.583z"/>
		</g>
	</g>
	<g>
		<g>
			<g>
				<path d="M19.13,53.366c-0.264,0-0.519-0.104-0.707-0.293c-0.225-0.225-0.329-0.544-0.281-0.858l1.807-11.816
					c0.057-0.372,0.318-0.682,0.677-0.799c0.359-0.115,0.752-0.023,1.019,0.243l10.009,10.011c0.267,0.267,0.36,0.66,0.243,1.019
					s-0.427,0.62-0.799,0.677l-11.815,1.806C19.23,53.362,19.18,53.366,19.13,53.366z M21.626,42.654l-1.302,8.518l8.518-1.302
					L21.626,42.654z"/>
			</g>
			<g>
				<path d="M49.991,32.518c-0.261,0-0.517-0.103-0.707-0.293l-10.01-10.01c-0.267-0.267-0.36-0.66-0.243-1.019
					s0.427-0.62,0.799-0.677l11.814-1.807c0.318-0.047,0.635,0.056,0.858,0.281c0.225,0.225,0.329,0.544,0.281,0.858l-1.805,11.816
					c-0.057,0.372-0.318,0.682-0.677,0.799C50.2,32.501,50.096,32.518,49.991,32.518z M42.086,22.197l7.215,7.216l1.301-8.518
					L42.086,22.197z"/>
			</g>
			<g>
				<path d="M20.033,31.887c-0.104,0-0.209-0.017-0.312-0.05c-0.358-0.117-0.62-0.427-0.677-0.799l-1.808-11.815
					c-0.048-0.314,0.056-0.634,0.281-0.858c0.225-0.226,0.537-0.33,0.858-0.281l11.817,1.806c0.372,0.057,0.682,0.318,0.799,0.677
					s0.023,0.752-0.243,1.019l-10.01,10.01C20.55,31.784,20.294,31.887,20.033,31.887z M19.42,20.266l1.303,8.518l7.216-7.216
					L19.42,20.266z"/>
			</g>
			<g>
				<path d="M50.892,51.583c-0.05,0-0.101,0.574-0.151,0.566l-11.815-1.519c-0.372-0.057-0.682-0.173-0.799-0.531
					s-0.023-0.681,0.243-0.948l10.01-9.972c0.267-0.268,0.658-0.344,1.019-0.227c0.358,0.117,0.62,0.437,0.677,0.81l1.776,11.626
					c0.039,0.107,0.061-0.351,0.061-0.229c-0.001,0.556-0.466,0.424-1.009,0.424C50.898,51.583,50.896,51.583,50.892,51.583z
					 M41.181,49.242l8.517,1.302l-1.302-8.518L41.181,49.242z"/>
			</g>
		</g>
	</g>
</g>
</svg>
