<?xml version="1.0" encoding="utf-8"?>
<!-- Generator: Adobe Illustrator 16.0.0, SVG Export Plug-In . SVG Version: 6.00 Build 0)  -->
<!DOCTYPE svg PUBLIC "-//W3C//DTD SVG 1.1//EN" "http://www.w3.org/Graphics/SVG/1.1/DTD/svg11.dtd">
<svg version="1.1" id="Layer_1" xmlns="http://www.w3.org/2000/svg" xmlns:xlink="http://www.w3.org/1999/xlink" x="0px" y="0px"
	 width="70px" height="70px" viewBox="0 0 70 70" enable-background="new 0 0 70 70" xml:space="preserve">
<g>
	<path d="M56.821,6.614c2.189,0,4.071,1.969,4.071,4.178c0,2.208-1.666,3.791-3.855,3.791H12.963c-2.188,0-3.963-1.792-3.963-4
		c0-2.209,1.774-4,3.963-4h43.62 M57.037,2.583H12.963c-4.391,0-7.963,3.589-7.963,8s3.572,8,7.963,8h44.074
		c4.391,0,7.963-3.589,7.963-8S61.428,2.583,57.037,2.583L57.037,2.583z"/>
	<path d="M52.896,54.677c2.143,0,3.997,1.906,3.997,4.115c0,2.208-1.631,3.791-3.773,3.791H12.882c-2.144,0-3.882-1.792-3.882-4
		c0-2.209,1.738-4,3.882-4h39.701 M53.119,50.583H12.882c-4.346,0-7.882,3.589-7.882,8s3.536,8,7.882,8h40.237
		c4.346,0,7.881-3.589,7.881-8S57.465,50.583,53.119,50.583L53.119,50.583z"/>
	<path d="M36.823,30.583c2.19,0,4.07,2,4.07,4.209c0,2.208-1.666,3.791-3.855,3.791H12.963c-2.188,0-3.963-1.792-3.963-4
		c0-2.209,1.774-4,3.963-4h23.62 M37.037,26.583H12.963c-4.391,0-7.963,3.589-7.963,8s3.572,8,7.963,8h24.074
		c4.391,0,7.963-3.589,7.963-8S41.428,26.583,37.037,26.583L37.037,26.583z"/>
	<g>
		<path d="M17.013,10.583h-3c-0.553,0-1-0.447-1-1s0.447-1,1-1h3c0.552,0,1,0.447,1,1S17.564,10.583,17.013,10.583z"/>
	</g>
	<g>
		<path d="M36.013,10.583h-14c-0.553,0-1-0.447-1-1s0.447-1,1-1h14c0.552,0,1,0.447,1,1S36.564,10.583,36.013,10.583z"/>
	</g>
</g>
</svg>
