<?xml version="1.0" encoding="utf-8"?>
<!-- Generator: Adobe Illustrator 16.0.0, SVG Export Plug-In . SVG Version: 6.00 Build 0)  -->
<!DOCTYPE svg PUBLIC "-//W3C//DTD SVG 1.1//EN" "http://www.w3.org/Graphics/SVG/1.1/DTD/svg11.dtd">
<svg version="1.1" id="Layer_1" xmlns="http://www.w3.org/2000/svg" xmlns:xlink="http://www.w3.org/1999/xlink" x="0px" y="0px"
	 width="70px" height="70px" viewBox="0 0 70 70" enable-background="new 0 0 70 70" xml:space="preserve">
<g>
	<path d="M55.415,2.583h-40c-2.209,0-3.832,1.305-3.832,3.514v57c0,2.209,1.623,3.486,3.832,3.486h40
		c2.209,0,3.168-1.277,3.168-3.486v-56C58.583,4.888,57.624,2.583,55.415,2.583z M54.583,62.583h-39v-56h39V62.583z"/>
	<path d="M50.583,15.583c0-0.552-0.447-1-1-1h-29c-0.552,0-1,0.448-1,1v38c0,0.553,0.448,1,1,1h29c0.553,0,1-0.447,1-1V15.583z
		 M21.583,16.583h27v36h-27V16.583z"/>
	<path d="M30.917,17.583h-7c-0.553,0-1.334,0.281-1.334,0.834v4c0,0.553,0.447,1,1,1s1-0.447,1-1v-2.834h6.334c0.553,0,1-0.447,1-1
		S31.47,17.583,30.917,17.583z"/>
	<path d="M36.917,17.583h-3c-0.553,0-1,0.447-1,1s0.447,1,1,1h3c0.553,0,1-0.447,1-1S37.47,17.583,36.917,17.583z"/>
	<path d="M30.917,11.583h9c0.553,0,1-0.447,1-1s-0.447-1-1-1h-9c-0.553,0-1,0.447-1,1S30.364,11.583,30.917,11.583z"/>
	<path d="M35.915,55.854c-1.517,0-2.75,1.233-2.75,2.75s1.233,2.75,2.75,2.75s2.75-1.233,2.75-2.75S37.432,55.854,35.915,55.854z
		 M35.915,59.354c-0.413,0-0.75-0.337-0.75-0.75s0.337-0.75,0.75-0.75s0.75,0.337,0.75,0.75S36.328,59.354,35.915,59.354z"/>
</g>
</svg>
