<?xml version="1.0" encoding="utf-8"?>
<!-- Generator: Adobe Illustrator 16.0.0, SVG Export Plug-In . SVG Version: 6.00 Build 0)  -->
<!DOCTYPE svg PUBLIC "-//W3C//DTD SVG 1.1//EN" "http://www.w3.org/Graphics/SVG/1.1/DTD/svg11.dtd">
<svg version="1.1" id="Layer_1" xmlns="http://www.w3.org/2000/svg" xmlns:xlink="http://www.w3.org/1999/xlink" x="0px" y="0px"
	 width="70px" height="70px" viewBox="0 0 70 70" enable-background="new 0 0 70 70" xml:space="preserve">
<g>
	<path d="M56.946,7.583h-0.042h-7.321V5.208c0-1.104-0.896-2-2-2s-2,0.896-2,2v2.375h-4V5.208c0-1.104-0.896-2-2-2s-2,0.896-2,2
		v2.375h-5V5.208c0-1.104-0.896-2-2-2s-2,0.896-2,2v2.375h-5V5.208c0-1.104-0.896-2-2-2s-2,0.896-2,2v2.375h-5.678
		c-2.209,0-4.322,2.052-4.322,4.261v51c0,2.209,1.113,3.738,3.322,3.738h44c2.209,0,3.679-1.529,3.679-3.738v-51
		C60.583,9.635,59.155,7.583,56.946,7.583z M19.583,11.583v2.625c0,1.104,0.896,2,2,2s2-0.896,2-2v-2.625h5v2.625
		c0,1.104,0.896,2,2,2s2-0.896,2-2v-2.625h5v2.625c0,1.104,0.896,2,2,2s2-0.896,2-2v-2.625h4v2.625c0,1.104,0.896,2,2,2s2-0.896,2-2
		v-2.625h7v10h-43v-10H19.583z M13.583,62.583v-39h43v39H13.583z"/>
	<path d="M53.583,50.208c-0.552,0-1,0.447-1,1v7.375h-5.666c-0.552,0-1,0.447-1,1s0.448,1,1,1h6.667c0.552,0,0.999-0.447,0.999-1
		v-8.375C54.583,50.655,54.135,50.208,53.583,50.208z"/>
	<path d="M42.917,58.583h-2c-0.552,0-1,0.447-1,1s0.448,1,1,1h2c0.552,0,1-0.447,1-1S43.469,58.583,42.917,58.583z"/>
	<path d="M21.917,31.583h8c0.552,0,1-0.447,1-1s-0.448-1-1-1h-8c-0.552,0-1,0.447-1,1S21.365,31.583,21.917,31.583z"/>
	<path d="M33.917,31.583h15c0.552,0,1-0.447,1-1s-0.448-1-1-1h-15c-0.552,0-1,0.447-1,1S33.365,31.583,33.917,31.583z"/>
	<path d="M41.917,50.583c0-0.553-0.448-1-1-1h-7c-0.552,0-1,0.447-1,1s0.448,1,1,1h7C41.469,51.583,41.917,51.136,41.917,50.583z"/>
	<path d="M48.917,44.583h-8c-0.552,0-1,0.447-1,1s0.448,1,1,1h8c0.552,0,1-0.447,1-1S49.469,44.583,48.917,44.583z"/>
	<path d="M21.917,46.583h15c0.552,0,1-0.447,1-1s-0.448-1-1-1h-15c-0.552,0-1,0.447-1,1S21.365,46.583,21.917,46.583z"/>
	<path d="M28.917,49.583h-7c-0.552,0-1,0.447-1,1s0.448,1,1,1h7c0.552,0,1-0.447,1-1S29.469,49.583,28.917,49.583z"/>
	<path d="M21.917,36.583h6c0.552,0,1-0.447,1-1s-0.448-1-1-1h-6c-0.552,0-1,0.447-1,1S21.365,36.583,21.917,36.583z"/>
	<path d="M31.917,36.583h17c0.552,0,1-0.447,1-1s-0.448-1-1-1h-17c-0.552,0-1,0.447-1,1S31.365,36.583,31.917,36.583z"/>
	<path d="M21.917,41.583h13c0.552,0,1-0.447,1-1s-0.448-1-1-1h-13c-0.552,0-1,0.447-1,1S21.365,41.583,21.917,41.583z"/>
	<path d="M48.917,39.583h-10c-0.552,0-1,0.447-1,1s0.448,1,1,1h10c0.552,0,1-0.447,1-1S49.469,39.583,48.917,39.583z"/>
</g>
</svg>
