<?xml version="1.0" encoding="utf-8"?>
<!-- Generator: Adobe Illustrator 16.0.0, SVG Export Plug-In . SVG Version: 6.00 Build 0)  -->
<!DOCTYPE svg PUBLIC "-//W3C//DTD SVG 1.1//EN" "http://www.w3.org/Graphics/SVG/1.1/DTD/svg11.dtd">
<svg version="1.1" id="Layer_1" xmlns="http://www.w3.org/2000/svg" xmlns:xlink="http://www.w3.org/1999/xlink" x="0px" y="0px"
	 width="70px" height="70px" viewBox="0 0 70 70" enable-background="new 0 0 70 70" xml:space="preserve">
<g>
	<path d="M64.808,9.887c-0.092-2.14-1.854-4.304-3.996-4.304H9.189c-2.142,0-3.904,2.294-3.996,4.435L3.042,60.145
		c-0.047,1.09,0.353,1.785,1.107,2.572c0.754,0.788,1.798,0.866,2.889,0.866h20.765c1.619,0,3.079-0.457,3.697-1.953l4.128-9.731
		l4.128,9.601c0.618,1.497,2.077,2.084,3.696,2.084h19.51c1.091,0,2.134,0.074,2.889-0.713s1.154-1.592,1.107-2.682L64.808,9.887z
		 M61.893,35.173c-2.591-2.824-7.251-8.76-7.936-15.59h7.253L61.893,35.173z M60.772,9.583l0.351,8h-20.54v-3h2.077
		c0.553,0,1-0.447,1-1s-0.447-1-1-1h-2.077v-3h20H60.772z M34.661,14.583h3.922v3h-10v-8h10v3h-3.922c-0.553,0-1,0.447-1,1
		S34.108,14.583,34.661,14.583z M26.583,9.583v8H8.845l0.344-8H26.583z M8.759,19.583h7.208c-0.679,6.778-5.273,12.676-7.876,15.525
		L8.759,19.583z M43.452,59.583l-7.826-18.938l-7.824,18.938H7.038l0.924-21.467c1.656-1.562,9.064-9.021,9.996-18.337
		c0.007-0.068-0.013-0.131-0.02-0.196h34.048c-0.007,0.065-0.026,0.128-0.02,0.196c0.943,9.431,8.526,16.962,10.058,18.395
		l0.938,21.409H43.452z"/>
	<path d="M22.661,14.583h1c0.553,0,1-0.447,1-1s-0.447-1-1-1h-1c-0.553,0-1,0.447-1,1S22.108,14.583,22.661,14.583z"/>
	<path d="M15.661,14.583h1c0.553,0,1-0.447,1-1s-0.447-1-1-1h-1c-0.553,0-1,0.447-1,1S15.108,14.583,15.661,14.583z"/>
	<path d="M48.66,14.583h1c0.553,0,1-0.447,1-1s-0.447-1-1-1h-1c-0.553,0-1,0.447-1,1S48.107,14.583,48.66,14.583z"/>
	<path d="M54.66,14.583h1c0.553,0,1-0.447,1-1s-0.447-1-1-1h-1c-0.553,0-1,0.447-1,1S54.107,14.583,54.66,14.583z"/>
</g>
</svg>
