<?xml version="1.0" encoding="utf-8"?>
<!-- Generator: Adobe Illustrator 16.0.0, SVG Export Plug-In . SVG Version: 6.00 Build 0)  -->
<!DOCTYPE svg PUBLIC "-//W3C//DTD SVG 1.1//EN" "http://www.w3.org/Graphics/SVG/1.1/DTD/svg11.dtd">
<svg version="1.1" id="Layer_1" xmlns="http://www.w3.org/2000/svg" xmlns:xlink="http://www.w3.org/1999/xlink" x="0px" y="0px"
	 width="70px" height="70px" viewBox="0 0 70 70" enable-background="new 0 0 70 70" xml:space="preserve">
<g>
	<path d="M58.858,12.968l-7.965-8.7c-0.75-0.75-1.543-1.685-2.604-1.685H13.478c-2.209,0-3.895,1.817-3.895,4.026v57
		c0,2.209,2.686,2.974,4.895,2.974h42c2.209,0,3.105-0.765,3.105-2.974V15.796C59.583,14.735,59.608,13.718,58.858,12.968z
		 M55.247,14.583h-6.664V8.399L55.247,14.583z M13.583,62.583v-56h33v9.387c0,0.553,0.843,0.613,1.396,0.613h7.604v46H13.583z"/>
	<path d="M49.417,51.583H21.583V22.417c0-0.553-0.447-1-1-1s-1,0.447-1,1v31c0,0.553,1.281,0.166,1.834,0.166h28
		c0.553,0,1-0.447,1-1S49.97,51.583,49.417,51.583z"/>
	<path d="M24.848,43.347c0.512,0.202,1.095-0.048,1.298-0.562l2.375-6.001l5.98,11.106c0.176,0.326,0.516,0.526,0.881,0.526
		c0.034,0,0.069-0.002,0.104-0.006c0.404-0.042,0.742-0.324,0.855-0.714l2.978-10.209l1.747,2.073
		c0.23,0.273,0.594,0.403,0.941,0.34c0.353-0.063,0.644-0.31,0.765-0.646l3.051-8.5c0.187-0.52-0.084-1.093-0.604-1.279
		c-0.52-0.188-1.093,0.083-1.279,0.604l-2.464,6.865l-1.83-2.172c-0.238-0.281-0.608-0.41-0.972-0.334
		c-0.36,0.076-0.649,0.345-0.753,0.698l-2.816,9.657l-5.843-10.851c-0.186-0.343-0.559-0.538-0.939-0.524
		c-0.389,0.022-0.729,0.269-0.871,0.63l-3.166,8C24.083,42.563,24.334,43.144,24.848,43.347z"/>
</g>
</svg>
