<?xml version="1.0" encoding="utf-8"?>
<!-- Generator: Adobe Illustrator 16.0.0, SVG Export Plug-In . SVG Version: 6.00 Build 0)  -->
<!DOCTYPE svg PUBLIC "-//W3C//DTD SVG 1.1//EN" "http://www.w3.org/Graphics/SVG/1.1/DTD/svg11.dtd">
<svg version="1.1" id="Layer_1" xmlns="http://www.w3.org/2000/svg" xmlns:xlink="http://www.w3.org/1999/xlink" x="0px" y="0px"
	 width="70px" height="70px" viewBox="0 0 70 70" enable-background="new 0 0 70 70" xml:space="preserve">
<g>
	<path d="M60.192,17.583h-6.594l2.634-2.76c0.195-0.205,0.346-0.449,0.439-0.717c0.42-1.194,0.264-2.558-0.465-4.05
		c-1.406-2.88-4.85-5.902-6.872-6.582c-4.212-1.415-8.481,1.669-9.888,5.472l-3.865,7.817l-3.867-7.817
		c-1.406-3.803-5.673-6.892-9.887-5.472c-2.42,0.813-5.778,3.287-7.235,6.271c-0.745,1.525-0.892,3.033-0.425,4.36
		c0.101,0.285,0.264,0.544,0.479,0.756l2.745,2.721H9.4c-2.209,0-3.817,1.821-3.817,4.03v10c0,2.209,2.608,3.97,4.817,3.97h0.183
		v29.295c0,1.104,0.396,1.705,1.5,1.705h45.334c1.104,0,1.166-0.601,1.166-1.705V35.583H60.4c2.209,0,3.183-1.761,3.183-3.97v-10
		C63.583,19.404,62.401,17.583,60.192,17.583z M43.083,10.619c0.036-0.072,0.067-0.146,0.094-0.223
		c0.695-1.974,2.98-3.771,4.884-3.131c1.629,0.548,4.646,3.903,4.842,5.253l-4.833,5.065h-8.432L43.083,10.619z M17.9,12.456
		c0.012-0.263,0.109-0.59,0.287-0.955c0.889-1.821,3.304-3.693,4.916-4.235c1.9-0.64,4.187,1.157,4.882,3.131
		c0.026,0.076,0.058,0.15,0.095,0.223l3.445,6.964h-8.453L17.9,12.456z M14.583,35.583h13v27h-13V35.583z M37.583,35.583v27h-8v-27
		H37.583z M54.583,62.583h-15v-27h15V62.583z M59.583,31.583h-50v-10h50V31.583z"/>
	<path d="M51.583,47.878c0.553,0,1-0.447,1-1v-1c0-0.553-0.447-1-1-1s-1,0.447-1,1v1C50.583,47.431,51.03,47.878,51.583,47.878z"/>
	<path d="M45.417,60.583h6.213c0.553,0,0.953-0.152,0.953-0.705v-9c0-0.553-0.447-1-1-1s-1,0.447-1,1v7.705h-5.166
		c-0.553,0-1,0.447-1,1S44.864,60.583,45.417,60.583z"/>
</g>
</svg>
