<?xml version="1.0" encoding="utf-8"?>
<!-- Generator: Adobe Illustrator 16.0.0, SVG Export Plug-In . SVG Version: 6.00 Build 0)  -->
<!DOCTYPE svg PUBLIC "-//W3C//DTD SVG 1.1//EN" "http://www.w3.org/Graphics/SVG/1.1/DTD/svg11.dtd">
<svg version="1.1" id="Layer_1" xmlns="http://www.w3.org/2000/svg" xmlns:xlink="http://www.w3.org/1999/xlink" x="0px" y="0px"
	 width="70px" height="70px" viewBox="0 0 70 70" enable-background="new 0 0 70 70" xml:space="preserve">
<g>
	<path d="M13.051,42.684l6.57-8.994c0.447-0.607,0.514-1.323,0.173-1.997c-0.34-0.672-1.03-1.109-1.784-1.109h-4.16
		c1.611-11,10.739-18.854,21.732-18.854c7.715,0,14.729,3.835,18.767,10.422c0.577,0.942,1.808,1.188,2.75,0.611
		c0.941-0.577,1.237-1.833,0.66-2.774c-4.77-7.783-13.06-12.247-22.177-12.247c-13.202,0-24.126,9.842-25.768,22.842H4.868
		c-0.754,0-1.444,0.438-1.784,1.109c-0.341,0.674-0.274,1.592,0.173,2.199l6.571,8.893c0.377,0.513,0.975,0.791,1.611,0.791
		S12.674,43.196,13.051,42.684z M8.82,34.583h5.238l-2.619,3.564L8.82,34.583z"/>
	<path d="M52.075,24.851c0.471-0.288,0.619-0.904,0.33-1.375c-3.646-5.949-9.982-9.501-16.95-9.501
		c-7.049,0-13.632,3.789-17.181,9.888c-0.277,0.478-0.116,1.09,0.361,1.367c0.158,0.092,0.331,0.136,0.502,0.136
		c0.345,0,0.68-0.178,0.865-0.497c3.191-5.485,9.112-8.894,15.452-8.894c6.267,0,11.966,3.194,15.245,8.546
		C50.988,24.991,51.604,25.139,52.075,24.851z"/>
	<path d="M19.28,45.48c-0.288-0.47-0.903-0.618-1.375-0.33c-0.471,0.288-0.619,0.904-0.33,1.375c3.646,5.948,9.981,9.5,16.95,9.5
		c7.571,0,14.595-4.406,17.893-11.225c0.24-0.497,0.032-1.096-0.465-1.336c-0.5-0.238-1.096-0.031-1.336,0.465
		c-2.966,6.133-9.282,10.096-16.092,10.096C28.258,54.025,22.56,50.831,19.28,45.48z"/>
	<path d="M66.581,34.224l-6.429-8.753c-0.377-0.513-0.975-0.829-1.611-0.829s-1.234,0.277-1.611,0.79l-6.57,8.889
		c-0.447,0.607-0.514,1.507-0.173,2.179c0.34,0.674,1.03,1.084,1.784,1.084h4.401c-0.381,11-10.087,21.079-21.974,21.079
		c-7.715,0-14.73-4.03-18.767-10.616c-0.576-0.942-1.808-1.287-2.75-0.709c-0.941,0.577-1.237,1.784-0.66,2.726
		c4.769,7.782,13.06,12.612,22.177,12.612c14.092,0,25.592-11.092,25.974-25.092h4.74c0.008,0,0.016,0,0.02,0
		c1.105,0,2-0.886,2-1.99C67.132,35.059,66.923,34.582,66.581,34.224z M55.922,33.583l2.619-3.564l2.619,3.564H55.922z"/>
</g>
</svg>
