<?xml version="1.0" encoding="utf-8"?>
<!-- Generator: Adobe Illustrator 16.0.0, SVG Export Plug-In . SVG Version: 6.00 Build 0)  -->
<!DOCTYPE svg PUBLIC "-//W3C//DTD SVG 1.1//EN" "http://www.w3.org/Graphics/SVG/1.1/DTD/svg11.dtd">
<svg version="1.1" id="Layer_1" xmlns="http://www.w3.org/2000/svg" xmlns:xlink="http://www.w3.org/1999/xlink" x="0px" y="0px"
	 width="70px" height="70px" viewBox="0 0 70 70" enable-background="new 0 0 70 70" xml:space="preserve">
<g>
	<path d="M31.027,21.241c-2.526,0-5.054,0.964-6.982,2.893c-3.856,3.856-3.856,10.109,0,13.966c0.453,0.453,0.943,0.849,1.455,1.195
		l13.707-13.705c-0.348-0.513-0.743-1.002-1.197-1.456C36.082,22.205,33.555,21.241,31.027,21.241z M25.649,33.489
		c-0.326-0.737-0.497-1.542-0.497-2.372c0-1.57,0.611-3.045,1.721-4.155c1.11-1.109,2.585-1.721,4.154-1.721
		c0.831,0,1.636,0.172,2.374,0.497L25.649,33.489z"/>
	<path d="M65.676,17.504l-9.192-9.192c-0.75-0.75-1.768-1.172-2.828-1.172c-1.062,0-2.078,0.422-2.829,1.172L49.18,9.959
		c-5.053-4.349-11.421-6.719-18.152-6.719c-7.445,0-14.445,2.899-19.71,8.165C6.052,16.67,3.152,23.67,3.152,31.117
		c0.001,6.732,2.372,13.101,6.718,18.15l-1.471,1.473c-1.562,1.563-1.562,4.094,0.001,5.656l9.192,9.191
		c0.781,0.781,1.805,1.172,2.828,1.172s2.047-0.391,2.828-1.172l22.625-22.625c0.001,0,0.002,0,0.003-0.002
		c0.001,0,0.001-0.002,0.002-0.002l19.797-19.797C67.238,21.599,67.238,19.066,65.676,17.504z M57.897,25.283l-2.828-2.828
		c-0.391-0.391-1.023-0.391-1.414,0s-0.391,1.023,0,1.414l2.828,2.828l-2.121,2.122l-0.708-0.708c-0.391-0.391-1.023-0.391-1.414,0
		s-0.391,1.023,0,1.414l0.708,0.708l-2.122,2.121l-0.707-0.708c-0.391-0.391-1.023-0.391-1.414,0s-0.391,1.023,0,1.414l0.707,0.708
		l-2.121,2.122l-0.707-0.707c-0.391-0.391-1.023-0.391-1.414,0s-0.391,1.023,0,1.414l0.707,0.707l-2.121,2.122l-0.707-0.707
		c-0.391-0.391-1.023-0.391-1.414,0c-0.391,0.391-0.391,1.023,0,1.414l0.707,0.707L40.22,42.96l-2.828-2.828
		c-0.391-0.391-1.023-0.391-1.414,0s-0.391,1.023,0,1.414l2.828,2.828l-2.121,2.121l-0.707-0.707c-0.391-0.391-1.023-0.391-1.414,0
		s-0.391,1.023,0,1.414l0.707,0.707l-2.122,2.123l-0.707-0.709c-0.391-0.391-1.023-0.391-1.414,0s-0.391,1.023,0,1.414l0.707,0.709
		l-2.121,2.121l-0.707-0.707c-0.391-0.391-1.023-0.391-1.414,0s-0.391,1.023,0,1.414l0.707,0.707l-2.121,2.121l-0.707-0.707
		c-0.391-0.391-1.023-0.391-1.414,0s-0.391,1.023,0,1.414l0.707,0.707l-4.243,4.242l-9.192-9.191l4.299-4.301
		c-0.471-0.402-0.936-0.822-1.382-1.27c-2.507-2.506-4.317-5.438-5.476-8.559l2.769-0.876c0.526-0.167,0.818-0.729,0.651-1.255
		s-0.724-0.821-1.255-0.651l-2.79,0.866c-0.901-3.234-1.096-6.938-0.608-9.938h2.16c0.553,0,1-0.447,1-1s-0.447-1-1-1H7.818
		c0.92-4,2.833-7.591,5.74-10.718l1.913,1.922c0.195,0.195,0.451,0.298,0.707,0.298s0.512-0.096,0.707-0.291
		c0.391-0.391,0.391-1.022,0-1.413l-1.702-1.903c2.724-2.48,5.4-4.242,9.4-5.236v1.795c0,0.553,0.447,1,1,1s1-0.447,1-1V7.748
		c1-0.33,3.02-0.507,4.646-0.507c2.647,0,5.186,0.465,7.716,1.34l-0.737,2.166c-0.167,0.526,0.1,1.088,0.626,1.255
		c0.101,0.032,0.189,0.047,0.289,0.047c0.425,0,0.812-0.272,0.946-0.698l0.643-2.037c2.608,1.158,5.061,2.782,7.199,4.921
		c0.446,0.447,0.864,0.91,1.269,1.383l4.475-4.477l9.192,9.192L57.897,25.283z"/>
</g>
</svg>
