<?xml version="1.0" encoding="utf-8"?>
<!-- Generator: Adobe Illustrator 16.0.0, SVG Export Plug-In . SVG Version: 6.00 Build 0)  -->
<!DOCTYPE svg PUBLIC "-//W3C//DTD SVG 1.1//EN" "http://www.w3.org/Graphics/SVG/1.1/DTD/svg11.dtd">
<svg version="1.1" id="Layer_1" xmlns="http://www.w3.org/2000/svg" xmlns:xlink="http://www.w3.org/1999/xlink" x="0px" y="0px"
	 width="70px" height="70px" viewBox="0 0 70 70" enable-background="new 0 0 70 70" xml:space="preserve">
<g>
	<path d="M51.5,39c-4.915,0-9.239,2.552-11.737,6.395l-4.876-2.438C35.909,40.85,36.5,38.495,36.5,36c0-2.044-0.4-3.994-1.102-5.792
		l10.367-6.047C47.856,25.928,50.554,27,53.5,27c6.617,0,12-5.383,12-12s-5.383-12-12-12c-6.616,0-12,5.383-12,12
		c0,2.209,0.61,4.273,1.656,6.053l-9.668,5.64C30.582,22.648,25.849,20,20.5,20c-8.822,0-16,7.178-16,16s7.178,16,16,16
		c4.884,0,9.257-2.206,12.194-5.666l5.388,2.693C37.708,50.288,37.5,51.619,37.5,53c0,7.72,6.281,14,14,14c7.721,0,14-6.28,14-14
		S59.221,39,51.5,39z M53.5,7c4.418,0,8,3.582,8,8s-3.582,8-8,8s-8-3.582-8-8S49.082,7,53.5,7z M20.5,48c-6.627,0-12-5.373-12-12
		s5.373-12,12-12s12,5.373,12,12S27.127,48,20.5,48z M51.5,63c-5.521,0-10-4.477-10-10s4.479-10,10-10c5.523,0,10,4.477,10,10
		S57.023,63,51.5,63z"/>
	<path d="M20.5,26.6c-0.631,0-1.265,0.064-1.881,0.19c-0.541,0.11-0.89,0.639-0.779,1.18c0.097,0.474,0.514,0.8,0.979,0.8
		c0.066,0,0.134-0.007,0.202-0.021C19.505,28.65,20.003,28.6,20.5,28.6c0.553,0,1-0.447,1-1S21.053,26.6,20.5,26.6z"/>
	<path d="M12.979,30.36c-1.229,1.635-1.879,3.586-1.879,5.64c0,0.553,0.447,1,1,1c0.552,0,1-0.447,1-1
		c0-1.617,0.511-3.152,1.478-4.438c0.332-0.441,0.243-1.068-0.198-1.4C13.938,29.831,13.312,29.919,12.979,30.36z"/>
	<path d="M45.589,48.845c-1.147,1.527-1.755,3.349-1.755,5.267c0,0.553,0.447,1,1,1s1-0.447,1-1c0-1.481,0.469-2.887,1.354-4.065
		c0.332-0.441,0.243-1.068-0.199-1.4C46.548,48.315,45.92,48.403,45.589,48.845z"/>
	<path d="M48.67,15.686c0.092,0.026,0.186,0.039,0.277,0.039c0.434,0,0.834-0.285,0.961-0.724c0.362-1.259,1.105-2.341,2.146-3.126
		c0.441-0.333,0.529-0.96,0.197-1.401c-0.332-0.439-0.96-0.528-1.4-0.196c-1.391,1.049-2.382,2.491-2.865,4.171
		C47.833,14.979,48.139,15.532,48.67,15.686z"/>
</g>
</svg>
