<?xml version="1.0" encoding="utf-8"?>
<!-- Generator: Adobe Illustrator 16.0.0, SVG Export Plug-In . SVG Version: 6.00 Build 0)  -->
<!DOCTYPE svg PUBLIC "-//W3C//DTD SVG 1.1//EN" "http://www.w3.org/Graphics/SVG/1.1/DTD/svg11.dtd">
<svg version="1.1" id="Layer_1" xmlns="http://www.w3.org/2000/svg" xmlns:xlink="http://www.w3.org/1999/xlink" x="0px" y="0px"
	 width="70px" height="70px" viewBox="0 0 70 70" enable-background="new 0 0 70 70" xml:space="preserve">
<g>
	<path d="M63.404,3.583h-57c-2.209,0-3.822,2.1-3.822,4.309v54.92c0,2.209,2.613,2.771,4.822,2.771h56
		c2.209,0,3.179-0.563,3.179-2.771V8.892C66.583,6.683,65.613,3.583,63.404,3.583z M62.583,61.583h-56v-54h56V61.583z"/>
	<path d="M33.417,22.583h12c0.552,0,1-0.447,1-1s-0.448-1-1-1h-12c-0.552,0-1,0.447-1,1S32.865,22.583,33.417,22.583z"/>
	<path d="M49.417,22.583h9c0.552,0,1-0.447,1-1s-0.448-1-1-1h-9c-0.552,0-1,0.447-1,1S48.865,22.583,49.417,22.583z"/>
	<path d="M33.417,27.583h6c0.552,0,1-0.447,1-1s-0.448-1-1-1h-6c-0.552,0-1,0.447-1,1S32.865,27.583,33.417,27.583z"/>
	<path d="M51.417,26.583c0-0.553-0.448-1-1-1h-7c-0.552,0-1,0.447-1,1s0.448,1,1,1h7C50.969,27.583,51.417,27.136,51.417,26.583z"/>
	<path d="M33.417,32.583h10c0.552,0,1-0.447,1-1s-0.448-1-1-1h-10c-0.552,0-1,0.447-1,1S32.865,32.583,33.417,32.583z"/>
	<path d="M47.417,32.583h7c0.552,0,1-0.447,1-1s-0.448-1-1-1h-7c-0.552,0-1,0.447-1,1S46.865,32.583,47.417,32.583z"/>
	<path d="M58.417,25.583h-4c-0.552,0-1,0.447-1,1s0.448,1,1,1h4c0.552,0,1-0.447,1-1S58.969,25.583,58.417,25.583z"/>
	<path d="M14.417,42.583c0,0.553,0.448,1,1,1h17c0.552,0,1-0.447,1-1s-0.448-1-1-1h-17C14.865,41.583,14.417,42.03,14.417,42.583z"
		/>
	<path d="M35.417,42.583c0,0.553,0.448,1,1,1h12c0.552,0,1-0.447,1-1s-0.448-1-1-1h-12C35.865,41.583,35.417,42.03,35.417,42.583z"
		/>
	<path d="M58.417,41.583h-6c-0.552,0-1,0.447-1,1s0.448,1,1,1h6c0.552,0,1-0.447,1-1S58.969,41.583,58.417,41.583z"/>
	<path d="M15.417,48.583h11c0.552,0,1-0.447,1-1s-0.448-1-1-1h-11c-0.552,0-1,0.447-1,1S14.865,48.583,15.417,48.583z"/>
	<path d="M29.417,47.583c0,0.553,0.448,1,1,1h7c0.552,0,1-0.447,1-1s-0.448-1-1-1h-7C29.865,46.583,29.417,47.03,29.417,47.583z"/>
	<path d="M30.417,51.583h-15c-0.552,0-1,0.447-1,1s0.448,1,1,1h15c0.552,0,1-0.447,1-1S30.969,51.583,30.417,51.583z"/>
	<path d="M45.417,51.583h-11c-0.552,0-1,0.447-1,1s0.448,1,1,1h11c0.552,0,1-0.447,1-1S45.969,51.583,45.417,51.583z"/>
	<path d="M58.417,51.583h-10c-0.552,0-1,0.447-1,1s0.448,1,1,1h10c0.552,0,1-0.447,1-1S58.969,51.583,58.417,51.583z"/>
	<path d="M58.417,46.583h-16c-0.552,0-1,0.447-1,1s0.448,1,1,1h16c0.552,0,1-0.447,1-1S58.969,46.583,58.417,46.583z"/>
	<path d="M13.583,26.417c0.552,0,1-0.447,1-1v-2.834h5v13h-1.166c-0.552,0-1,0.447-1,1s0.448,1,1,1h5c0.552,0,1-0.447,1-1
		s-0.448-1-1-1h-1.834v-13h5v2.834c0,0.553,0.448,1,1,1s1-0.447,1-1v-2.626c0.042-2.208-0.614-2.208-1.166-2.208h-13
		c-0.384,0-1.042,0.138-1.209,0.457c-0.318,0.167-0.625,0.993-0.625,1.377v3C12.583,25.97,13.031,26.417,13.583,26.417z"/>
</g>
</svg>
