<?xml version="1.0" encoding="utf-8"?>
<!-- Generator: Adobe Illustrator 16.0.0, SVG Export Plug-In . SVG Version: 6.00 Build 0)  -->
<!DOCTYPE svg PUBLIC "-//W3C//DTD SVG 1.1//EN" "http://www.w3.org/Graphics/SVG/1.1/DTD/svg11.dtd">
<svg version="1.1" id="Layer_1" xmlns="http://www.w3.org/2000/svg" xmlns:xlink="http://www.w3.org/1999/xlink" x="0px" y="0px"
	 width="70px" height="70px" viewBox="0 0 70 70" enable-background="new 0 0 70 70" xml:space="preserve">
<g>
	<path d="M58.792,18.241c-0.38-0.442-0.934-0.658-1.517-0.658h-43c-0.583,0-1.137,0.225-1.517,0.667s-0.549,1-0.461,1.576l7,46.02
		c0.149,0.977,0.989,1.737,1.978,1.737h29c0.988,0,1.828-0.75,1.978-1.729l7-46.028C59.341,19.25,59.172,18.684,58.792,18.241z
		 M54.948,21.583l-0.761,5H17.363l-0.761-5H54.948z M48.557,63.583h-4.101l2.643-20.34c0.071-0.549-0.314-1.051-0.862-1.121
		c-0.554-0.076-1.05,0.314-1.12,0.863L42.44,63.583h-5.857v-7.076c0-0.553-0.447-1-1-1s-1,0.447-1,1v7.076h-5.344l-2.973-20.611
		c-0.079-0.547-0.585-0.932-1.133-0.848c-0.547,0.078-0.926,0.586-0.848,1.133l2.932,20.326h-4.223l-5.326-35h4.727l0.884,10.613
		c0.043,0.523,0.48,0.918,0.995,0.918c0.027,0,0.056-0.002,0.084-0.004c0.551-0.047,0.959-0.529,0.913-1.08l-0.871-10.447h10.182
		v23.924c0,0.553,0.447,1,1,1s1-0.447,1-1V28.583h10.399L46.111,39.03c-0.046,0.551,0.362,1.033,0.913,1.08
		c0.028,0.002,0.057,0.004,0.084,0.004c0.515,0,0.952-0.395,0.995-0.918l0.885-10.613h4.895L48.557,63.583z"/>
	<path d="M56.725,15.583c1.104,0,2-0.896,2-2s-0.896-2-2-2H43.151c0.075-0.211,0.124-0.435,0.124-0.672c0-4.411-3.589-8-8-8
		s-8,3.589-8,8c0,0.237,0.048,0.461,0.124,0.672H12.725c-1.104,0-2,0.896-2,2s0.896,2,2,2H56.725z M31.275,10.911
		c0-2.206,1.794-4,4-4s4,1.794,4,4c0,0.237,0.049,0.461,0.124,0.672h-8.248C31.227,11.372,31.275,11.148,31.275,10.911z"/>
</g>
</svg>
