<?xml version="1.0" encoding="utf-8"?>
<!-- Generator: Adobe Illustrator 16.0.0, SVG Export Plug-In . SVG Version: 6.00 Build 0)  -->
<!DOCTYPE svg PUBLIC "-//W3C//DTD SVG 1.1//EN" "http://www.w3.org/Graphics/SVG/1.1/DTD/svg11.dtd">
<svg version="1.1" id="Layer_1" xmlns="http://www.w3.org/2000/svg" xmlns:xlink="http://www.w3.org/1999/xlink" x="0px" y="0px"
	 width="70px" height="70px" viewBox="0 0 70 70" enable-background="new 0 0 70 70" xml:space="preserve">
<g>
	<path d="M66.563,34.363L59.22,13.257c-0.439-1.265-1.412-2.602-2.479-3.414c-0.793-0.604-2.903-2.209-20.253-2.209
		c-16.222,0-21.478,1.702-22.023,1.896c-1.672,0.595-3.127,2.061-3.709,3.734l-7.342,21.11c-0.51,1.465-0.293,3.047,0.58,4.273
		c0.873,1.229,2.319,1.935,3.87,1.935h8.721v17.051c0,2.757,2.522,4.949,5.279,4.949h26.252c2.756,0,4.469-2.192,4.469-4.949V40.583
		h9.531c1.551,0,2.996-0.706,3.869-1.935C66.856,37.422,67.073,35.827,66.563,34.363z M43.789,11.753
		c-0.79,3.333-4.434,5.862-8.801,5.862c-4.299,0-7.898-2.449-8.764-5.705c2.741-0.165,6.12-0.276,10.264-0.276
		C39.355,11.634,41.761,11.679,43.789,11.753z M48.583,47.583h-28v-3h28V47.583z M48.114,58.583H21.862
		c-0.55,0-1.279-0.399-1.279-0.949v-8.051h28v8.051C48.583,58.184,48.663,58.583,48.114,58.583z M62.114,36.583h-9.252
		c-0.551,0-1.316-0.294-1.704-0.685l-1.341-1.343c-0.15-0.152-1.234-1.472-1.234,0.302v7.726h-28v-7.726
		c0-0.305-0.193-0.36-0.323-0.153l-0.648,1.058c-0.293,0.467-0.948,0.821-1.498,0.821H7.862c-0.55,0-0.852-0.399-0.671-0.919
		l7.343-21.099c0.181-0.52,0.752-1.088,1.271-1.273c0,0,2.131-0.751,8.404-1.243c0.929,4.296,5.404,7.566,10.779,7.566
		c5.461,0,9.99-3.377,10.817-7.774c7.458,0.388,8.514,1.188,8.514,1.188c0.438,0.333,0.943,1.03,1.124,1.55l7.343,21.086
		C62.966,36.184,62.663,36.583,62.114,36.583z"/>
	<path d="M12.954,27.446c-0.523-0.184-1.091,0.095-1.273,0.616l-0.689,1.981c-0.182,0.521,0.094,1.091,0.616,1.272
		c0.109,0.038,0.22,0.056,0.329,0.056c0.414,0,0.801-0.259,0.944-0.672l0.689-1.981C13.751,28.197,13.475,27.628,12.954,27.446z"/>
	<path d="M21.889,14.272c-3.516,0.448-4.287,0.66-4.439,0.714c-0.808,0.288-1.598,1.084-1.879,1.894l-2.847,8.183
		c-0.182,0.521,0.094,1.091,0.616,1.272c0.109,0.038,0.22,0.056,0.329,0.056c0.414,0,0.801-0.259,0.944-0.672l2.847-8.183
		c0.082-0.233,0.428-0.582,0.627-0.654c0.027-0.008,0.706-0.198,4.056-0.625c0.548-0.07,0.935-0.57,0.866-1.118
		C22.938,14.591,22.429,14.21,21.889,14.272z"/>
</g>
</svg>
