<?xml version="1.0" encoding="utf-8"?>
<!-- Generator: Adobe Illustrator 16.0.0, SVG Export Plug-In . SVG Version: 6.00 Build 0)  -->
<!DOCTYPE svg PUBLIC "-//W3C//DTD SVG 1.1//EN" "http://www.w3.org/Graphics/SVG/1.1/DTD/svg11.dtd">
<svg version="1.1" id="Layer_1" xmlns="http://www.w3.org/2000/svg" xmlns:xlink="http://www.w3.org/1999/xlink" x="0px" y="0px"
	 width="70px" height="70px" viewBox="0 0 70 70" enable-background="new 0 0 70 70" xml:space="preserve">
<g>
	<path d="M51.034,28.583h-2.451v-2.13c0-1.104-0.896-2-2-2s-2,0.896-2,2v2.13h-22V17.347c0-5.628,5.583-10.383,11.712-10.383
		c5.514,0,10.449,4.073,11.079,9.476c0.128,1.098,1.15,1.896,2.245,1.755c1.098-0.128,1.855-1.121,1.728-2.218
		C48.482,8.558,41.841,2.964,34.296,2.964c-8.441,0-15.713,6.452-15.713,14.383v11.692c-2,0.018-4,1.728-4,3.925v30
		c0,2.209,2.242,3.619,4.451,3.619h32c2.209,0,3.549-1.41,3.549-3.619v-30C54.583,30.755,53.243,28.583,51.034,28.583z
		 M18.583,62.583v-3h2.834c0.552,0,1-0.447,1-1s-0.448-1-1-1h-2.834v-4h2.834c0.552,0,1-0.447,1-1s-0.448-1-1-1h-2.834v-3h2.834
		c0.552,0,1-0.447,1-1s-0.448-1-1-1h-2.834v-4h2.834c0.552,0,1-0.447,1-1s-0.448-1-1-1h-2.834v-4h2.834c0.552,0,1-0.447,1-1
		s-0.448-1-1-1h-2.834v-2h32v2h-3.166c-0.552,0-1,0.447-1,1s0.448,1,1,1h3.166v4h-3.166c-0.552,0-1,0.447-1,1s0.448,1,1,1h3.166v4
		h-3.166c-0.552,0-1,0.447-1,1s0.448,1,1,1h3.166v3h-3.166c-0.552,0-1,0.447-1,1s0.448,1,1,1h3.166v4h-3.166c-0.552,0-1,0.447-1,1
		s0.448,1,1,1h3.166v3H18.583z"/>
	<path d="M35.034,40.964c-3.309,0-6,2.691-6,6c0,1.928,0.944,3.721,2.458,4.834l-0.319,2.951c-0.062,0.564,0.12,0.939,0.5,1.361
		s0.921,0.473,1.488,0.473h3.746c0.567,0,1.108-0.051,1.488-0.473s0.562-0.893,0.5-1.457l-0.319-2.902
		c1.514-1.113,2.458-2.884,2.458-4.812C41.034,43.631,38.343,40.964,35.034,40.964z M36.447,50.513l0.46,4.07h-3.746l0.46-4.07
		c-1.51-0.572-2.587-1.934-2.587-3.645c0-2.209,1.791-3.961,4-3.961s4,1.706,4,3.915C39.034,48.533,37.957,49.94,36.447,50.513z"/>
</g>
</svg>
