<?xml version="1.0" encoding="utf-8"?>
<!-- Generator: Adobe Illustrator 16.0.0, SVG Export Plug-In . SVG Version: 6.00 Build 0)  -->
<!DOCTYPE svg PUBLIC "-//W3C//DTD SVG 1.1//EN" "http://www.w3.org/Graphics/SVG/1.1/DTD/svg11.dtd">
<svg version="1.1" id="Layer_1" xmlns="http://www.w3.org/2000/svg" xmlns:xlink="http://www.w3.org/1999/xlink" x="0px" y="0px"
	 width="70px" height="70px" viewBox="0 0 70 70" enable-background="new 0 0 70 70" xml:space="preserve">
<g>
	<path d="M66.583,6.605c0-2.222-1.194-4.022-3.183-4.022H6.6c-1.988,0-4.017,1.801-4.017,4.022v55.955
		c0,2.222,2.029,4.022,4.017,4.022H63.4c1.988,0,3.183-1.801,3.183-4.022V6.605z M51.583,6.583v56h-35v-56H51.583z M6.583,62.583
		v-56h8v56H6.583z M62.583,62.583h-9v-56h9V62.583z"/>
	<path d="M25,48.88c0.309,0.179,0.967,0.268,1.312,0.268s0.736-0.089,1.045-0.268l21.02-12.125c0.619-0.357,1-1.018,1-1.732
		s-0.4-1.375-1.02-1.732L27.309,21.165c-0.619-0.357-1.691-0.357-2.31,0s-1.416,1.018-1.416,1.732v24.25
		C23.583,47.862,24.381,48.522,25,48.88z M27.583,26.361l15,8.661l-15,8.661V26.361z"/>
	<path d="M38.455,34.19l-6-4c-0.461-0.307-1.08-0.183-1.387,0.277s-0.183,1.08,0.277,1.387l6,4c0.17,0.113,0.363,0.168,0.553,0.168
		c0.324,0,0.641-0.156,0.834-0.445C39.038,35.117,38.914,34.497,38.455,34.19z"/>
	<path d="M57.583,60.417c0.553,0,1-0.447,1-1v-2c0-0.553-0.447-1-1-1s-1,0.447-1,1v2C56.583,59.97,57.03,60.417,57.583,60.417z"/>
	<path d="M57.583,52.417c0.553,0,1-0.447,1-1v-4c0-0.553-0.447-1-1-1s-1,0.447-1,1v4C56.583,51.97,57.03,52.417,57.583,52.417z"/>
	<path d="M57.583,22.417c0.553,0,1-0.447,1-1v-4c0-0.553-0.447-1-1-1s-1,0.447-1,1v4C56.583,21.97,57.03,22.417,57.583,22.417z"/>
	<path d="M57.583,42.417c0.553,0,1-0.447,1-1v-4c0-0.553-0.447-1-1-1s-1,0.447-1,1v4C56.583,41.97,57.03,42.417,57.583,42.417z"/>
	<path d="M57.583,32.417c0.553,0,1-0.447,1-1v-4c0-0.553-0.447-1-1-1s-1,0.447-1,1v4C56.583,31.97,57.03,32.417,57.583,32.417z"/>
	<path d="M57.583,12.417c0.553,0,1-0.447,1-1v-2c0-0.553-0.447-1-1-1s-1,0.447-1,1v2C56.583,11.97,57.03,12.417,57.583,12.417z"/>
	<path d="M10.583,56.417c-0.552,0-1,0.447-1,1v2c0,0.553,0.448,1,1,1s1-0.447,1-1v-2C11.583,56.864,11.135,56.417,10.583,56.417z"/>
	<path d="M10.583,46.417c-0.552,0-1,0.447-1,1v4c0,0.553,0.448,1,1,1s1-0.447,1-1v-4C11.583,46.864,11.135,46.417,10.583,46.417z"/>
	<path d="M10.583,26.417c-0.552,0-1,0.447-1,1v4c0,0.553,0.448,1,1,1s1-0.447,1-1v-4C11.583,26.864,11.135,26.417,10.583,26.417z"/>
	<path d="M10.583,16.417c-0.552,0-1,0.447-1,1v4c0,0.553,0.448,1,1,1s1-0.447,1-1v-4C11.583,16.864,11.135,16.417,10.583,16.417z"/>
	<path d="M10.583,36.417c-0.552,0-1,0.447-1,1v4c0,0.553,0.448,1,1,1s1-0.447,1-1v-4C11.583,36.864,11.135,36.417,10.583,36.417z"/>
	<path d="M10.583,8.417c-0.552,0-1,0.447-1,1v2c0,0.553,0.448,1,1,1s1-0.447,1-1v-2C11.583,8.864,11.135,8.417,10.583,8.417z"/>
</g>
</svg>
