<?xml version="1.0" encoding="utf-8"?>
<!-- Generator: Adobe Illustrator 16.0.0, SVG Export Plug-In . SVG Version: 6.00 Build 0)  -->
<!DOCTYPE svg PUBLIC "-//W3C//DTD SVG 1.1//EN" "http://www.w3.org/Graphics/SVG/1.1/DTD/svg11.dtd">
<svg version="1.1" id="Layer_1" xmlns="http://www.w3.org/2000/svg" xmlns:xlink="http://www.w3.org/1999/xlink" x="0px" y="0px"
	 width="70px" height="70px" viewBox="0 0 70 70" enable-background="new 0 0 70 70" xml:space="preserve">
<g>
	<path d="M43.913,3.944c-0.527-0.238-0.521-0.354-1.077-0.354c-0.957,0-1.843,0.046-2.589,0.702L22.634,19.583h-9.968
		c-4.806,0-10.083,4.504-10.083,9.31v12.57c0,4.806,5.278,8.12,10.083,8.12h10.166l17.472,15.709
		c0.746,0.658,1.69,1.149,2.647,1.149c0.557,0,0.434-0.042,0.961-0.28c1.434-0.646,1.67-1.999,1.67-3.571v-55
		C45.583,6.018,45.347,4.591,43.913,3.944z M23.583,23.685l13-11.714v46.001l-13-12.006V23.685z M6.583,41.463v-12.57
		c0-2.604,3.48-5.31,6.083-5.31h8.917v22h-8.917C10.063,45.583,6.583,44.066,6.583,41.463z M38.583,59.819v-49.65l3-2.703V62.59
		L38.583,59.819z"/>
	<path d="M60.778,34.678l5.587-5.587c0.781-0.781,0.781-2.047,0-2.828s-2.047-0.781-2.828,0l-5.587,5.586l-5.585-5.585
		c-0.781-0.781-2.047-0.781-2.828,0s-0.781,2.047,0,2.828l5.585,5.586l-5.584,5.584c-0.781,0.781-0.781,2.047,0,2.828
		c0.391,0.391,0.902,0.586,1.414,0.586s1.023-0.195,1.414-0.586l5.584-5.584l5.587,5.586c0.391,0.391,0.902,0.586,1.414,0.586
		s1.023-0.195,1.414-0.586c0.781-0.781,0.781-2.047,0-2.828L60.778,34.678z"/>
	<path d="M8.583,37.876c-0.553,0-1,0.447-1,1v2c0,0.553,0.447,1,1,1s1-0.447,1-1v-2C9.583,38.323,9.136,37.876,8.583,37.876z"/>
	<path d="M14.465,25.583h-0.247c-2.828,0-6.635,1.169-6.635,4.536v5.757c0,0.553,0.447,1,1,1s1-0.447,1-1v-5.757
		c0-1.464,2.382-2.536,4.635-2.536h0.247c0.553,0,1-0.447,1-1S15.018,25.583,14.465,25.583z"/>
</g>
</svg>
