<?xml version="1.0" encoding="utf-8"?>
<!-- Generator: Adobe Illustrator 16.0.0, SVG Export Plug-In . SVG Version: 6.00 Build 0)  -->
<!DOCTYPE svg PUBLIC "-//W3C//DTD SVG 1.1//EN" "http://www.w3.org/Graphics/SVG/1.1/DTD/svg11.dtd">
<svg version="1.1" id="Layer_1" xmlns="http://www.w3.org/2000/svg" xmlns:xlink="http://www.w3.org/1999/xlink" x="0px" y="0px"
	 width="70px" height="70px" viewBox="0 0 70 70" enable-background="new 0 0 70 70" xml:space="preserve">
<g>
	<path d="M32.509,11.8c-12.617,0-22.882,10.265-22.882,22.881s10.265,22.881,22.882,22.881c12.617,0,22.88-10.265,22.88-22.881
		S45.126,11.8,32.509,11.8z M32.509,53.562c-10.429,0-18.882-8.451-18.882-18.881c0-10.428,8.453-18.881,18.882-18.881
		c10.429,0,18.88,8.453,18.88,18.881C51.39,45.11,42.938,53.562,32.509,53.562z"/>
	<path d="M38.649,19.599c-0.511-0.213-1.095,0.036-1.302,0.549c-0.209,0.511,0.037,1.095,0.549,1.303
		c5.404,2.202,8.894,7.396,8.894,13.23c0,0.552,0.447,1,1,1c0.551,0,1-0.447,1-1C48.79,28.029,44.81,22.109,38.649,19.599z"/>
	<path d="M32.509,20.399c0.761,0,1.525,0.061,2.271,0.181c0.055,0.009,0.107,0.013,0.16,0.013c0.482,0,0.908-0.35,0.986-0.842
		c0.088-0.545-0.283-1.058-0.828-1.146c-0.853-0.137-1.724-0.206-2.59-0.206c-0.553,0-1,0.447-1,1S31.957,20.399,32.509,20.399z"/>
	<path d="M35.945,36.703c0.353-0.596,0.568-1.281,0.568-2.022c0-2.208-1.796-4.004-4.004-4.004c-2.208,0-4.005,1.796-4.005,4.004
		c0,0.696,0.195,1.342,0.509,1.913l-7.073,7.073c-0.391,0.391-0.391,1.023,0,1.414c0.195,0.195,0.451,0.293,0.707,0.293
		s0.512-0.098,0.707-0.293l7.023-7.023c0.619,0.393,1.347,0.628,2.132,0.628c0.74,0,1.426-0.216,2.021-0.568l2.329,2.328
		c0.195,0.195,0.451,0.293,0.707,0.293s0.513-0.098,0.707-0.293c0.391-0.391,0.391-1.023,0-1.414L35.945,36.703z M32.509,36.686
		c-0.554,0-1.056-0.225-1.418-0.587c-0.025-0.032-0.038-0.071-0.067-0.102c-0.011-0.011-0.025-0.014-0.036-0.024
		c-0.297-0.35-0.483-0.797-0.483-1.292c0-1.107,0.896-2.004,2.005-2.004c1.106,0,2.004,0.896,2.004,2.004
		S33.616,36.686,32.509,36.686z"/>
	<path d="M58.583,29.417c-1.104,0-2,0.896-2,2v6c0,1.104,0.896,2,2,2c1.105,0,2-0.896,2-2v-6
		C60.583,30.313,59.688,29.417,58.583,29.417z"/>
	<path d="M21.396,12.989c1.036,0.378,2.185-0.472,2.563-1.51l1.627-4.896h14.033l1.635,5.05c0.289,0.822,1.063,1.648,1.887,1.648
		c0.221,0,0.445-0.037,0.664-0.115c1.043-0.367,1.588-1.536,1.221-2.577l-2.105-6.268c-0.281-0.8-1.037-1.739-1.885-1.739h-16.85
		c-0.841,0-1.593,0.917-1.88,1.708l-2.105,6.083C19.822,11.413,20.357,12.612,21.396,12.989z"/>
	<path d="M43.772,57.117c-1.045-0.348-2.18-0.099-2.531,0.95l-1.648,4.516H25.619l-1.646-4.469
		c-0.354-1.045-1.487-1.322-2.536-0.967c-1.046,0.354-1.607,1.489-1.253,2.536l2.105,5.932c0.275,0.813,1.037,0.968,1.895,0.968
		h16.848c0.861,0,1.625-0.158,1.896-0.975l2.107-6.012C45.386,58.549,44.821,57.467,43.772,57.117z"/>
</g>
</svg>
