<?xml version="1.0" encoding="utf-8"?>
<!-- Generator: Adobe Illustrator 16.0.0, SVG Export Plug-In . SVG Version: 6.00 Build 0)  -->
<!DOCTYPE svg PUBLIC "-//W3C//DTD SVG 1.1//EN" "http://www.w3.org/Graphics/SVG/1.1/DTD/svg11.dtd">
<svg version="1.1" id="Layer_1" xmlns="http://www.w3.org/2000/svg" xmlns:xlink="http://www.w3.org/1999/xlink" x="0px" y="0px"
	 width="70px" height="70px" viewBox="0 0 70 70" enable-background="new 0 0 70 70" xml:space="preserve">
<g>
	<path d="M34.999,2.909c-14.905,0-27.031,12.127-27.031,27.032s12.126,27.032,27.031,27.032c14.906,0,27.033-12.127,27.033-27.032
		S49.905,2.909,34.999,2.909z M34.999,52.974c-12.721,0-23.031-10.311-23.031-23.032S22.278,6.909,34.999,6.909
		S58.032,17.22,58.032,29.941S47.72,52.974,34.999,52.974z"/>
	<path d="M51.934,63.515c-4.626-3.614-10.64-5.605-16.935-5.605c-6.149,0-12.061,1.911-16.644,5.382
		c-0.88,0.667-1.054,1.922-0.387,2.802c0.667,0.882,1.921,1.056,2.802,0.388c3.893-2.948,8.945-4.571,14.229-4.571
		c5.406,0,10.546,1.689,14.472,4.758c0.366,0.285,0.8,0.424,1.229,0.424c0.596,0,1.184-0.264,1.578-0.769
		C52.958,65.452,52.804,64.195,51.934,63.515z"/>
	<path d="M34.999,18.392c-6.368,0-11.549,5.182-11.549,11.55s5.181,11.55,11.549,11.55c6.369,0,11.551-5.182,11.551-11.55
		S41.368,18.392,34.999,18.392z M34.999,39.491c-5.274,0-9.549-4.274-9.549-9.55s4.274-9.55,9.549-9.55
		c5.275,0,9.551,4.274,9.551,9.55S40.274,39.491,34.999,39.491z"/>
	<path d="M34.999,22.145c-4.299,0-7.797,3.498-7.797,7.797s3.498,7.797,7.797,7.797c4.3,0,7.798-3.498,7.798-7.797
		S39.299,22.145,34.999,22.145z M34.999,35.738c-3.201,0-5.797-2.595-5.797-5.797s2.596-5.797,5.797-5.797
		c3.203,0,5.798,2.595,5.798,5.797S38.202,35.738,34.999,35.738z"/>
	<path d="M48.481,15.216c-1.924,0-3.49,1.565-3.49,3.49s1.566,3.491,3.49,3.491c1.925,0,3.49-1.566,3.49-3.491
		S50.406,15.216,48.481,15.216z M48.481,20.197c-0.823,0-1.49-0.668-1.49-1.491s0.667-1.49,1.49-1.49c0.824,0,1.49,0.667,1.49,1.49
		S49.306,20.197,48.481,20.197z"/>
	<path d="M31.362,14.02c0.027,0,0.056-0.001,0.084-0.004c0.372-0.03,0.75-0.045,1.129-0.045c0.552,0,1-0.447,1-1s-0.448-1-1-1
		c-0.436,0-0.868,0.017-1.295,0.053c-0.551,0.045-0.959,0.528-0.914,1.079C30.41,13.625,30.847,14.02,31.362,14.02z"/>
	<path d="M27.423,13.872c-0.231-0.503-0.826-0.721-1.326-0.492c-5.509,2.529-9.068,8.078-9.068,14.138c0,0.553,0.447,1,1,1
		s1-0.447,1-1c0-5.28,3.102-10.116,7.902-12.319C27.433,14.968,27.653,14.374,27.423,13.872z"/>
</g>
</svg>
