<?xml version="1.0" encoding="UTF-8" standalone="no"?>
<!-- Created with Inkscape (http://www.inkscape.org/) -->

<svg
   xmlns:dc="http://purl.org/dc/elements/1.1/"
   xmlns:cc="http://creativecommons.org/ns#"
   xmlns:rdf="http://www.w3.org/1999/02/22-rdf-syntax-ns#"
   xmlns:svg="http://www.w3.org/2000/svg"
   xmlns="http://www.w3.org/2000/svg"
   xmlns:sodipodi="http://sodipodi.sourceforge.net/DTD/sodipodi-0.dtd"
   xmlns:inkscape="http://www.inkscape.org/namespaces/inkscape"
   id="svg3020"
   version="1.1"
   inkscape:version="0.48.4 r9939"
   width="820"
   height="544"
   sodipodi:docname="404.png"
   inkscape:export-filename="/var/www/html/andrew/html/images/404.png"
   inkscape:export-xdpi="90"
   inkscape:export-ydpi="90">
  <metadata
     id="metadata3026">
    <rdf:RDF>
      <cc:Work
         rdf:about="">
        <dc:format>image/svg+xml</dc:format>
        <dc:type
           rdf:resource="http://purl.org/dc/dcmitype/StillImage" />
        <dc:title></dc:title>
      </cc:Work>
    </rdf:RDF>
  </metadata>
  <defs
     id="defs3024" />
  <sodipodi:namedview
     pagecolor="#ffffff"
     bordercolor="#666666"
     borderopacity="1"
     objecttolerance="10"
     gridtolerance="10"
     guidetolerance="10"
     inkscape:pageopacity="0"
     inkscape:pageshadow="2"
     inkscape:window-width="1535"
     inkscape:window-height="876"
     id="namedview3022"
     showgrid="false"
     inkscape:zoom="0.34007353"
     inkscape:cx="302.50314"
     inkscape:cy="343.00196"
     inkscape:window-x="65"
     inkscape:window-y="24"
     inkscape:window-maximized="1"
     inkscape:current-layer="g3406" />
  <g
     id="g3406"
     transform="translate(-33.268418,-26.634209)">
    <path
       transform="translate(19.960348,22.216263)"
       d="m 324.36708,415.08487 a 82.131409,76.93322 0 1 1 -164.26282,0 82.131409,76.93322 0 1 1 164.26282,0 z"
       sodipodi:ry="76.93322"
       sodipodi:rx="82.131409"
       sodipodi:cy="415.08487"
       sodipodi:cx="242.23567"
       id="path3400"
       style="fill:#ffcc00"
       sodipodi:type="arc" />
    <text
       sodipodi:linespacing="125%"
       id="text3376"
       y="383.60745"
       x="348.82852"
       style="font-size:40px;font-style:normal;font-variant:normal;font-weight:bold;font-stretch:normal;line-height:125%;letter-spacing:0px;word-spacing:0px;fill:#000000;fill-opacity:1;stroke:none;font-family:Alien League;-inkscape-font-specification:Alien League Bold"
       xml:space="preserve"><tspan
         style="font-size:48px;font-style:normal;font-variant:normal;font-weight:bold;font-stretch:normal;text-align:start;text-anchor:start;fill:#ff0000;font-family:Purisa;-inkscape-font-specification:Purisa Bold"
         id="tspan3380"
         y="383.60745"
         x="348.82852"
         sodipodi:role="line">ALL THIS </tspan><tspan
         id="tspan3386"
         style="font-style:normal;font-variant:normal;font-weight:bold;font-stretch:normal;text-align:start;text-anchor:start;fill:#00ff00;font-family:Purisa;-inkscape-font-specification:Purisa Bold"
         y="437.21841"
         x="348.82852"
         sodipodi:role="line">YOU ARE BROWSING   </tspan><tspan
         style="font-size:48px;font-style:normal;font-variant:normal;font-weight:600;font-stretch:normal;text-align:start;text-anchor:start;fill:#ffcc00;font-family:URW Gothic L;-inkscape-font-specification:URW Gothic L Semi-Bold"
         id="tspan3384"
         y="503.4614"
         x="348.82852"
         sodipodi:role="line"> THERE IS GOD OOH </tspan></text>
    <text
       xml:space="preserve"
       style="font-size:40px;font-style:normal;font-variant:normal;font-weight:bold;font-stretch:normal;line-height:125%;letter-spacing:0px;word-spacing:0px;fill:#000000;fill-opacity:1;stroke:none;font-family:Alien League;-inkscape-font-specification:Alien League Bold"
       x="192.0575"
       y="459.83426"
       id="text3490"
       sodipodi:linespacing="125%"><tspan
         sodipodi:role="line"
         id="tspan3492"
         x="192.0575"
         y="459.83426"
         style="font-size:72px;font-style:normal;font-variant:normal;font-weight:bold;font-stretch:normal;font-family:Purisa;-inkscape-font-specification:Purisa Bold">404</tspan></text>
  </g>
  <path
     d="m 171.05445,-359.1835 c 2.21113,-6.95535 -2.49927,-20.62336 -2.49927,-20.62336 0,0 -3.17428,7.24557 -4.2148,14.2754 -1.04052,7.02984 4.4913,13.31355 6.71407,6.34796 z"
     id="path167"
     inkscape:connector-curvature="0"
     style="fill:none" />
  <path
     d="m 151.49762,-255.54706 c 3.07531,-11.04154 10.37388,-15.43229 12.05371,-23.01461 1.65795,-7.58371 -5.84054,-19.90228 -5.84054,-19.90228 0,0 -0.52822,-1.53851 -2.78858,6.01786 -2.24872,7.54612 -6.49036,47.96315 -3.42459,36.89903 z"
     id="path169"
     inkscape:connector-curvature="0"
     style="fill:none" />
  <path
     d="m 301.1587,191.07596 c 3.07949,0.97588 6.39589,-1.94369 19.40818,-3.08189 13.00065,-1.12795 7.09747,-0.71271 21.55348,-0.19922 14.46556,0.53607 20.21299,-9.68734 20.21299,-9.68734 0,0 -15.63687,-0.59962 -21.48993,-0.97209 -5.85306,-0.37246 -7.47441,-11.83371 -16.16817,-22.9761 -8.68352,-11.13076 -24.29273,12.17387 -27.70869,16.6579 -3.41665,4.49497 0.35487,6.67925 0.51361,10.2264 0.18061,3.54853 0.60997,9.05717 3.67853,10.03234 z"
     id="path171"
     inkscape:connector-curvature="0"
     style="fill:none" />
  <path
     d="m 20.990344,-209.643 c -1.475241,17.14095 -11.6746498,85.06876 -13.7574712,111.584862 -2.0725772,26.527734 7.1538872,60.02473 10.3603972,77.474601 3.207206,17.438931 -3.384125,16.2395791 11.762427,36.79997 15.158189,20.550147 40.66252,50.788021 45.564769,53.84613 4.891309,3.057413 9.76621,12.759465 18.034289,12.121244 8.268775,-0.649161 175.145575,178.891373 175.145575,178.891373 0,0 27.31793,1.7384 30.73021,3.52634 3.41228,1.78794 -3.36653,3.70727 7.09448,5.54832 10.47196,1.84175 49.30424,-5.08994 59.80125,-3.64205 10.49702,1.44789 7.4779,-0.30405 16.88198,-0.4965 9.41432,-0.18082 19.57129,-5.81766 31.10336,-2.33766 11.53207,3.48001 9.08452,-7.25391 40.67761,-4.859 31.59239,2.40586 46.45548,-3.30498 55.26779,-6.28125 8.81231,-2.97626 7.81505,-5.77489 20.10249,-8.12357 12.29839,-2.348 36.61985,-21.1877 38.25811,-22.24781 1.63896,-1.07106 20.11034,-26.54425 6.1527,-59.5734 -13.96929,-33.0189 -27.23619,-40.13536 -33.29513,-49.5283 -6.05824,-9.40388 -38.7218,-38.131093 -55.64585,-49.401779 -16.92405,-11.270686 -33.27065,-25.228806 -31.32199,-49.809167 1.9582,-24.557784 33.38353,-179.714674 33.68081,-184.386184 0.29867,-4.69339 22.81534,-112.20578 23.45096,-128.2358 0.62469,-16.03072 -0.72686,-50.20194 4.10149,-70.66656 4.82834,-20.46463 19.10701,-41.50322 17.37515,-51.40071 -1.70858,-9.91797 2.40656,-31.60333 4.51316,-33.809 2.09636,-2.2173 34.44994,-116.55127 39.69341,-155.79511 5.24347,-39.24384 23.5332,-172.5095 23.24924,-192.904 -0.27372,-20.38287 1.55816,-61.42559 2.12905,-70.39663 0.57088,-8.97105 9.85888,-25.6368 -20.40239,-55.00204 -30.27291,-29.35499 -76.91241,-78.56812 -97.90834,-105.77292 -20.99594,-27.2048 -58.50517,-78.1767 -62.11218,-83.1186 -3.60772,-4.931 1.38682,-9.71 1.42581,-16.3642 0.039,-6.6542 0.23868,-34.4764 -5.06856,-43.4261 -5.30655,-8.9606 -0.45005,-11.3977 2.86635,-14.3173 3.31709,-2.9305 18.45807,-0.4072 17.60253,-11.8197 -0.84459,-11.4118 2.96282,-34.3031 2.43758,-44.5192 -0.5136,-10.2264 -1.5787,-24.3874 -6.46633,-33.7168 -4.88833,-9.3185 1.13569,-30.1024 4.29634,-42.8302 3.16134,-12.7387 0.0823,-19.5913 3.34572,-34.2787 3.29621,-14.6854 3.6619,-32.6878 8.97948,-42.5432 5.31758,-9.8553 11.0471,-38.0946 13.40661,-50.4888 2.35952,-12.3943 2.44137,-26.1089 4.25368,-29.9041 1.8123,-3.7951 8.22649,-18.2821 4.27506,-24.0258 -3.95214,-5.7329 -15.43478,-9.9896 -27.11583,-11.1284 -11.68175,-1.1278 -61.26318,-4.283 -75.3135,1.0841 -14.06196,5.3774 -14.26823,26.916 -11.93068,33.337 2.33755,6.421 7.98851,16.1834 7.74067,20.0781 -0.24854,3.9057 2.51101,28.3793 4.34421,36.3389 1.84483,7.9494 -6.04162,33.3163 -6.6846,61.8903 -0.64297,28.5739 1.64882,29.4997 -2.25985,35.5122 -3.90936,6.0234 -25.46024,30.5207 -35.58419,42.0255 -10.14513,11.4923 -8.00371,14.7812 -14.66884,14.7415 -6.64394,-0.027 -11.51068,2.3981 -16.67192,-2.6317 -5.17218,-5.0306 -17.44987,3.2065 -16.57297,-23.0019 0.87691,-26.2084 3.33528,-40.1561 3.11896,-55.054 -0.22727,-14.8986 -4.83453,-16.3782 -7.0017,-19.2622 -2.17881,-2.8738 -1.11453,-13.3843 -1.54319,-18.9039 -0.42866,-5.5195 15.14026,-40.9647 21.01161,-53.1355 5.87135,-12.1708 14.59812,-38.6595 8.35538,-51.2058 -6.26531,-12.5366 -18.08074,-17.6055 -25.60876,-16.5137 -7.51707,1.0924 -37.21877,36.8136 -43.85296,42.6746 -6.64374,5.8384 -14.55835,13.1778 -33.81802,63.2942 -19.24804,50.1062 -15.96347,35.4311 -19.42209,52.8413 -3.45861,17.4101 -7.18418,26.5869 -17.24457,36.9203 -10.04946,10.3341 -7.41752,-0.472 -20.22344,3.8099 -12.80591,4.2819 -16.90692,25.5727 -21.7664,34.2709 -4.85947,8.6981 -22.036326,32.2984 -23.001754,41.2554 -0.965427,8.9569 -0.326712,11.3482 10.095314,19.8435 10.44322,8.5075 34.2879,33.9274 54.77689,38.3728 20.48969,4.4345 22.28131,-5.2497 36.49534,5.4531 14.21404,10.7027 43.47577,43.5194 52.51097,61.7247 9.0352,18.2052 14.73927,20.9189 8.22185,43.2423 -6.51742,22.3234 -7.04959,79.88177 -4.96794,102.75236 2.08165,22.87059 10.32247,10.0597 2.63493,26.43186 -7.69778,16.36052 -12.91262,24.25613 -11.82753,44.31716 1.07484,20.04938 3.50448,12.76742 -7.20855,26.96982 -10.71373,14.21334 -7.1445,19.92179 -8.37607,45.3167 -1.22063,25.39561 -7.0321,42.66706 -8.85475,65.26723 -1.82334,22.61111 -7.4181,24.22132 -10.0011,40.12742 -2.583,15.9061 -34.6979,95.76362 -40.14667,101.29364 -5.43782,5.53072 -5.40977,-1.12416 -13.3383,12.47552 -7.91759,13.60039 -10.98305,31.04658 -20.16036,52.01436 -9.16637,20.96848 -10.52147,17.75163 -21.61741,31.92967 -11.09594,14.17803 -13.05813,14.45959 -18.36576,36.06907 -5.307625,21.60947 -0.791268,30.90425 -22.494812,64.01477 -21.702848,33.09958 -17.583543,-0.73449 -20.929764,39.42098 -3.34622,40.15546 -7.914494,32.02175 -11.100203,45.14335 -3.185709,13.12159 5.825015,7.02735 -3.742557,40.5147 -9.600394,33.48527 -16.443136,67.13504 -17.93071,84.29719 z M 386.58121,-922.22567 c 2.22805,1.06449 11.5638,6.26112 19.06557,18.70074 7.49013,12.44985 4.39064,10.4072 9.08393,16.23112 4.69329,5.82391 3.74576,6.21398 23.12064,19.88149 19.38651,13.65726 -2.05259,25.1779 -0.11625,30.82637 1.93703,5.63754 1.75094,1.4845 3.5564,23.68942 1.80546,22.20493 -7.07081,17.03753 -9.81313,31.13201 -2.73139,14.09518 -2.38886,15.96239 -11.82187,41.121 -9.41183,25.17095 -34.13539,66.38266 -34.13539,66.38266 0,0 -3.64342,-22.32189 -10.49932,-37.48852 -6.85659,-15.15569 -0.86999,-87.48179 -0.70987,-104.49773 0.16012,-17.01594 7.99604,-53.32669 10.99685,-78.9056 3.01175,-25.57822 -0.96723,-28.12721 1.27244,-27.07296 z M 296.96587,170.82816 c 3.41595,-4.48403 19.01422,-27.78935 27.70868,-16.6579 8.69376,11.14239 10.31512,22.60364 16.16818,22.9761 5.85306,0.37247 21.48992,0.97209 21.48992,0.97209 0,0 -5.74743,10.22341 -20.21299,9.68734 -14.45531,-0.52443 -8.55282,-0.92873 -21.55348,0.19922 -13.01228,1.1382 -16.32868,4.05777 -19.40818,3.0819 -3.06855,-0.97518 -3.49791,-6.48382 -3.67853,-10.03235 -0.15874,-3.54715 -3.93025,-5.73143 -0.5136,-10.2264 z M 168.55518,-379.80686 c 0,0 4.7104,13.66801 2.49927,20.62336 -2.22207,6.95465 -7.74365,0.68258 -6.70313,-6.34726 1.04052,-7.02984 4.20386,-14.2761 4.20386,-14.2761 z m -13.63297,87.36077 c 2.26036,-7.55637 2.78858,-6.01786 2.78858,-6.01786 0,0 7.50943,12.31926 5.84054,19.90228 -1.66889,7.58302 -8.9784,11.97307 -12.05371,23.01461 -3.06577,11.06412 1.17587,-29.35291 3.42459,-36.89903 z"
     id="path173"
     inkscape:connector-curvature="0"
     style="fill:#800000" />
  <g
     id="g175"
     transform="matrix(-10.940297,-0.69619566,0.69619566,-10.940297,2561.4789,5610.5862)">
    <path
       style="fill:none"
       inkscape:connector-curvature="0"
       id="path177"
       d="m 253.38,520.071 c -0.216,1.023 -0.855,1.465 -0.964,2.165 -0.107,0.7 0.647,1.778 0.647,1.778 0,0 0.057,0.137 0.219,-0.564 0.161,-0.7 0.313,-4.404 0.098,-3.379 z" />
    <path
       style="fill:none"
       inkscape:connector-curvature="0"
       id="path179"
       d="m 252.2,529.619 c -0.161,0.646 0.347,1.863 0.347,1.863 0,0 0.247,-0.678 0.301,-1.324 0.054,-0.646 -0.486,-1.186 -0.648,-0.539 z" />
  </g>
  <path
     style="fill:#ffffff;stroke:#000000;stroke-width:5.48121309"
     inkscape:connector-curvature="0"
     id="path181"
     d="m 246.41659,177.01443 c 0,0 29.72319,-5.16066 38.7584,13.04458 0,0 -20.49435,57.08997 -17.60351,67.07219 2.89082,9.98222 -34.06859,18.20846 -44.44097,14.80224 l 23.28608,-94.91901 z" />
  <path
     inkscape:connector-curvature="0"
     id="path183"
     d="m 97.249644,193.00632 c 0,0 51.831416,-62.9278 27.667566,-83.67755 C 100.76362,88.590657 67.496631,57.089876 51.307085,28.235648 l 235.760965,-46.928314 18.42243,147.739836 0.96995,83.14922 -209.210786,-19.19007 z"
     style="fill:#800000" />
  <path
     style="fill:#cccccc;stroke:#000000;stroke-width:5.48121309"
     inkscape:connector-curvature="0"
     id="path185"
     d="m 236.20096,242.953 c 4.12748,-8.41518 7.65096,-15.45178 9.57575,-18.94324 7.09139,-12.87306 6.02091,-39.20536 5.21232,-51.01031 -0.8086,-11.80499 -18.08382,-36.02689 -49.7721,-43.14027 -31.68827,-7.11336 -49.90017,14.45486 -49.90017,14.45486 l -65.386059,60.50543 -34.1515,62.49307 29.730072,31.67116 c 0,0 15.608123,7.26542 17.505383,8.17705 1.908874,0.90138 19.663494,5.16182 21.571664,6.07414 1.9082,0.91232 3.61748,10.81937 3.61748,10.81937 l 10.47871,13.99113 31.69942,12.97986 33.11098,-27.6722 10.21605,-25.20765 c 0,0 2.08175,-4.40415 5.27521,-11.08828 0,0 3.25306,6.53414 13.53025,5.22188 10.26559,-1.30199 10.52806,-11.46801 9.66953,-16.61949 -0.83662,-5.15011 -0.63086,-20.81202 0.86208,-25.8029 1.48412,-5.02437 -2.84507,-6.90361 -2.84507,-6.90361 z" />
  <path
     style="fill:#cccccc;stroke:#000000;stroke-width:5.48121309"
     inkscape:connector-curvature="0"
     id="path187"
     d="m 173.31932,-619.69273 c 0,0 57.23299,53.63299 71.56817,47.9325 14.32491,-5.71215 17.71204,-18.5463 23.21578,-21.3157 5.50377,-2.76939 10.83428,-14.38142 13.69644,-27.42472 2.85195,-13.05497 9.97368,-26.74994 14.17445,-29.23975 4.18983,-2.49052 6.05137,-5.67842 2.56021,-8.47097 -3.50207,-2.79325 -10.65812,-2.88615 -14.41642,-1.65338 -3.74733,1.23348 -5.41058,-1.62951 -0.98931,-7.41164 4.40008,-5.79449 18.49108,-16.28882 21.43483,-19.22112 2.94372,-2.9323 9.81005,-9.67928 0.5823,-14.84708 -9.22774,-5.1678 -12.53181,-2.26942 -14.77743,-1.67635 -2.24565,0.59307 -1.467,-2.83949 -9.16897,-3.32961 -7.70198,-0.49013 -19.18719,1.16266 -20.71188,2.16409 -1.54726,1.01097 -13.90432,-4.00445 -16.9526,-2.36401 -3.04824,1.64047 -8.49432,0.56892 -16.7796,3.7215 -8.28461,3.14167 -5.65525,7.91155 -10.01833,10.01755 -4.36378,2.11695 -17.12913,9.21353 -21.586,18.66226 -4.45618,9.4378 -29.54506,28.42639 -21.83164,54.45643 z" />
  <path
     inkscape:connector-curvature="0"
     id="path189"
     d="m 97.249644,193.00632 c 0,0 -27.119406,19.82602 -37.041759,27.81751 -9.900472,7.99289 -43.065752,48.60151 -37.585056,79.50942 5.480025,30.91887 15.142285,51.52571 32.116479,62.00869 16.963925,10.47135 45.770522,38.1842 81.364572,26.7295 35.61594,-11.45332 75.17652,-72.81129 76.74465,-78.98371 1.55721,-6.17311 -1.40125,-21.65194 2.55684,-28.44119 3.9595,-6.81114 -6.07247,9.80729 -11.48572,20.82088 -5.41395,11.02453 -16.94589,32.22694 -33.31378,37.07309 -16.37812,4.83453 -26.00927,-4.00583 -33.86588,-15.87485 -7.86827,-11.85877 0.52512,-14.46625 -16.14383,-23.35901 C 103.917,291.40225 97.960703,298.86622 86.865342,288.35092 75.769287,277.84653 66.127703,263.12877 68.426156,251.52151 70.769065,239.90609 93.11013,215.07459 97.249644,193.00632 z"
     style="fill:#333333" />
</svg>
